<?xml version="1.0" encoding="utf-8" standalone="no"?>
<!DOCTYPE svg PUBLIC "-//W3C//DTD SVG 1.1//EN"
  "http://www.w3.org/Graphics/SVG/1.1/DTD/svg11.dtd">
<svg xmlns:xlink="http://www.w3.org/1999/xlink" width="504pt" height="360pt" viewBox="0 0 504 360" xmlns="http://www.w3.org/2000/svg" version="1.1">
 <metadata>
  <rdf:RDF xmlns:dc="http://purl.org/dc/elements/1.1/" xmlns:cc="http://creativecommons.org/ns#" xmlns:rdf="http://www.w3.org/1999/02/22-rdf-syntax-ns#">
   <cc:Work>
    <dc:type rdf:resource="http://purl.org/dc/dcmitype/StillImage"/>
    <dc:date>2025-05-03T14:36:48.325696</dc:date>
    <dc:format>image/svg+xml</dc:format>
    <dc:creator>
     <cc:Agent>
      <dc:title>Matplotlib v3.10.1, https://matplotlib.org/</dc:title>
     </cc:Agent>
    </dc:creator>
   </cc:Work>
  </rdf:RDF>
 </metadata>
 <defs>
  <style type="text/css">*{stroke-linejoin: round; stroke-linecap: butt}</style>
 </defs>
 <g id="figure_1">
  <g id="patch_1">
   <path d="M 0 360 
L 504 360 
L 504 0 
L 0 0 
z
" style="fill: #ffffff"/>
  </g>
  <g id="patch_2">
   <path d="M 119.7 320.4 
L 396.9 320.4 
L 396.9 43.2 
L 119.7 43.2 
z
" style="fill: #ffffff"/>
  </g>
  <g id="pane3d_1">
   <g id="patch_3">
    <path d="M 140.630512 252.051364 
L 232.171005 175.320307 
L 230.898504 64.660407 
L 134.977327 134.659314 
" style="fill: #f2f2f2; opacity: 0.5; stroke: #f2f2f2; stroke-linejoin: miter"/>
   </g>
  </g>
  <g id="pane3d_2">
   <g id="patch_4">
    <path d="M 232.171005 175.320307 
L 379.060834 218.015381 
L 384.302814 103.543928 
L 230.898504 64.660407 
" style="fill: #e6e6e6; opacity: 0.5; stroke: #e6e6e6; stroke-linejoin: miter"/>
   </g>
  </g>
  <g id="pane3d_3">
   <g id="patch_5">
    <path d="M 140.630512 252.051364 
L 296.340905 302.906378 
L 379.060834 218.015381 
L 232.171005 175.320307 
" style="fill: #ececec; opacity: 0.5; stroke: #ececec; stroke-linejoin: miter"/>
   </g>
  </g>
  <g id="grid3d_1">
   <g id="Line3DCollection_1">
    <path d="M 150.06115 255.13141 
L 241.104394 177.916891 
L 240.209604 67.0205 
" style="fill: none; stroke: #b0b0b0; stroke-width: 0.8"/>
    <path d="M 171.850947 262.247958 
L 261.726986 183.911064 
L 261.713259 72.471049 
" style="fill: none; stroke: #b0b0b0; stroke-width: 0.8"/>
    <path d="M 193.972424 269.472832 
L 282.637404 189.988897 
L 283.530047 78.000969 
" style="fill: none; stroke: #b0b0b0; stroke-width: 0.8"/>
    <path d="M 216.43321 276.808525 
L 303.841717 196.152154 
L 305.66686 83.612006 
" style="fill: none; stroke: #b0b0b0; stroke-width: 0.8"/>
    <path d="M 239.241173 284.257605 
L 325.346164 202.402647 
L 328.130789 89.305957 
" style="fill: none; stroke: #b0b0b0; stroke-width: 0.8"/>
    <path d="M 262.404426 291.822724 
L 347.157163 208.742244 
L 350.92914 95.084674 
" style="fill: none; stroke: #b0b0b0; stroke-width: 0.8"/>
    <path d="M 285.931334 299.506612 
L 369.281316 215.172862 
L 374.069436 100.950065 
" style="fill: none; stroke: #b0b0b0; stroke-width: 0.8"/>
   </g>
  </g>
  <g id="grid3d_2">
   <g id="Line3DCollection_2">
    <path d="M 141.610514 129.818716 
L 146.938425 246.763945 
L 302.064484 297.032578 
" style="fill: none; stroke: #b0b0b0; stroke-width: 0.8"/>
    <path d="M 152.801686 121.651908 
L 157.588313 237.836998 
L 311.719903 287.123743 
" style="fill: none; stroke: #b0b0b0; stroke-width: 0.8"/>
    <path d="M 163.771297 113.646785 
L 168.036507 229.079114 
L 321.182815 277.412467 
" style="fill: none; stroke: #b0b0b0; stroke-width: 0.8"/>
    <path d="M 174.525863 105.798593 
L 178.288684 220.485537 
L 330.458919 267.892902 
" style="fill: none; stroke: #b0b0b0; stroke-width: 0.8"/>
    <path d="M 185.071645 98.102762 
L 188.350307 212.051685 
L 339.553695 258.559425 
" style="fill: none; stroke: #b0b0b0; stroke-width: 0.8"/>
    <path d="M 195.414665 90.554897 
L 198.226641 203.773145 
L 348.472406 249.406634 
" style="fill: none; stroke: #b0b0b0; stroke-width: 0.8"/>
    <path d="M 205.560715 83.150772 
L 207.922758 195.645668 
L 357.220116 240.429331 
" style="fill: none; stroke: #b0b0b0; stroke-width: 0.8"/>
    <path d="M 215.515368 75.886319 
L 217.443545 187.665156 
L 365.801698 231.622517 
" style="fill: none; stroke: #b0b0b0; stroke-width: 0.8"/>
    <path d="M 225.283989 68.757624 
L 226.793716 179.827657 
L 374.221838 222.981382 
" style="fill: none; stroke: #b0b0b0; stroke-width: 0.8"/>
   </g>
  </g>
  <g id="grid3d_3">
   <g id="Line3DCollection_3">
    <path d="M 379.380985 211.024096 
L 232.093133 168.548402 
L 140.285792 244.893047 
" style="fill: none; stroke: #b0b0b0; stroke-width: 0.8"/>
    <path d="M 379.933911 198.949613 
L 231.95869 156.85692 
L 139.690269 232.526617 
" style="fill: none; stroke: #b0b0b0; stroke-width: 0.8"/>
    <path d="M 380.492072 186.760792 
L 231.823035 145.06001 
L 139.088892 220.038624 
" style="fill: none; stroke: #b0b0b0; stroke-width: 0.8"/>
    <path d="M 381.055544 174.456001 
L 231.686152 133.156241 
L 138.481573 207.427269 
" style="fill: none; stroke: #b0b0b0; stroke-width: 0.8"/>
    <path d="M 381.624403 162.033579 
L 231.548022 121.144153 
L 137.868226 194.690714 
" style="fill: none; stroke: #b0b0b0; stroke-width: 0.8"/>
    <path d="M 382.198726 149.491828 
L 231.40863 109.022262 
L 137.248759 181.827085 
" style="fill: none; stroke: #b0b0b0; stroke-width: 0.8"/>
    <path d="M 382.778593 136.829024 
L 231.267958 96.789055 
L 136.623081 168.83447 
" style="fill: none; stroke: #b0b0b0; stroke-width: 0.8"/>
    <path d="M 383.364084 124.043402 
L 231.125988 84.442991 
L 135.991097 155.710921 
" style="fill: none; stroke: #b0b0b0; stroke-width: 0.8"/>
    <path d="M 383.955281 111.13317 
L 230.982702 71.982502 
L 135.352713 142.454447 
" style="fill: none; stroke: #b0b0b0; stroke-width: 0.8"/>
   </g>
  </g>
  <g id="axis3d_1">
   <g id="line2d_1">
    <path d="M 140.630512 252.051364 
L 296.340905 302.906378 
" style="fill: none; stroke: #000000; stroke-width: 0.8; stroke-linecap: square"/>
   </g>
   <g id="xtick_1">
    <g id="line2d_2">
     <path d="M 150.85395 254.45903 
L 148.472149 256.479055 
" style="fill: none; stroke: #000000; stroke-width: 0.8; stroke-linecap: square"/>
    </g>
    <g id="text_1">
     <!-- 100 -->
     <g transform="translate(132.98947 278.438223) scale(0.1 -0.1)">
      <defs>
       <path id="DejaVuSans-31" d="M 794 531 
L 1825 531 
L 1825 4091 
L 703 3866 
L 703 4441 
L 1819 4666 
L 2450 4666 
L 2450 531 
L 3481 531 
L 3481 0 
L 794 0 
L 794 531 
z
" transform="scale(0.015625)"/>
       <path id="DejaVuSans-30" d="M 2034 4250 
Q 1547 4250 1301 3770 
Q 1056 3291 1056 2328 
Q 1056 1369 1301 889 
Q 1547 409 2034 409 
Q 2525 409 2770 889 
Q 3016 1369 3016 2328 
Q 3016 3291 2770 3770 
Q 2525 4250 2034 4250 
z
M 2034 4750 
Q 2819 4750 3233 4129 
Q 3647 3509 3647 2328 
Q 3647 1150 3233 529 
Q 2819 -91 2034 -91 
Q 1250 -91 836 529 
Q 422 1150 422 2328 
Q 422 3509 836 4129 
Q 1250 4750 2034 4750 
z
" transform="scale(0.015625)"/>
      </defs>
      <use xlink:href="#DejaVuSans-31"/>
      <use xlink:href="#DejaVuSans-30" transform="translate(63.623047 0)"/>
      <use xlink:href="#DejaVuSans-30" transform="translate(127.246094 0)"/>
     </g>
    </g>
   </g>
   <g id="xtick_2">
    <g id="line2d_3">
     <path d="M 172.634063 261.565386 
L 170.28133 263.616053 
" style="fill: none; stroke: #000000; stroke-width: 0.8; stroke-linecap: square"/>
    </g>
    <g id="text_2">
     <!-- 200 -->
     <g transform="translate(154.800538 285.699434) scale(0.1 -0.1)">
      <defs>
       <path id="DejaVuSans-32" d="M 1228 531 
L 3431 531 
L 3431 0 
L 469 0 
L 469 531 
Q 828 903 1448 1529 
Q 2069 2156 2228 2338 
Q 2531 2678 2651 2914 
Q 2772 3150 2772 3378 
Q 2772 3750 2511 3984 
Q 2250 4219 1831 4219 
Q 1534 4219 1204 4116 
Q 875 4013 500 3803 
L 500 4441 
Q 881 4594 1212 4672 
Q 1544 4750 1819 4750 
Q 2544 4750 2975 4387 
Q 3406 4025 3406 3419 
Q 3406 3131 3298 2873 
Q 3191 2616 2906 2266 
Q 2828 2175 2409 1742 
Q 1991 1309 1228 531 
z
" transform="scale(0.015625)"/>
      </defs>
      <use xlink:href="#DejaVuSans-32"/>
      <use xlink:href="#DejaVuSans-30" transform="translate(63.623047 0)"/>
      <use xlink:href="#DejaVuSans-30" transform="translate(127.246094 0)"/>
     </g>
    </g>
   </g>
   <g id="xtick_3">
    <g id="line2d_4">
     <path d="M 194.745468 268.779834 
L 192.422967 270.861846 
" style="fill: none; stroke: #000000; stroke-width: 0.8; stroke-linecap: square"/>
    </g>
    <g id="text_3">
     <!-- 300 -->
     <g transform="translate(176.944811 293.071573) scale(0.1 -0.1)">
      <defs>
       <path id="DejaVuSans-33" d="M 2597 2516 
Q 3050 2419 3304 2112 
Q 3559 1806 3559 1356 
Q 3559 666 3084 287 
Q 2609 -91 1734 -91 
Q 1441 -91 1130 -33 
Q 819 25 488 141 
L 488 750 
Q 750 597 1062 519 
Q 1375 441 1716 441 
Q 2309 441 2620 675 
Q 2931 909 2931 1356 
Q 2931 1769 2642 2001 
Q 2353 2234 1838 2234 
L 1294 2234 
L 1294 2753 
L 1863 2753 
Q 2328 2753 2575 2939 
Q 2822 3125 2822 3475 
Q 2822 3834 2567 4026 
Q 2313 4219 1838 4219 
Q 1578 4219 1281 4162 
Q 984 4106 628 3988 
L 628 4550 
Q 988 4650 1302 4700 
Q 1616 4750 1894 4750 
Q 2613 4750 3031 4423 
Q 3450 4097 3450 3541 
Q 3450 3153 3228 2886 
Q 3006 2619 2597 2516 
z
" transform="scale(0.015625)"/>
      </defs>
      <use xlink:href="#DejaVuSans-33"/>
      <use xlink:href="#DejaVuSans-30" transform="translate(63.623047 0)"/>
      <use xlink:href="#DejaVuSans-30" transform="translate(127.246094 0)"/>
     </g>
    </g>
   </g>
   <g id="xtick_4">
    <g id="line2d_5">
     <path d="M 217.195781 276.104861 
L 214.90472 278.218942 
" style="fill: none; stroke: #000000; stroke-width: 0.8; stroke-linecap: square"/>
    </g>
    <g id="text_4">
     <!-- 400 -->
     <g transform="translate(199.429983 300.557202) scale(0.1 -0.1)">
      <defs>
       <path id="DejaVuSans-34" d="M 2419 4116 
L 825 1625 
L 2419 1625 
L 2419 4116 
z
M 2253 4666 
L 3047 4666 
L 3047 1625 
L 3713 1625 
L 3713 1100 
L 3047 1100 
L 3047 0 
L 2419 0 
L 2419 1100 
L 313 1100 
L 313 1709 
L 2253 4666 
z
" transform="scale(0.015625)"/>
      </defs>
      <use xlink:href="#DejaVuSans-34"/>
      <use xlink:href="#DejaVuSans-30" transform="translate(63.623047 0)"/>
      <use xlink:href="#DejaVuSans-30" transform="translate(127.246094 0)"/>
     </g>
    </g>
   </g>
   <g id="xtick_5">
    <g id="line2d_6">
     <path d="M 239.992853 283.543027 
L 237.734487 285.689924 
" style="fill: none; stroke: #000000; stroke-width: 0.8; stroke-linecap: square"/>
    </g>
    <g id="text_5">
     <!-- 500 -->
     <g transform="translate(222.263989 308.158963) scale(0.1 -0.1)">
      <defs>
       <path id="DejaVuSans-35" d="M 691 4666 
L 3169 4666 
L 3169 4134 
L 1269 4134 
L 1269 2991 
Q 1406 3038 1543 3061 
Q 1681 3084 1819 3084 
Q 2600 3084 3056 2656 
Q 3513 2228 3513 1497 
Q 3513 744 3044 326 
Q 2575 -91 1722 -91 
Q 1428 -91 1123 -41 
Q 819 9 494 109 
L 494 744 
Q 775 591 1075 516 
Q 1375 441 1709 441 
Q 2250 441 2565 725 
Q 2881 1009 2881 1497 
Q 2881 1984 2565 2268 
Q 2250 2553 1709 2553 
Q 1456 2553 1204 2497 
Q 953 2441 691 2322 
L 691 4666 
z
" transform="scale(0.015625)"/>
      </defs>
      <use xlink:href="#DejaVuSans-35"/>
      <use xlink:href="#DejaVuSans-30" transform="translate(63.623047 0)"/>
      <use xlink:href="#DejaVuSans-30" transform="translate(127.246094 0)"/>
     </g>
    </g>
   </g>
   <g id="xtick_6">
    <g id="line2d_7">
     <path d="M 263.144782 291.096975 
L 260.920411 293.277457 
" style="fill: none; stroke: #000000; stroke-width: 0.8; stroke-linecap: square"/>
    </g>
    <g id="text_6">
     <!-- 600 -->
     <g transform="translate(245.455008 315.879578) scale(0.1 -0.1)">
      <defs>
       <path id="DejaVuSans-36" d="M 2113 2584 
Q 1688 2584 1439 2293 
Q 1191 2003 1191 1497 
Q 1191 994 1439 701 
Q 1688 409 2113 409 
Q 2538 409 2786 701 
Q 3034 994 3034 1497 
Q 3034 2003 2786 2293 
Q 2538 2584 2113 2584 
z
M 3366 4563 
L 3366 3988 
Q 3128 4100 2886 4159 
Q 2644 4219 2406 4219 
Q 1781 4219 1451 3797 
Q 1122 3375 1075 2522 
Q 1259 2794 1537 2939 
Q 1816 3084 2150 3084 
Q 2853 3084 3261 2657 
Q 3669 2231 3669 1497 
Q 3669 778 3244 343 
Q 2819 -91 2113 -91 
Q 1303 -91 875 529 
Q 447 1150 447 2328 
Q 447 3434 972 4092 
Q 1497 4750 2381 4750 
Q 2619 4750 2861 4703 
Q 3103 4656 3366 4563 
z
" transform="scale(0.015625)"/>
      </defs>
      <use xlink:href="#DejaVuSans-36"/>
      <use xlink:href="#DejaVuSans-30" transform="translate(63.623047 0)"/>
      <use xlink:href="#DejaVuSans-30" transform="translate(127.246094 0)"/>
     </g>
    </g>
   </g>
   <g id="xtick_7">
    <g id="line2d_8">
     <path d="M 286.659918 298.769428 
L 284.470892 300.984291 
" style="fill: none; stroke: #000000; stroke-width: 0.8; stroke-linecap: square"/>
    </g>
    <g id="text_7">
     <!-- 700 -->
     <g transform="translate(269.011479 323.721858) scale(0.1 -0.1)">
      <defs>
       <path id="DejaVuSans-37" d="M 525 4666 
L 3525 4666 
L 3525 4397 
L 1831 0 
L 1172 0 
L 2766 4134 
L 525 4134 
L 525 4666 
z
" transform="scale(0.015625)"/>
      </defs>
      <use xlink:href="#DejaVuSans-37"/>
      <use xlink:href="#DejaVuSans-30" transform="translate(63.623047 0)"/>
      <use xlink:href="#DejaVuSans-30" transform="translate(127.246094 0)"/>
     </g>
    </g>
   </g>
   <g id="text_8">
    <!-- Fertilizer -->
    <g transform="translate(178.742234 307.980807) rotate(-341.912962) scale(0.1 -0.1)">
     <defs>
      <path id="DejaVuSans-46" d="M 628 4666 
L 3309 4666 
L 3309 4134 
L 1259 4134 
L 1259 2759 
L 3109 2759 
L 3109 2228 
L 1259 2228 
L 1259 0 
L 628 0 
L 628 4666 
z
" transform="scale(0.015625)"/>
      <path id="DejaVuSans-65" d="M 3597 1894 
L 3597 1613 
L 953 1613 
Q 991 1019 1311 708 
Q 1631 397 2203 397 
Q 2534 397 2845 478 
Q 3156 559 3463 722 
L 3463 178 
Q 3153 47 2828 -22 
Q 2503 -91 2169 -91 
Q 1331 -91 842 396 
Q 353 884 353 1716 
Q 353 2575 817 3079 
Q 1281 3584 2069 3584 
Q 2775 3584 3186 3129 
Q 3597 2675 3597 1894 
z
M 3022 2063 
Q 3016 2534 2758 2815 
Q 2500 3097 2075 3097 
Q 1594 3097 1305 2825 
Q 1016 2553 972 2059 
L 3022 2063 
z
" transform="scale(0.015625)"/>
      <path id="DejaVuSans-72" d="M 2631 2963 
Q 2534 3019 2420 3045 
Q 2306 3072 2169 3072 
Q 1681 3072 1420 2755 
Q 1159 2438 1159 1844 
L 1159 0 
L 581 0 
L 581 3500 
L 1159 3500 
L 1159 2956 
Q 1341 3275 1631 3429 
Q 1922 3584 2338 3584 
Q 2397 3584 2469 3576 
Q 2541 3569 2628 3553 
L 2631 2963 
z
" transform="scale(0.015625)"/>
      <path id="DejaVuSans-74" d="M 1172 4494 
L 1172 3500 
L 2356 3500 
L 2356 3053 
L 1172 3053 
L 1172 1153 
Q 1172 725 1289 603 
Q 1406 481 1766 481 
L 2356 481 
L 2356 0 
L 1766 0 
Q 1100 0 847 248 
Q 594 497 594 1153 
L 594 3053 
L 172 3053 
L 172 3500 
L 594 3500 
L 594 4494 
L 1172 4494 
z
" transform="scale(0.015625)"/>
      <path id="DejaVuSans-69" d="M 603 3500 
L 1178 3500 
L 1178 0 
L 603 0 
L 603 3500 
z
M 603 4863 
L 1178 4863 
L 1178 4134 
L 603 4134 
L 603 4863 
z
" transform="scale(0.015625)"/>
      <path id="DejaVuSans-6c" d="M 603 4863 
L 1178 4863 
L 1178 0 
L 603 0 
L 603 4863 
z
" transform="scale(0.015625)"/>
      <path id="DejaVuSans-7a" d="M 353 3500 
L 3084 3500 
L 3084 2975 
L 922 459 
L 3084 459 
L 3084 0 
L 275 0 
L 275 525 
L 2438 3041 
L 353 3041 
L 353 3500 
z
" transform="scale(0.015625)"/>
     </defs>
     <use xlink:href="#DejaVuSans-46"/>
     <use xlink:href="#DejaVuSans-65" transform="translate(52.019531 0)"/>
     <use xlink:href="#DejaVuSans-72" transform="translate(113.542969 0)"/>
     <use xlink:href="#DejaVuSans-74" transform="translate(154.65625 0)"/>
     <use xlink:href="#DejaVuSans-69" transform="translate(193.865234 0)"/>
     <use xlink:href="#DejaVuSans-6c" transform="translate(221.648438 0)"/>
     <use xlink:href="#DejaVuSans-69" transform="translate(249.431641 0)"/>
     <use xlink:href="#DejaVuSans-7a" transform="translate(277.214844 0)"/>
     <use xlink:href="#DejaVuSans-65" transform="translate(329.705078 0)"/>
     <use xlink:href="#DejaVuSans-72" transform="translate(391.228516 0)"/>
    </g>
   </g>
  </g>
  <g id="axis3d_2">
   <g id="line2d_9">
    <path d="M 379.060834 218.015381 
L 296.340905 302.906378 
" style="fill: none; stroke: #000000; stroke-width: 0.8; stroke-linecap: square"/>
   </g>
   <g id="xtick_8">
    <g id="line2d_10">
     <path d="M 300.757232 296.608963 
L 304.682369 297.880904 
" style="fill: none; stroke: #000000; stroke-width: 0.8; stroke-linecap: square"/>
    </g>
    <g id="text_9">
     <!-- 10.0 -->
     <g transform="translate(303.811997 318.053986) scale(0.1 -0.1)">
      <defs>
       <path id="DejaVuSans-2e" d="M 684 794 
L 1344 794 
L 1344 0 
L 684 0 
L 684 794 
z
" transform="scale(0.015625)"/>
      </defs>
      <use xlink:href="#DejaVuSans-31"/>
      <use xlink:href="#DejaVuSans-30" transform="translate(63.623047 0)"/>
      <use xlink:href="#DejaVuSans-2e" transform="translate(127.246094 0)"/>
      <use xlink:href="#DejaVuSans-30" transform="translate(159.033203 0)"/>
     </g>
    </g>
   </g>
   <g id="xtick_9">
    <g id="line2d_11">
     <path d="M 310.421694 286.708613 
L 314.319645 287.955063 
" style="fill: none; stroke: #000000; stroke-width: 0.8; stroke-linecap: square"/>
    </g>
    <g id="text_10">
     <!-- 12.5 -->
     <g transform="translate(313.343141 308.004276) scale(0.1 -0.1)">
      <use xlink:href="#DejaVuSans-31"/>
      <use xlink:href="#DejaVuSans-32" transform="translate(63.623047 0)"/>
      <use xlink:href="#DejaVuSans-2e" transform="translate(127.246094 0)"/>
      <use xlink:href="#DejaVuSans-35" transform="translate(159.033203 0)"/>
     </g>
    </g>
   </g>
   <g id="xtick_10">
    <g id="line2d_12">
     <path d="M 319.89355 277.005572 
L 323.764613 278.227289 
" style="fill: none; stroke: #000000; stroke-width: 0.8; stroke-linecap: square"/>
    </g>
    <g id="text_11">
     <!-- 15.0 -->
     <g transform="translate(322.684148 298.155048) scale(0.1 -0.1)">
      <use xlink:href="#DejaVuSans-31"/>
      <use xlink:href="#DejaVuSans-35" transform="translate(63.623047 0)"/>
      <use xlink:href="#DejaVuSans-2e" transform="translate(127.246094 0)"/>
      <use xlink:href="#DejaVuSans-30" transform="translate(159.033203 0)"/>
     </g>
    </g>
   </g>
   <g id="xtick_11">
    <g id="line2d_13">
     <path d="M 329.1785 267.493998 
L 333.022972 268.691711 
" style="fill: none; stroke: #000000; stroke-width: 0.8; stroke-linecap: square"/>
    </g>
    <g id="text_12">
     <!-- 17.5 -->
     <g transform="translate(331.840652 288.500362) scale(0.1 -0.1)">
      <use xlink:href="#DejaVuSans-31"/>
      <use xlink:href="#DejaVuSans-37" transform="translate(63.623047 0)"/>
      <use xlink:href="#DejaVuSans-2e" transform="translate(127.246094 0)"/>
      <use xlink:href="#DejaVuSans-35" transform="translate(159.033203 0)"/>
     </g>
    </g>
   </g>
   <g id="xtick_12">
    <g id="line2d_14">
     <path d="M 338.282022 258.168279 
L 342.100199 259.342689 
" style="fill: none; stroke: #000000; stroke-width: 0.8; stroke-linecap: square"/>
    </g>
    <g id="text_13">
     <!-- 20.0 -->
     <g transform="translate(340.818066 279.034509) scale(0.1 -0.1)">
      <use xlink:href="#DejaVuSans-32"/>
      <use xlink:href="#DejaVuSans-30" transform="translate(63.623047 0)"/>
      <use xlink:href="#DejaVuSans-2e" transform="translate(127.246094 0)"/>
      <use xlink:href="#DejaVuSans-30" transform="translate(159.033203 0)"/>
     </g>
    </g>
   </g>
   <g id="xtick_13">
    <g id="line2d_15">
     <path d="M 347.209384 249.023022 
L 351.001557 250.174802 
" style="fill: none; stroke: #000000; stroke-width: 0.8; stroke-linecap: square"/>
    </g>
    <g id="text_14">
     <!-- 22.5 -->
     <g transform="translate(349.621592 269.752005) scale(0.1 -0.1)">
      <use xlink:href="#DejaVuSans-32"/>
      <use xlink:href="#DejaVuSans-32" transform="translate(63.623047 0)"/>
      <use xlink:href="#DejaVuSans-2e" transform="translate(127.246094 0)"/>
      <use xlink:href="#DejaVuSans-35" transform="translate(159.033203 0)"/>
     </g>
    </g>
   </g>
   <g id="xtick_14">
    <g id="line2d_16">
     <path d="M 355.965649 240.053037 
L 359.732109 241.182835 
" style="fill: none; stroke: #000000; stroke-width: 0.8; stroke-linecap: square"/>
    </g>
    <g id="text_15">
     <!-- 25.0 -->
     <g transform="translate(358.256235 260.647572) scale(0.1 -0.1)">
      <use xlink:href="#DejaVuSans-32"/>
      <use xlink:href="#DejaVuSans-35" transform="translate(63.623047 0)"/>
      <use xlink:href="#DejaVuSans-2e" transform="translate(127.246094 0)"/>
      <use xlink:href="#DejaVuSans-30" transform="translate(159.033203 0)"/>
     </g>
    </g>
   </g>
   <g id="xtick_15">
    <g id="line2d_17">
     <path d="M 364.555689 231.253334 
L 368.296724 232.361774 
" style="fill: none; stroke: #000000; stroke-width: 0.8; stroke-linecap: square"/>
    </g>
    <g id="text_16">
     <!-- 27.5 -->
     <g transform="translate(366.726808 251.716137) scale(0.1 -0.1)">
      <use xlink:href="#DejaVuSans-32"/>
      <use xlink:href="#DejaVuSans-37" transform="translate(63.623047 0)"/>
      <use xlink:href="#DejaVuSans-2e" transform="translate(127.246094 0)"/>
      <use xlink:href="#DejaVuSans-35" transform="translate(159.033203 0)"/>
     </g>
    </g>
   </g>
   <g id="xtick_16">
    <g id="line2d_18">
     <path d="M 372.984193 222.61911 
L 376.700089 223.706791 
" style="fill: none; stroke: #000000; stroke-width: 0.8; stroke-linecap: square"/>
    </g>
    <g id="text_17">
     <!-- 30.0 -->
     <g transform="translate(375.037944 242.952813) scale(0.1 -0.1)">
      <use xlink:href="#DejaVuSans-33"/>
      <use xlink:href="#DejaVuSans-30" transform="translate(63.623047 0)"/>
      <use xlink:href="#DejaVuSans-2e" transform="translate(127.246094 0)"/>
      <use xlink:href="#DejaVuSans-30" transform="translate(159.033203 0)"/>
     </g>
    </g>
   </g>
   <g id="text_18">
    <!-- Rainfall -->
    <g transform="translate(355.526937 301.807392) rotate(-45.742112) scale(0.1 -0.1)">
     <defs>
      <path id="DejaVuSans-52" d="M 2841 2188 
Q 3044 2119 3236 1894 
Q 3428 1669 3622 1275 
L 4263 0 
L 3584 0 
L 2988 1197 
Q 2756 1666 2539 1819 
Q 2322 1972 1947 1972 
L 1259 1972 
L 1259 0 
L 628 0 
L 628 4666 
L 2053 4666 
Q 2853 4666 3247 4331 
Q 3641 3997 3641 3322 
Q 3641 2881 3436 2590 
Q 3231 2300 2841 2188 
z
M 1259 4147 
L 1259 2491 
L 2053 2491 
Q 2509 2491 2742 2702 
Q 2975 2913 2975 3322 
Q 2975 3731 2742 3939 
Q 2509 4147 2053 4147 
L 1259 4147 
z
" transform="scale(0.015625)"/>
      <path id="DejaVuSans-61" d="M 2194 1759 
Q 1497 1759 1228 1600 
Q 959 1441 959 1056 
Q 959 750 1161 570 
Q 1363 391 1709 391 
Q 2188 391 2477 730 
Q 2766 1069 2766 1631 
L 2766 1759 
L 2194 1759 
z
M 3341 1997 
L 3341 0 
L 2766 0 
L 2766 531 
Q 2569 213 2275 61 
Q 1981 -91 1556 -91 
Q 1019 -91 701 211 
Q 384 513 384 1019 
Q 384 1609 779 1909 
Q 1175 2209 1959 2209 
L 2766 2209 
L 2766 2266 
Q 2766 2663 2505 2880 
Q 2244 3097 1772 3097 
Q 1472 3097 1187 3025 
Q 903 2953 641 2809 
L 641 3341 
Q 956 3463 1253 3523 
Q 1550 3584 1831 3584 
Q 2591 3584 2966 3190 
Q 3341 2797 3341 1997 
z
" transform="scale(0.015625)"/>
      <path id="DejaVuSans-6e" d="M 3513 2113 
L 3513 0 
L 2938 0 
L 2938 2094 
Q 2938 2591 2744 2837 
Q 2550 3084 2163 3084 
Q 1697 3084 1428 2787 
Q 1159 2491 1159 1978 
L 1159 0 
L 581 0 
L 581 3500 
L 1159 3500 
L 1159 2956 
Q 1366 3272 1645 3428 
Q 1925 3584 2291 3584 
Q 2894 3584 3203 3211 
Q 3513 2838 3513 2113 
z
" transform="scale(0.015625)"/>
      <path id="DejaVuSans-66" d="M 2375 4863 
L 2375 4384 
L 1825 4384 
Q 1516 4384 1395 4259 
Q 1275 4134 1275 3809 
L 1275 3500 
L 2222 3500 
L 2222 3053 
L 1275 3053 
L 1275 0 
L 697 0 
L 697 3053 
L 147 3053 
L 147 3500 
L 697 3500 
L 697 3744 
Q 697 4328 969 4595 
Q 1241 4863 1831 4863 
L 2375 4863 
z
" transform="scale(0.015625)"/>
     </defs>
     <use xlink:href="#DejaVuSans-52"/>
     <use xlink:href="#DejaVuSans-61" transform="translate(67.232422 0)"/>
     <use xlink:href="#DejaVuSans-69" transform="translate(128.511719 0)"/>
     <use xlink:href="#DejaVuSans-6e" transform="translate(156.294922 0)"/>
     <use xlink:href="#DejaVuSans-66" transform="translate(219.673828 0)"/>
     <use xlink:href="#DejaVuSans-61" transform="translate(254.878906 0)"/>
     <use xlink:href="#DejaVuSans-6c" transform="translate(316.158203 0)"/>
     <use xlink:href="#DejaVuSans-6c" transform="translate(343.941406 0)"/>
    </g>
   </g>
  </g>
  <g id="axis3d_3">
   <g id="line2d_19">
    <path d="M 379.060834 218.015381 
L 384.302814 103.543928 
" style="fill: none; stroke: #000000; stroke-width: 0.8; stroke-linecap: square"/>
   </g>
   <g id="xtick_17">
    <g id="line2d_20">
     <path d="M 378.144676 210.667563 
L 381.856552 211.738014 
" style="fill: none; stroke: #000000; stroke-width: 0.8; stroke-linecap: square"/>
    </g>
    <g id="text_19">
     <!-- 40 -->
     <g transform="translate(391.318179 216.030297) scale(0.1 -0.1)">
      <use xlink:href="#DejaVuSans-34"/>
      <use xlink:href="#DejaVuSans-30" transform="translate(63.623047 0)"/>
     </g>
    </g>
   </g>
   <g id="xtick_18">
    <g id="line2d_21">
     <path d="M 378.691558 198.596216 
L 382.421594 199.657254 
" style="fill: none; stroke: #000000; stroke-width: 0.8; stroke-linecap: square"/>
    </g>
    <g id="text_20">
     <!-- 45 -->
     <g transform="translate(391.955486 203.97865) scale(0.1 -0.1)">
      <use xlink:href="#DejaVuSans-34"/>
      <use xlink:href="#DejaVuSans-35" transform="translate(63.623047 0)"/>
     </g>
    </g>
   </g>
   <g id="xtick_19">
    <g id="line2d_22">
     <path d="M 379.243616 186.410607 
L 382.991991 187.462004 
" style="fill: none; stroke: #000000; stroke-width: 0.8; stroke-linecap: square"/>
    </g>
    <g id="text_21">
     <!-- 50 -->
     <g transform="translate(392.59881 191.813214) scale(0.1 -0.1)">
      <use xlink:href="#DejaVuSans-35"/>
      <use xlink:href="#DejaVuSans-30" transform="translate(63.623047 0)"/>
     </g>
    </g>
   </g>
   <g id="xtick_20">
    <g id="line2d_23">
     <path d="M 379.800924 174.109106 
L 383.56782 175.150631 
" style="fill: none; stroke: #000000; stroke-width: 0.8; stroke-linecap: square"/>
    </g>
    <g id="text_22">
     <!-- 55 -->
     <g transform="translate(393.248237 179.53237) scale(0.1 -0.1)">
      <use xlink:href="#DejaVuSans-35"/>
      <use xlink:href="#DejaVuSans-35" transform="translate(63.623047 0)"/>
     </g>
    </g>
   </g>
   <g id="xtick_21">
    <g id="line2d_24">
     <path d="M 380.363558 161.690052 
L 384.149158 162.721467 
" style="fill: none; stroke: #000000; stroke-width: 0.8; stroke-linecap: square"/>
    </g>
    <g id="text_23">
     <!-- 60 -->
     <g transform="translate(393.903855 167.134468) scale(0.1 -0.1)">
      <use xlink:href="#DejaVuSans-36"/>
      <use xlink:href="#DejaVuSans-30" transform="translate(63.623047 0)"/>
     </g>
    </g>
   </g>
   <g id="xtick_22">
    <g id="line2d_25">
     <path d="M 380.931595 149.151751 
L 384.736084 150.172813 
" style="fill: none; stroke: #000000; stroke-width: 0.8; stroke-linecap: square"/>
    </g>
    <g id="text_24">
     <!-- 65 -->
     <g transform="translate(394.565751 154.617826) scale(0.1 -0.1)">
      <use xlink:href="#DejaVuSans-36"/>
      <use xlink:href="#DejaVuSans-35" transform="translate(63.623047 0)"/>
     </g>
    </g>
   </g>
   <g id="xtick_23">
    <g id="line2d_26">
     <path d="M 381.505112 136.492478 
L 385.328681 137.502939 
" style="fill: none; stroke: #000000; stroke-width: 0.8; stroke-linecap: square"/>
    </g>
    <g id="text_25">
     <!-- 70 -->
     <g transform="translate(395.234017 141.980731) scale(0.1 -0.1)">
      <use xlink:href="#DejaVuSans-37"/>
      <use xlink:href="#DejaVuSans-30" transform="translate(63.623047 0)"/>
     </g>
    </g>
   </g>
   <g id="xtick_24">
    <g id="line2d_27">
     <path d="M 382.084189 123.710474 
L 385.92703 124.71008 
" style="fill: none; stroke: #000000; stroke-width: 0.8; stroke-linecap: square"/>
    </g>
    <g id="text_26">
     <!-- 75 -->
     <g transform="translate(395.908746 129.221435) scale(0.1 -0.1)">
      <use xlink:href="#DejaVuSans-37"/>
      <use xlink:href="#DejaVuSans-35" transform="translate(63.623047 0)"/>
     </g>
    </g>
   </g>
   <g id="xtick_25">
    <g id="line2d_28">
     <path d="M 382.668907 110.803945 
L 386.531215 111.792435 
" style="fill: none; stroke: #000000; stroke-width: 0.8; stroke-linecap: square"/>
    </g>
    <g id="text_27">
     <!-- 80 -->
     <g transform="translate(396.59003 116.338156) scale(0.1 -0.1)">
      <defs>
       <path id="DejaVuSans-38" d="M 2034 2216 
Q 1584 2216 1326 1975 
Q 1069 1734 1069 1313 
Q 1069 891 1326 650 
Q 1584 409 2034 409 
Q 2484 409 2743 651 
Q 3003 894 3003 1313 
Q 3003 1734 2745 1975 
Q 2488 2216 2034 2216 
z
M 1403 2484 
Q 997 2584 770 2862 
Q 544 3141 544 3541 
Q 544 4100 942 4425 
Q 1341 4750 2034 4750 
Q 2731 4750 3128 4425 
Q 3525 4100 3525 3541 
Q 3525 3141 3298 2862 
Q 3072 2584 2669 2484 
Q 3125 2378 3379 2068 
Q 3634 1759 3634 1313 
Q 3634 634 3220 271 
Q 2806 -91 2034 -91 
Q 1263 -91 848 271 
Q 434 634 434 1313 
Q 434 1759 690 2068 
Q 947 2378 1403 2484 
z
M 1172 3481 
Q 1172 3119 1398 2916 
Q 1625 2713 2034 2713 
Q 2441 2713 2670 2916 
Q 2900 3119 2900 3481 
Q 2900 3844 2670 4047 
Q 2441 4250 2034 4250 
Q 1625 4250 1398 4047 
Q 1172 3844 1172 3481 
z
" transform="scale(0.015625)"/>
      </defs>
      <use xlink:href="#DejaVuSans-38"/>
      <use xlink:href="#DejaVuSans-30" transform="translate(63.623047 0)"/>
     </g>
    </g>
   </g>
   <g id="text_28">
    <!-- Yield -->
    <g transform="translate(424.222976 168.638141) rotate(-87.378092) scale(0.1 -0.1)">
     <defs>
      <path id="DejaVuSans-59" d="M -13 4666 
L 666 4666 
L 1959 2747 
L 3244 4666 
L 3922 4666 
L 2272 2222 
L 2272 0 
L 1638 0 
L 1638 2222 
L -13 4666 
z
" transform="scale(0.015625)"/>
      <path id="DejaVuSans-64" d="M 2906 2969 
L 2906 4863 
L 3481 4863 
L 3481 0 
L 2906 0 
L 2906 525 
Q 2725 213 2448 61 
Q 2172 -91 1784 -91 
Q 1150 -91 751 415 
Q 353 922 353 1747 
Q 353 2572 751 3078 
Q 1150 3584 1784 3584 
Q 2172 3584 2448 3432 
Q 2725 3281 2906 2969 
z
M 947 1747 
Q 947 1113 1208 752 
Q 1469 391 1925 391 
Q 2381 391 2643 752 
Q 2906 1113 2906 1747 
Q 2906 2381 2643 2742 
Q 2381 3103 1925 3103 
Q 1469 3103 1208 2742 
Q 947 2381 947 1747 
z
" transform="scale(0.015625)"/>
     </defs>
     <use xlink:href="#DejaVuSans-59"/>
     <use xlink:href="#DejaVuSans-69" transform="translate(57.458984 0)"/>
     <use xlink:href="#DejaVuSans-65" transform="translate(85.242188 0)"/>
     <use xlink:href="#DejaVuSans-6c" transform="translate(146.765625 0)"/>
     <use xlink:href="#DejaVuSans-64" transform="translate(174.548828 0)"/>
    </g>
   </g>
  </g>
  <g id="axes_1">
   <g id="Path3DCollection_1">
    <defs>
     <path id="C0_0_01dfefbc2e" d="M 0 2.236068 
C 0.593012 2.236068 1.161816 2.000462 1.581139 1.581139 
C 2.000462 1.161816 2.236068 0.593012 2.236068 -0 
C 2.236068 -0.593012 2.000462 -1.161816 1.581139 -1.581139 
C 1.161816 -2.000462 0.593012 -2.236068 0 -2.236068 
C -0.593012 -2.236068 -1.161816 -2.000462 -1.581139 -1.581139 
C -2.000462 -1.161816 -2.236068 -0.593012 -2.236068 0 
C -2.236068 0.593012 -2.000462 1.161816 -1.581139 1.581139 
C -1.161816 2.000462 -0.593012 2.236068 0 2.236068 
z
"/>
    </defs>
    <g clip-path="url(#p0f7e9626cc)">
     <use xlink:href="#C0_0_01dfefbc2e" x="299.859911" y="120.745308" style="fill: #008000; stroke: #008000"/>
    </g>
    <g clip-path="url(#p0f7e9626cc)">
     <use xlink:href="#C0_0_01dfefbc2e" x="218.19106" y="190.062612" style="fill: #008000; stroke: #008000"/>
    </g>
    <g clip-path="url(#p0f7e9626cc)">
     <use xlink:href="#C0_0_01dfefbc2e" x="156.036955" y="242.661821" style="fill: #008000; stroke: #008000"/>
    </g>
    <g clip-path="url(#p0f7e9626cc)">
     <use xlink:href="#C0_0_01dfefbc2e" x="368.695815" y="113.0557" style="fill: #008000; stroke: #008000"/>
    </g>
    <g clip-path="url(#p0f7e9626cc)">
     <use xlink:href="#C0_0_01dfefbc2e" x="284.797186" y="171.824199" style="fill: #008000; stroke: #008000"/>
    </g>
    <g clip-path="url(#p0f7e9626cc)">
     <use xlink:href="#C0_0_01dfefbc2e" x="307.896521" y="178.394501" style="fill: #008000; stroke: #008000"/>
    </g>
    <g clip-path="url(#p0f7e9626cc)">
     <use xlink:href="#C0_0_01dfefbc2e" x="199.294036" y="231.716617" style="fill: #008000; stroke: #008000"/>
    </g>
   </g>
   <g id="Poly3DCollection_1">
    <path d="M 227.769873 145.562493 
L 231.952527 144.898206 
L 239.455081 134.778424 
L 235.280866 135.460174 
z
" clip-path="url(#p0f7e9626cc)" style="fill-opacity: 0.4"/>
    <path d="M 231.952527 144.898206 
L 236.152977 144.231092 
L 243.646952 134.093791 
L 239.455081 134.778424 
z
" clip-path="url(#p0f7e9626cc)" style="fill-opacity: 0.4"/>
    <path d="M 236.152977 144.231092 
L 240.371336 143.561134 
L 247.856591 133.406256 
L 243.646952 134.093791 
z
" clip-path="url(#p0f7e9626cc)" style="fill-opacity: 0.4"/>
    <path d="M 220.170803 155.783275 
L 224.361808 155.136908 
L 231.952527 144.898206 
L 227.769873 145.562493 
z
" clip-path="url(#p0f7e9626cc)" style="fill-opacity: 0.4"/>
    <path d="M 240.371336 143.561134 
L 244.607718 142.888314 
L 252.084112 132.715801 
L 247.856591 133.406256 
z
" clip-path="url(#p0f7e9626cc)" style="fill-opacity: 0.4"/>
    <path d="M 224.361808 155.136908 
L 228.570749 154.487775 
L 236.152977 144.231092 
L 231.952527 144.898206 
z
" clip-path="url(#p0f7e9626cc)" style="fill-opacity: 0.4"/>
    <path d="M 244.607718 142.888314 
L 248.862239 142.212613 
L 256.329627 132.022406 
L 252.084112 132.715801 
z
" clip-path="url(#p0f7e9626cc)" style="fill-opacity: 0.4"/>
    <path d="M 228.570749 154.487775 
L 232.797741 153.835858 
L 240.371336 143.561134 
L 236.152977 144.231092 
z
" clip-path="url(#p0f7e9626cc)" style="fill-opacity: 0.4"/>
    <path d="M 248.862239 142.212613 
L 253.135017 141.534012 
L 260.593254 131.326054 
L 256.329627 132.022406 
z
" clip-path="url(#p0f7e9626cc)" style="fill-opacity: 0.4"/>
    <path d="M 212.482099 166.124617 
L 216.681361 165.496641 
L 224.361808 155.136908 
L 220.170803 155.783275 
z
" clip-path="url(#p0f7e9626cc)" style="fill-opacity: 0.4"/>
    <path d="M 232.797741 153.835858 
L 237.042899 153.181139 
L 244.607718 142.888314 
L 240.371336 143.561134 
z
" clip-path="url(#p0f7e9626cc)" style="fill-opacity: 0.4"/>
    <path d="M 253.135017 141.534012 
L 257.426168 140.852494 
L 264.875107 130.626725 
L 260.593254 131.326054 
z
" clip-path="url(#p0f7e9626cc)" style="fill-opacity: 0.4"/>
    <path d="M 216.681361 165.496641 
L 220.8987 164.865961 
L 228.570749 154.487775 
L 224.361808 155.136908 
z
" clip-path="url(#p0f7e9626cc)" style="fill-opacity: 0.4"/>
    <path d="M 237.042899 153.181139 
L 241.306343 152.5236 
L 248.862239 142.212613 
L 244.607718 142.888314 
z
" clip-path="url(#p0f7e9626cc)" style="fill-opacity: 0.4"/>
    <path d="M 257.426168 140.852494 
L 261.735813 140.168038 
L 269.175304 129.9244 
L 264.875107 130.626725 
z
" clip-path="url(#p0f7e9626cc)" style="fill-opacity: 0.4"/>
    <path d="M 220.8987 164.865961 
L 225.134233 164.232561 
L 232.797741 153.835858 
L 228.570749 154.487775 
z
" clip-path="url(#p0f7e9626cc)" style="fill-opacity: 0.4"/>
    <path d="M 241.306343 152.5236 
L 245.58819 151.863223 
L 253.135017 141.534012 
L 248.862239 142.212613 
z
" clip-path="url(#p0f7e9626cc)" style="fill-opacity: 0.4"/>
    <path d="M 261.735813 140.168038 
L 266.064069 139.480626 
L 273.493963 129.219059 
L 269.175304 129.9244 
z
" clip-path="url(#p0f7e9626cc)" style="fill-opacity: 0.4"/>
    <path d="M 204.702165 176.588663 
L 208.909584 175.979562 
L 216.681361 165.496641 
L 212.482099 166.124617 
z
" clip-path="url(#p0f7e9626cc)" style="fill-opacity: 0.4"/>
    <path d="M 225.134233 164.232561 
L 229.388079 163.596423 
L 237.042899 153.181139 
L 232.797741 153.835858 
z
" clip-path="url(#p0f7e9626cc)" style="fill-opacity: 0.4"/>
    <path d="M 245.58819 151.863223 
L 249.888559 151.199989 
L 257.426168 140.852494 
L 253.135017 141.534012 
z
" clip-path="url(#p0f7e9626cc)" style="fill-opacity: 0.4"/>
    <path d="M 266.064069 139.480626 
L 270.411059 138.790239 
L 277.831203 128.510684 
L 273.493963 129.219059 
z
" clip-path="url(#p0f7e9626cc)" style="fill-opacity: 0.4"/>
    <path d="M 208.909584 175.979562 
L 213.135224 175.367823 
L 220.8987 164.865961 
L 216.681361 165.496641 
z
" clip-path="url(#p0f7e9626cc)" style="fill-opacity: 0.4"/>
    <path d="M 229.388079 163.596423 
L 233.660356 162.957528 
L 241.306343 152.5236 
L 237.042899 153.181139 
z
" clip-path="url(#p0f7e9626cc)" style="fill-opacity: 0.4"/>
    <path d="M 249.888559 151.199989 
L 254.207571 150.53388 
L 261.735813 140.168038 
L 257.426168 140.852494 
z
" clip-path="url(#p0f7e9626cc)" style="fill-opacity: 0.4"/>
    <path d="M 270.411059 138.790239 
L 274.776905 138.096858 
L 282.187144 127.799254 
L 277.831203 128.510684 
z
" clip-path="url(#p0f7e9626cc)" style="fill-opacity: 0.4"/>
    <path d="M 213.135224 175.367823 
L 217.379203 174.75343 
L 225.134233 164.232561 
L 220.8987 164.865961 
z
" clip-path="url(#p0f7e9626cc)" style="fill-opacity: 0.4"/>
    <path d="M 233.660356 162.957528 
L 237.951184 162.315858 
L 245.58819 151.863223 
L 241.306343 152.5236 
z
" clip-path="url(#p0f7e9626cc)" style="fill-opacity: 0.4"/>
    <path d="M 254.207571 150.53388 
L 258.545347 149.864876 
L 266.064069 139.480626 
L 261.735813 140.168038 
z
" clip-path="url(#p0f7e9626cc)" style="fill-opacity: 0.4"/>
    <path d="M 274.776905 138.096858 
L 279.161728 137.400462 
L 286.561908 127.084751 
L 282.187144 127.799254 
z
" clip-path="url(#p0f7e9626cc)" style="fill-opacity: 0.4"/>
    <path d="M 196.829366 187.177612 
L 201.044839 186.587883 
L 208.909584 175.979562 
L 204.702165 176.588663 
z
" clip-path="url(#p0f7e9626cc)" style="fill-opacity: 0.4"/>
    <path d="M 217.379203 174.75343 
L 221.64164 174.136364 
L 229.388079 163.596423 
L 225.134233 164.232561 
z
" clip-path="url(#p0f7e9626cc)" style="fill-opacity: 0.4"/>
    <path d="M 237.951184 162.315858 
L 242.260685 161.671397 
L 249.888559 151.199989 
L 245.58819 151.863223 
z
" clip-path="url(#p0f7e9626cc)" style="fill-opacity: 0.4"/>
    <path d="M 258.545347 149.864876 
L 262.902011 149.19296 
L 270.411059 138.790239 
L 266.064069 139.480626 
z
" clip-path="url(#p0f7e9626cc)" style="fill-opacity: 0.4"/>
    <path d="M 279.161728 137.400462 
L 283.565653 136.701033 
L 290.955616 126.367153 
L 286.561908 127.084751 
z
" clip-path="url(#p0f7e9626cc)" style="fill-opacity: 0.4"/>
    <path d="M 201.044839 186.587883 
L 205.278677 185.995585 
L 213.135224 175.367823 
L 208.909584 175.979562 
z
" clip-path="url(#p0f7e9626cc)" style="fill-opacity: 0.4"/>
    <path d="M 221.64164 174.136364 
L 225.922657 173.516608 
L 233.660356 162.957528 
L 229.388079 163.596423 
z
" clip-path="url(#p0f7e9626cc)" style="fill-opacity: 0.4"/>
    <path d="M 242.260685 161.671397 
L 246.588981 161.024124 
L 254.207571 150.53388 
L 249.888559 151.199989 
z
" clip-path="url(#p0f7e9626cc)" style="fill-opacity: 0.4"/>
    <path d="M 262.902011 149.19296 
L 267.277685 148.518112 
L 274.776905 138.096858 
L 270.411059 138.790239 
z
" clip-path="url(#p0f7e9626cc)" style="fill-opacity: 0.4"/>
    <path d="M 283.565653 136.701033 
L 287.988806 135.99855 
L 295.368393 125.64644 
L 290.955616 126.367153 
z
" clip-path="url(#p0f7e9626cc)" style="fill-opacity: 0.4"/>
    <path d="M 205.278677 185.995585 
L 209.530999 185.4007 
L 217.379203 174.75343 
L 213.135224 175.367823 
z
" clip-path="url(#p0f7e9626cc)" style="fill-opacity: 0.4"/>
    <path d="M 225.922657 173.516608 
L 230.222375 172.894145 
L 237.951184 162.315858 
L 233.660356 162.957528 
z
" clip-path="url(#p0f7e9626cc)" style="fill-opacity: 0.4"/>
    <path d="M 246.588981 161.024124 
L 250.936194 160.374023 
L 258.545347 149.864876 
L 254.207571 150.53388 
z
" clip-path="url(#p0f7e9626cc)" style="fill-opacity: 0.4"/>
    <path d="M 267.277685 148.518112 
L 271.672494 147.840313 
L 279.161728 137.400462 
L 274.776905 138.096858 
z
" clip-path="url(#p0f7e9626cc)" style="fill-opacity: 0.4"/>
    <path d="M 188.862032 197.893712 
L 193.085449 197.323866 
L 201.044839 186.587883 
L 196.829366 187.177612 
z
" clip-path="url(#p0f7e9626cc)" style="fill-opacity: 0.4"/>
    <path d="M 287.988806 135.99855 
L 292.431312 135.292993 
L 299.800362 124.922594 
L 295.368393 125.64644 
z
" clip-path="url(#p0f7e9626cc)" style="fill-opacity: 0.4"/>
    <path d="M 209.530999 185.4007 
L 213.801928 184.803213 
L 221.64164 174.136364 
L 217.379203 174.75343 
z
" clip-path="url(#p0f7e9626cc)" style="fill-opacity: 0.4"/>
    <path d="M 230.222375 172.894145 
L 234.540916 172.268957 
L 242.260685 161.671397 
L 237.951184 162.315858 
z
" clip-path="url(#p0f7e9626cc)" style="fill-opacity: 0.4"/>
    <path d="M 250.936194 160.374023 
L 255.30245 159.721074 
L 262.902011 149.19296 
L 258.545347 149.864876 
z
" clip-path="url(#p0f7e9626cc)" style="fill-opacity: 0.4"/>
    <path d="M 271.672494 147.840313 
L 276.086565 147.159543 
L 283.565653 136.701033 
L 279.161728 137.400462 
z
" clip-path="url(#p0f7e9626cc)" style="fill-opacity: 0.4"/>
    <path d="M 193.085449 197.323866 
L 197.327375 196.751523 
L 205.278677 185.995585 
L 201.044839 186.587883 
z
" clip-path="url(#p0f7e9626cc)" style="fill-opacity: 0.4"/>
    <path d="M 292.431312 135.292993 
L 296.893299 134.584342 
L 304.251649 124.195592 
L 299.800362 124.922594 
z
" clip-path="url(#p0f7e9626cc)" style="fill-opacity: 0.4"/>
    <path d="M 213.801928 184.803213 
L 218.091586 184.203106 
L 225.922657 173.516608 
L 221.64164 174.136364 
z
" clip-path="url(#p0f7e9626cc)" style="fill-opacity: 0.4"/>
    <path d="M 234.540916 172.268957 
L 238.878406 171.641026 
L 246.588981 161.024124 
L 242.260685 161.671397 
z
" clip-path="url(#p0f7e9626cc)" style="fill-opacity: 0.4"/>
    <path d="M 255.30245 159.721074 
L 259.687873 159.065259 
L 267.277685 148.518112 
L 262.902011 149.19296 
z
" clip-path="url(#p0f7e9626cc)" style="fill-opacity: 0.4"/>
    <path d="M 276.086565 147.159543 
L 280.520023 146.475783 
L 287.988806 135.99855 
L 283.565653 136.701033 
z
" clip-path="url(#p0f7e9626cc)" style="fill-opacity: 0.4"/>
    <path d="M 197.327375 196.751523 
L 201.587934 196.176666 
L 209.530999 185.4007 
L 205.278677 185.995585 
z
" clip-path="url(#p0f7e9626cc)" style="fill-opacity: 0.4"/>
    <path d="M 296.893299 134.584342 
L 301.374895 133.872577 
L 308.722381 123.465414 
L 304.251649 124.195592 
z
" clip-path="url(#p0f7e9626cc)" style="fill-opacity: 0.4"/>
    <path d="M 218.091586 184.203106 
L 222.400095 183.600362 
L 230.222375 172.894145 
L 225.922657 173.516608 
z
" clip-path="url(#p0f7e9626cc)" style="fill-opacity: 0.4"/>
    <path d="M 238.878406 171.641026 
L 243.234968 171.010333 
L 250.936194 160.374023 
L 246.588981 161.024124 
z
" clip-path="url(#p0f7e9626cc)" style="fill-opacity: 0.4"/>
    <path d="M 259.687873 159.065259 
L 264.09259 158.406558 
L 271.672494 147.840313 
L 267.277685 148.518112 
z
" clip-path="url(#p0f7e9626cc)" style="fill-opacity: 0.4"/>
    <path d="M 180.798449 208.739268 
L 185.029693 208.189831 
L 193.085449 197.323866 
L 188.862032 197.893712 
z
" clip-path="url(#p0f7e9626cc)" style="fill-opacity: 0.4"/>
    <path d="M 280.520023 146.475783 
L 284.972998 145.789014 
L 292.431312 135.292993 
L 287.988806 135.99855 
z
" clip-path="url(#p0f7e9626cc)" style="fill-opacity: 0.4"/>
    <path d="M 201.587934 196.176666 
L 205.867249 195.599278 
L 213.801928 184.803213 
L 209.530999 185.4007 
z
" clip-path="url(#p0f7e9626cc)" style="fill-opacity: 0.4"/>
    <path d="M 301.374895 133.872577 
L 305.87623 133.157677 
L 313.212685 122.73204 
L 308.722381 123.465414 
z
" clip-path="url(#p0f7e9626cc)" style="fill-opacity: 0.4"/>
    <path d="M 222.400095 183.600362 
L 226.727581 182.994962 
L 234.540916 172.268957 
L 230.222375 172.894145 
z
" clip-path="url(#p0f7e9626cc)" style="fill-opacity: 0.4"/>
    <path d="M 243.234968 171.010333 
L 247.610729 170.376862 
L 255.30245 159.721074 
L 250.936194 160.374023 
z
" clip-path="url(#p0f7e9626cc)" style="fill-opacity: 0.4"/>
    <path d="M 264.09259 158.406558 
L 268.516728 157.744953 
L 276.086565 147.159543 
L 271.672494 147.840313 
z
" clip-path="url(#p0f7e9626cc)" style="fill-opacity: 0.4"/>
    <path d="M 185.029693 208.189831 
L 189.279595 207.637971 
L 197.327375 196.751523 
L 193.085449 197.323866 
z
" clip-path="url(#p0f7e9626cc)" style="fill-opacity: 0.4"/>
    <path d="M 284.972998 145.789014 
L 289.445618 145.099214 
L 296.893299 134.584342 
L 292.431312 135.292993 
z
" clip-path="url(#p0f7e9626cc)" style="fill-opacity: 0.4"/>
    <path d="M 205.867249 195.599278 
L 210.165442 195.019343 
L 218.091586 184.203106 
L 213.801928 184.803213 
z
" clip-path="url(#p0f7e9626cc)" style="fill-opacity: 0.4"/>
    <path d="M 305.87623 133.157677 
L 310.397434 132.439622 
L 317.72269 121.995448 
L 313.212685 122.73204 
z
" clip-path="url(#p0f7e9626cc)" style="fill-opacity: 0.4"/>
    <path d="M 226.727581 182.994962 
L 231.07417 182.386891 
L 238.878406 171.641026 
L 234.540916 172.268957 
z
" clip-path="url(#p0f7e9626cc)" style="fill-opacity: 0.4"/>
    <path d="M 247.610729 170.376862 
L 252.005816 169.740592 
L 259.687873 159.065259 
L 255.30245 159.721074 
z
" clip-path="url(#p0f7e9626cc)" style="fill-opacity: 0.4"/>
    <path d="M 268.516728 157.744953 
L 272.960418 157.080424 
L 280.520023 146.475783 
L 276.086565 147.159543 
z
" clip-path="url(#p0f7e9626cc)" style="fill-opacity: 0.4"/>
    <path d="M 189.279595 207.637971 
L 193.548277 207.083673 
L 201.587934 196.176666 
L 197.327375 196.751523 
z
" clip-path="url(#p0f7e9626cc)" style="fill-opacity: 0.4"/>
    <path d="M 289.445618 145.099214 
L 293.938013 144.406364 
L 301.374895 133.872577 
L 296.893299 134.584342 
z
" clip-path="url(#p0f7e9626cc)" style="fill-opacity: 0.4"/>
    <path d="M 210.165442 195.019343 
L 214.48264 194.436844 
L 222.400095 183.600362 
L 218.091586 184.203106 
z
" clip-path="url(#p0f7e9626cc)" style="fill-opacity: 0.4"/>
    <path d="M 310.397434 132.439622 
L 314.93864 131.718389 
L 322.252526 121.255617 
L 317.72269 121.995448 
z
" clip-path="url(#p0f7e9626cc)" style="fill-opacity: 0.4"/>
    <path d="M 231.07417 182.386891 
L 235.439988 181.776129 
L 243.234968 171.010333 
L 238.878406 171.641026 
z
" clip-path="url(#p0f7e9626cc)" style="fill-opacity: 0.4"/>
    <path d="M 252.005816 169.740592 
L 256.420357 169.101506 
L 264.09259 158.406558 
L 259.687873 159.065259 
z
" clip-path="url(#p0f7e9626cc)" style="fill-opacity: 0.4"/>
    <path d="M 172.636861 219.71664 
L 176.875812 219.188152 
L 185.029693 208.189831 
L 180.798449 208.739268 
z
" clip-path="url(#p0f7e9626cc)" style="fill-opacity: 0.4"/>
    <path d="M 272.960418 157.080424 
L 277.423787 156.412952 
L 284.972998 145.789014 
L 280.520023 146.475783 
z
" clip-path="url(#p0f7e9626cc)" style="fill-opacity: 0.4"/>
    <path d="M 193.548277 207.083673 
L 197.835865 206.52692 
L 205.867249 195.599278 
L 201.587934 196.176666 
z
" clip-path="url(#p0f7e9626cc)" style="fill-opacity: 0.4"/>
    <path d="M 293.938013 144.406364 
L 298.450315 143.710445 
L 305.87623 133.157677 
L 301.374895 133.872577 
z
" clip-path="url(#p0f7e9626cc)" style="fill-opacity: 0.4"/>
    <path d="M 214.48264 194.436844 
L 218.818969 193.851763 
L 226.727581 182.994962 
L 222.400095 183.600362 
z
" clip-path="url(#p0f7e9626cc)" style="fill-opacity: 0.4"/>
    <path d="M 314.93864 131.718389 
L 319.49998 130.99396 
L 326.802324 120.512526 
L 322.252526 121.255617 
z
" clip-path="url(#p0f7e9626cc)" style="fill-opacity: 0.4"/>
    <path d="M 235.439988 181.776129 
L 239.825162 181.162659 
L 247.610729 170.376862 
L 243.234968 171.010333 
z
" clip-path="url(#p0f7e9626cc)" style="fill-opacity: 0.4"/>
    <path d="M 256.420357 169.101506 
L 260.854482 168.459585 
L 268.516728 157.744953 
L 264.09259 158.406558 
z
" clip-path="url(#p0f7e9626cc)" style="fill-opacity: 0.4"/>
    <path d="M 176.875812 219.188152 
L 181.133568 218.657319 
L 189.279595 207.637971 
L 185.029693 208.189831 
z
" clip-path="url(#p0f7e9626cc)" style="fill-opacity: 0.4"/>
    <path d="M 277.423787 156.412952 
L 281.906968 155.742518 
L 289.445618 145.099214 
L 284.972998 145.789014 
z
" clip-path="url(#p0f7e9626cc)" style="fill-opacity: 0.4"/>
    <path d="M 197.835865 206.52692 
L 202.142484 205.967695 
L 210.165442 195.019343 
L 205.867249 195.599278 
z
" clip-path="url(#p0f7e9626cc)" style="fill-opacity: 0.4"/>
    <path d="M 298.450315 143.710445 
L 302.982657 143.011434 
L 310.397434 132.439622 
L 305.87623 133.157677 
z
" clip-path="url(#p0f7e9626cc)" style="fill-opacity: 0.4"/>
    <path d="M 218.818969 193.851763 
L 223.174556 193.264084 
L 231.07417 182.386891 
L 226.727581 182.994962 
z
" clip-path="url(#p0f7e9626cc)" style="fill-opacity: 0.4"/>
    <path d="M 319.49998 130.99396 
L 324.081588 130.266311 
L 331.372216 119.766153 
L 326.802324 120.512526 
z
" clip-path="url(#p0f7e9626cc)" style="fill-opacity: 0.4"/>
    <path d="M 239.825162 181.162659 
L 244.229823 180.546464 
L 252.005816 169.740592 
L 247.610729 170.376862 
z
" clip-path="url(#p0f7e9626cc)" style="fill-opacity: 0.4"/>
    <path d="M 260.854482 168.459585 
L 265.308322 167.81481 
L 272.960418 157.080424 
L 268.516728 157.744953 
z
" clip-path="url(#p0f7e9626cc)" style="fill-opacity: 0.4"/>
    <path d="M 181.133568 218.657319 
L 185.410255 218.124127 
L 193.548277 207.083673 
L 189.279595 207.637971 
z
" clip-path="url(#p0f7e9626cc)" style="fill-opacity: 0.4"/>
    <path d="M 281.906968 155.742518 
L 286.410092 155.069101 
L 293.938013 144.406364 
L 289.445618 145.099214 
z
" clip-path="url(#p0f7e9626cc)" style="fill-opacity: 0.4"/>
    <path d="M 202.142484 205.967695 
L 206.468262 205.405983 
L 214.48264 194.436844 
L 210.165442 195.019343 
z
" clip-path="url(#p0f7e9626cc)" style="fill-opacity: 0.4"/>
    <path d="M 302.982657 143.011434 
L 307.535172 142.309313 
L 314.93864 131.718389 
L 310.397434 132.439622 
z
" clip-path="url(#p0f7e9626cc)" style="fill-opacity: 0.4"/>
    <path d="M 223.174556 193.264084 
L 227.549531 192.673789 
L 235.439988 181.776129 
L 231.07417 182.386891 
z
" clip-path="url(#p0f7e9626cc)" style="fill-opacity: 0.4"/>
    <path d="M 324.081588 130.266311 
L 328.6836 129.535421 
L 335.962336 119.016477 
L 331.372216 119.766153 
z
" clip-path="url(#p0f7e9626cc)" style="fill-opacity: 0.4"/>
    <path d="M 244.229823 180.546464 
L 248.654099 179.927524 
L 256.420357 169.101506 
L 252.005816 169.740592 
z
" clip-path="url(#p0f7e9626cc)" style="fill-opacity: 0.4"/>
    <path d="M 164.375472 230.828245 
L 168.622002 230.321262 
L 176.875812 219.188152 
L 172.636861 219.71664 
z
" clip-path="url(#p0f7e9626cc)" style="fill-opacity: 0.4"/>
    <path d="M 265.308322 167.81481 
L 269.782007 167.167162 
L 277.423787 156.412952 
L 272.960418 157.080424 
z
" clip-path="url(#p0f7e9626cc)" style="fill-opacity: 0.4"/>
    <path d="M 185.410255 218.124127 
L 189.705999 217.588558 
L 197.835865 206.52692 
L 193.548277 207.083673 
z
" clip-path="url(#p0f7e9626cc)" style="fill-opacity: 0.4"/>
    <path d="M 286.410092 155.069101 
L 290.933293 154.392682 
L 298.450315 143.710445 
L 293.938013 144.406364 
z
" clip-path="url(#p0f7e9626cc)" style="fill-opacity: 0.4"/>
    <path d="M 206.468262 205.405983 
L 210.813326 204.841766 
L 218.818969 193.851763 
L 214.48264 194.436844 
z
" clip-path="url(#p0f7e9626cc)" style="fill-opacity: 0.4"/>
    <path d="M 307.535172 142.309313 
L 312.107995 141.604059 
L 319.49998 130.99396 
L 314.93864 131.718389 
z
" clip-path="url(#p0f7e9626cc)" style="fill-opacity: 0.4"/>
    <path d="M 227.549531 192.673789 
L 231.944021 192.080861 
L 239.825162 181.162659 
L 235.439988 181.776129 
z
" clip-path="url(#p0f7e9626cc)" style="fill-opacity: 0.4"/>
    <path d="M 328.6836 129.535421 
L 333.306152 128.80127 
L 340.572819 118.263474 
L 335.962336 119.016477 
z
" clip-path="url(#p0f7e9626cc)" style="fill-opacity: 0.4"/>
    <path d="M 248.654099 179.927524 
L 253.098124 179.305821 
L 260.854482 168.459585 
L 256.420357 169.101506 
z
" clip-path="url(#p0f7e9626cc)" style="fill-opacity: 0.4"/>
    <path d="M 168.622002 230.321262 
L 172.887486 229.812016 
L 181.133568 218.657319 
L 176.875812 219.188152 
z
" clip-path="url(#p0f7e9626cc)" style="fill-opacity: 0.4"/>
    <path d="M 269.782007 167.167162 
L 274.275672 166.516622 
L 281.906968 155.742518 
L 277.423787 156.412952 
z
" clip-path="url(#p0f7e9626cc)" style="fill-opacity: 0.4"/>
    <path d="M 189.705999 217.588558 
L 194.020928 217.050598 
L 202.142484 205.967695 
L 197.835865 206.52692 
z
" clip-path="url(#p0f7e9626cc)" style="fill-opacity: 0.4"/>
    <path d="M 290.933293 154.392682 
L 295.476705 153.71324 
L 302.982657 143.011434 
L 298.450315 143.710445 
z
" clip-path="url(#p0f7e9626cc)" style="fill-opacity: 0.4"/>
    <path d="M 210.813326 204.841766 
L 215.177806 204.275028 
L 223.174556 193.264084 
L 218.818969 193.851763 
z
" clip-path="url(#p0f7e9626cc)" style="fill-opacity: 0.4"/>
    <path d="M 312.107995 141.604059 
L 316.701263 140.895652 
L 324.081588 130.266311 
L 319.49998 130.99396 
z
" clip-path="url(#p0f7e9626cc)" style="fill-opacity: 0.4"/>
    <path d="M 231.944021 192.080861 
L 236.35816 191.485282 
L 244.229823 180.546464 
L 239.825162 181.162659 
z
" clip-path="url(#p0f7e9626cc)" style="fill-opacity: 0.4"/>
    <path d="M 333.306152 128.80127 
L 337.949383 128.063834 
L 345.203799 117.507124 
L 340.572819 118.263474 
z
" clip-path="url(#p0f7e9626cc)" style="fill-opacity: 0.4"/>
    <path d="M 253.098124 179.305821 
L 257.562028 178.681338 
L 265.308322 167.81481 
L 260.854482 168.459585 
z
" clip-path="url(#p0f7e9626cc)" style="fill-opacity: 0.4"/>
    <path d="M 172.887486 229.812016 
L 177.172052 229.300492 
L 185.410255 218.124127 
L 181.133568 218.657319 
z
" clip-path="url(#p0f7e9626cc)" style="fill-opacity: 0.4"/>
    <path d="M 274.275672 166.516622 
L 278.78945 165.86317 
L 286.410092 155.069101 
L 281.906968 155.742518 
z
" clip-path="url(#p0f7e9626cc)" style="fill-opacity: 0.4"/>
    <path d="M 194.020928 217.050598 
L 198.35517 216.51023 
L 206.468262 205.405983 
L 202.142484 205.967695 
z
" clip-path="url(#p0f7e9626cc)" style="fill-opacity: 0.4"/>
    <path d="M 295.476705 153.71324 
L 300.040465 153.030755 
L 307.535172 142.309313 
L 302.982657 143.011434 
z
" clip-path="url(#p0f7e9626cc)" style="fill-opacity: 0.4"/>
    <path d="M 215.177806 204.275028 
L 219.561832 203.705752 
L 227.549531 192.673789 
L 223.174556 193.264084 
z
" clip-path="url(#p0f7e9626cc)" style="fill-opacity: 0.4"/>
    <path d="M 316.701263 140.895652 
L 321.315112 140.184071 
L 328.6836 129.535421 
L 324.081588 130.266311 
z
" clip-path="url(#p0f7e9626cc)" style="fill-opacity: 0.4"/>
    <path d="M 236.35816 191.485282 
L 240.792078 190.887035 
L 248.654099 179.927524 
L 244.229823 180.546464 
z
" clip-path="url(#p0f7e9626cc)" style="fill-opacity: 0.4"/>
    <path d="M 156.012439 242.076561 
L 160.266413 241.591654 
L 168.622002 230.321262 
L 164.375472 230.828245 
z
" clip-path="url(#p0f7e9626cc)" style="fill-opacity: 0.4"/>
    <path d="M 337.949383 128.063834 
L 342.613431 127.323092 
L 349.855415 116.747404 
L 345.203799 117.507124 
z
" clip-path="url(#p0f7e9626cc)" style="fill-opacity: 0.4"/>
    <path d="M 257.562028 178.681338 
L 262.045946 178.054054 
L 269.782007 167.167162 
L 265.308322 167.81481 
z
" clip-path="url(#p0f7e9626cc)" style="fill-opacity: 0.4"/>
    <path d="M 177.172052 229.300492 
L 181.475828 228.786674 
L 189.705999 217.588558 
L 185.410255 218.124127 
z
" clip-path="url(#p0f7e9626cc)" style="fill-opacity: 0.4"/>
    <path d="M 278.78945 165.86317 
L 283.323476 165.206786 
L 290.933293 154.392682 
L 286.410092 155.069101 
z
" clip-path="url(#p0f7e9626cc)" style="fill-opacity: 0.4"/>
    <path d="M 198.35517 216.51023 
L 202.708856 215.967437 
L 210.813326 204.841766 
L 206.468262 205.405983 
z
" clip-path="url(#p0f7e9626cc)" style="fill-opacity: 0.4"/>
    <path d="M 300.040465 153.030755 
L 304.624709 152.345208 
L 312.107995 141.604059 
L 307.535172 142.309313 
z
" clip-path="url(#p0f7e9626cc)" style="fill-opacity: 0.4"/>
    <path d="M 219.561832 203.705752 
L 223.965536 203.133921 
L 231.944021 192.080861 
L 227.549531 192.673789 
z
" clip-path="url(#p0f7e9626cc)" style="fill-opacity: 0.4"/>
    <path d="M 321.315112 140.184071 
L 325.949682 139.469294 
L 333.306152 128.80127 
L 328.6836 129.535421 
z
" clip-path="url(#p0f7e9626cc)" style="fill-opacity: 0.4"/>
    <path d="M 240.792078 190.887035 
L 245.245908 190.2861 
L 253.098124 179.305821 
L 248.654099 179.927524 
z
" clip-path="url(#p0f7e9626cc)" style="fill-opacity: 0.4"/>
    <path d="M 160.266413 241.591654 
L 164.539493 241.10457 
L 172.887486 229.812016 
L 168.622002 230.321262 
z
" clip-path="url(#p0f7e9626cc)" style="fill-opacity: 0.4"/>
    <path d="M 342.613431 127.323092 
L 347.298437 126.579021 
L 354.527804 115.984291 
L 349.855415 116.747404 
z
" clip-path="url(#p0f7e9626cc)" style="fill-opacity: 0.4"/>
    <path d="M 262.045946 178.054054 
L 266.550013 177.423952 
L 274.275672 166.516622 
L 269.782007 167.167162 
z
" clip-path="url(#p0f7e9626cc)" style="fill-opacity: 0.4"/>
    <path d="M 181.475828 228.786674 
L 185.798943 228.270547 
L 194.020928 217.050598 
L 189.705999 217.588558 
z
" clip-path="url(#p0f7e9626cc)" style="fill-opacity: 0.4"/>
    <path d="M 283.323476 165.206786 
L 287.877888 164.547452 
L 295.476705 153.71324 
L 290.933293 154.392682 
z
" clip-path="url(#p0f7e9626cc)" style="fill-opacity: 0.4"/>
    <path d="M 202.708856 215.967437 
L 207.082116 215.422205 
L 215.177806 204.275028 
L 210.813326 204.841766 
z
" clip-path="url(#p0f7e9626cc)" style="fill-opacity: 0.4"/>
    <path d="M 304.624709 152.345208 
L 309.229575 151.656576 
L 316.701263 140.895652 
L 312.107995 141.604059 
z
" clip-path="url(#p0f7e9626cc)" style="fill-opacity: 0.4"/>
    <path d="M 223.965536 203.133921 
L 228.38905 202.559517 
L 236.35816 191.485282 
L 231.944021 192.080861 
z
" clip-path="url(#p0f7e9626cc)" style="fill-opacity: 0.4"/>
    <path d="M 325.949682 139.469294 
L 330.605113 138.7513 
L 337.949383 128.063834 
L 333.306152 128.80127 
z
" clip-path="url(#p0f7e9626cc)" style="fill-opacity: 0.4"/>
    <path d="M 245.245908 190.2861 
L 249.719786 189.682461 
L 257.562028 178.681338 
L 253.098124 179.305821 
z
" clip-path="url(#p0f7e9626cc)" style="fill-opacity: 0.4"/>
    <path d="M 164.539493 241.10457 
L 168.831806 240.615293 
L 177.172052 229.300492 
L 172.887486 229.812016 
z
" clip-path="url(#p0f7e9626cc)" style="fill-opacity: 0.4"/>
    <path d="M 347.298437 126.579021 
L 352.004542 125.8316 
L 359.221106 115.217762 
L 354.527804 115.984291 
z
" clip-path="url(#p0f7e9626cc)" style="fill-opacity: 0.4"/>
    <path d="M 266.550013 177.423952 
L 271.074364 176.791012 
L 278.78945 165.86317 
L 274.275672 166.516622 
z
" clip-path="url(#p0f7e9626cc)" style="fill-opacity: 0.4"/>
    <path d="M 185.798943 228.270547 
L 190.141529 227.752096 
L 198.35517 216.51023 
L 194.020928 217.050598 
z
" clip-path="url(#p0f7e9626cc)" style="fill-opacity: 0.4"/>
    <path d="M 287.877888 164.547452 
L 292.452823 163.885146 
L 300.040465 153.030755 
L 295.476705 153.71324 
z
" clip-path="url(#p0f7e9626cc)" style="fill-opacity: 0.4"/>
    <path d="M 207.082116 215.422205 
L 211.475083 214.874515 
L 219.561832 203.705752 
L 215.177806 204.275028 
z
" clip-path="url(#p0f7e9626cc)" style="fill-opacity: 0.4"/>
    <path d="M 309.229575 151.656576 
L 313.855203 150.964839 
L 321.315112 140.184071 
L 316.701263 140.895652 
z
" clip-path="url(#p0f7e9626cc)" style="fill-opacity: 0.4"/>
    <path d="M 228.38905 202.559517 
L 232.832509 201.982523 
L 240.792078 190.887035 
L 236.35816 191.485282 
z
" clip-path="url(#p0f7e9626cc)" style="fill-opacity: 0.4"/>
    <path d="M 330.605113 138.7513 
L 335.281545 138.030067 
L 342.613431 127.323092 
L 337.949383 128.063834 
z
" clip-path="url(#p0f7e9626cc)" style="fill-opacity: 0.4"/>
    <path d="M 249.719786 189.682461 
L 254.213847 189.076098 
L 262.045946 178.054054 
L 257.562028 178.681338 
z
" clip-path="url(#p0f7e9626cc)" style="fill-opacity: 0.4"/>
    <path d="M 168.831806 240.615293 
L 173.143484 240.123808 
L 181.475828 228.786674 
L 177.172052 229.300492 
z
" clip-path="url(#p0f7e9626cc)" style="fill-opacity: 0.4"/>
    <path d="M 352.004542 125.8316 
L 356.73189 125.080805 
L 363.935462 114.447795 
L 359.221106 115.217762 
z
" clip-path="url(#p0f7e9626cc)" style="fill-opacity: 0.4"/>
    <path d="M 271.074364 176.791012 
L 275.619137 176.155215 
L 283.323476 165.206786 
L 278.78945 165.86317 
z
" clip-path="url(#p0f7e9626cc)" style="fill-opacity: 0.4"/>
    <path d="M 190.141529 227.752096 
L 194.503716 227.231305 
L 202.708856 215.967437 
L 198.35517 216.51023 
z
" clip-path="url(#p0f7e9626cc)" style="fill-opacity: 0.4"/>
    <path d="M 292.452823 163.885146 
L 297.048419 163.219849 
L 304.624709 152.345208 
L 300.040465 153.030755 
z
" clip-path="url(#p0f7e9626cc)" style="fill-opacity: 0.4"/>
    <path d="M 211.475083 214.874515 
L 215.887891 214.324351 
L 223.965536 203.133921 
L 219.561832 203.705752 
z
" clip-path="url(#p0f7e9626cc)" style="fill-opacity: 0.4"/>
    <path d="M 313.855203 150.964839 
L 318.501734 150.269977 
L 325.949682 139.469294 
L 321.315112 140.184071 
z
" clip-path="url(#p0f7e9626cc)" style="fill-opacity: 0.4"/>
    <path d="M 232.832509 201.982523 
L 237.296048 201.402923 
L 245.245908 190.2861 
L 240.792078 190.887035 
z
" clip-path="url(#p0f7e9626cc)" style="fill-opacity: 0.4"/>
    <path d="M 335.281545 138.030067 
L 339.979122 137.305573 
L 347.298437 126.579021 
L 342.613431 127.323092 
z
" clip-path="url(#p0f7e9626cc)" style="fill-opacity: 0.4"/>
    <path d="M 254.213847 189.076098 
L 258.728228 188.466994 
L 266.550013 177.423952 
L 262.045946 178.054054 
z
" clip-path="url(#p0f7e9626cc)" style="fill-opacity: 0.4"/>
    <path d="M 173.143484 240.123808 
L 177.474657 239.630101 
L 185.798943 228.270547 
L 181.475828 228.786674 
z
" clip-path="url(#p0f7e9626cc)" style="fill-opacity: 0.4"/>
    <path d="M 356.73189 125.080805 
L 361.480623 124.326613 
L 368.671013 113.674366 
L 363.935462 114.447795 
z
" clip-path="url(#p0f7e9626cc)" style="fill-opacity: 0.4"/>
    <path d="M 275.619137 176.155215 
L 280.184471 175.516542 
L 287.877888 164.547452 
L 283.323476 165.206786 
z
" clip-path="url(#p0f7e9626cc)" style="fill-opacity: 0.4"/>
    <path d="M 194.503716 227.231305 
L 198.885639 226.708158 
L 207.082116 215.422205 
L 202.708856 215.967437 
z
" clip-path="url(#p0f7e9626cc)" style="fill-opacity: 0.4"/>
    <path d="M 297.048419 163.219849 
L 301.664818 162.551541 
L 309.229575 151.656576 
L 304.624709 152.345208 
z
" clip-path="url(#p0f7e9626cc)" style="fill-opacity: 0.4"/>
    <path d="M 215.887891 214.324351 
L 220.320674 213.771698 
L 228.38905 202.559517 
L 223.965536 203.133921 
z
" clip-path="url(#p0f7e9626cc)" style="fill-opacity: 0.4"/>
    <path d="M 318.501734 150.269977 
L 323.169309 149.571967 
L 330.605113 138.7513 
L 325.949682 139.469294 
z
" clip-path="url(#p0f7e9626cc)" style="fill-opacity: 0.4"/>
    <path d="M 237.296048 201.402923 
L 241.779803 200.820696 
L 249.719786 189.682461 
L 245.245908 190.2861 
z
" clip-path="url(#p0f7e9626cc)" style="fill-opacity: 0.4"/>
    <path d="M 339.979122 137.305573 
L 344.697986 136.577795 
L 352.004542 125.8316 
L 347.298437 126.579021 
z
" clip-path="url(#p0f7e9626cc)" style="fill-opacity: 0.4"/>
    <path d="M 258.728228 188.466994 
L 263.263067 187.85513 
L 271.074364 176.791012 
L 266.550013 177.423952 
z
" clip-path="url(#p0f7e9626cc)" style="fill-opacity: 0.4"/>
    <path d="M 177.474657 239.630101 
L 181.825458 239.134157 
L 190.141529 227.752096 
L 185.798943 228.270547 
z
" clip-path="url(#p0f7e9626cc)" style="fill-opacity: 0.4"/>
    <path d="M 280.184471 175.516542 
L 284.770506 174.874972 
L 292.452823 163.885146 
L 287.877888 164.547452 
z
" clip-path="url(#p0f7e9626cc)" style="fill-opacity: 0.4"/>
    <path d="M 198.885639 226.708158 
L 203.28743 226.182638 
L 211.475083 214.874515 
L 207.082116 215.422205 
z
" clip-path="url(#p0f7e9626cc)" style="fill-opacity: 0.4"/>
    <path d="M 301.664818 162.551541 
L 306.302161 161.8802 
L 313.855203 150.964839 
L 309.229575 151.656576 
z
" clip-path="url(#p0f7e9626cc)" style="fill-opacity: 0.4"/>
    <path d="M 220.320674 213.771698 
L 224.773568 213.216537 
L 232.832509 201.982523 
L 228.38905 202.559517 
z
" clip-path="url(#p0f7e9626cc)" style="fill-opacity: 0.4"/>
    <path d="M 323.169309 149.571967 
L 327.858073 148.870789 
L 335.281545 138.030067 
L 330.605113 138.7513 
z
" clip-path="url(#p0f7e9626cc)" style="fill-opacity: 0.4"/>
    <path d="M 241.779803 200.820696 
L 246.283912 200.235827 
L 254.213847 189.076098 
L 249.719786 189.682461 
z
" clip-path="url(#p0f7e9626cc)" style="fill-opacity: 0.4"/>
    <path d="M 344.697986 136.577795 
L 349.438283 135.846713 
L 356.73189 125.080805 
L 352.004542 125.8316 
z
" clip-path="url(#p0f7e9626cc)" style="fill-opacity: 0.4"/>
    <path d="M 263.263067 187.85513 
L 267.818503 187.240486 
L 275.619137 176.155215 
L 271.074364 176.791012 
z
" clip-path="url(#p0f7e9626cc)" style="fill-opacity: 0.4"/>
    <path d="M 181.825458 239.134157 
L 186.196021 238.635961 
L 194.503716 227.231305 
L 190.141529 227.752096 
z
" clip-path="url(#p0f7e9626cc)" style="fill-opacity: 0.4"/>
    <path d="M 284.770506 174.874972 
L 289.377382 174.230488 
L 297.048419 163.219849 
L 292.452823 163.885146 
z
" clip-path="url(#p0f7e9626cc)" style="fill-opacity: 0.4"/>
    <path d="M 203.28743 226.182638 
L 207.709226 225.654731 
L 215.887891 214.324351 
L 211.475083 214.874515 
z
" clip-path="url(#p0f7e9626cc)" style="fill-opacity: 0.4"/>
    <path d="M 306.302161 161.8802 
L 310.96059 161.205807 
L 318.501734 150.269977 
L 313.855203 150.964839 
z
" clip-path="url(#p0f7e9626cc)" style="fill-opacity: 0.4"/>
    <path d="M 224.773568 213.216537 
L 229.24671 212.658851 
L 237.296048 201.402923 
L 232.832509 201.982523 
z
" clip-path="url(#p0f7e9626cc)" style="fill-opacity: 0.4"/>
    <path d="M 327.858073 148.870789 
L 332.568168 148.16642 
L 339.979122 137.305573 
L 335.281545 138.030067 
z
" clip-path="url(#p0f7e9626cc)" style="fill-opacity: 0.4"/>
    <path d="M 246.283912 200.235827 
L 250.808513 199.648297 
L 258.728228 188.466994 
L 254.213847 189.076098 
z
" clip-path="url(#p0f7e9626cc)" style="fill-opacity: 0.4"/>
    <path d="M 349.438283 135.846713 
L 354.200159 135.112302 
L 361.480623 124.326613 
L 356.73189 125.080805 
z
" clip-path="url(#p0f7e9626cc)" style="fill-opacity: 0.4"/>
    <path d="M 267.818503 187.240486 
L 272.394676 186.623044 
L 280.184471 175.516542 
L 275.619137 176.155215 
z
" clip-path="url(#p0f7e9626cc)" style="fill-opacity: 0.4"/>
    <path d="M 186.196021 238.635961 
L 190.58648 238.135496 
L 198.885639 226.708158 
L 194.503716 227.231305 
z
" clip-path="url(#p0f7e9626cc)" style="fill-opacity: 0.4"/>
    <path d="M 289.377382 174.230488 
L 294.005242 173.583067 
L 301.664818 162.551541 
L 297.048419 163.219849 
z
" clip-path="url(#p0f7e9626cc)" style="fill-opacity: 0.4"/>
    <path d="M 207.709226 225.654731 
L 212.151164 225.124418 
L 220.320674 213.771698 
L 215.887891 214.324351 
z
" clip-path="url(#p0f7e9626cc)" style="fill-opacity: 0.4"/>
    <path d="M 310.96059 161.205807 
L 315.64025 160.528341 
L 323.169309 149.571967 
L 318.501734 150.269977 
z
" clip-path="url(#p0f7e9626cc)" style="fill-opacity: 0.4"/>
    <path d="M 229.24671 212.658851 
L 233.740239 212.098624 
L 241.779803 200.820696 
L 237.296048 201.402923 
z
" clip-path="url(#p0f7e9626cc)" style="fill-opacity: 0.4"/>
    <path d="M 332.568168 148.16642 
L 337.299743 147.45884 
L 344.697986 136.577795 
L 339.979122 137.305573 
z
" clip-path="url(#p0f7e9626cc)" style="fill-opacity: 0.4"/>
    <path d="M 250.808513 199.648297 
L 255.353747 199.058088 
L 263.263067 187.85513 
L 258.728228 188.466994 
z
" clip-path="url(#p0f7e9626cc)" style="fill-opacity: 0.4"/>
    <path d="M 272.394676 186.623044 
L 276.99173 186.002785 
L 284.770506 174.874972 
L 280.184471 175.516542 
z
" clip-path="url(#p0f7e9626cc)" style="fill-opacity: 0.4"/>
    <path d="M 190.58648 238.135496 
L 194.996973 237.632747 
L 203.28743 226.182638 
L 198.885639 226.708158 
z
" clip-path="url(#p0f7e9626cc)" style="fill-opacity: 0.4"/>
    <path d="M 294.005242 173.583067 
L 298.654229 172.932691 
L 306.302161 161.8802 
L 301.664818 162.551541 
z
" clip-path="url(#p0f7e9626cc)" style="fill-opacity: 0.4"/>
    <path d="M 212.151164 225.124418 
L 216.613381 224.591685 
L 224.773568 213.216537 
L 220.320674 213.771698 
z
" clip-path="url(#p0f7e9626cc)" style="fill-opacity: 0.4"/>
    <path d="M 315.64025 160.528341 
L 320.341286 159.847779 
L 327.858073 148.870789 
L 323.169309 149.571967 
z
" clip-path="url(#p0f7e9626cc)" style="fill-opacity: 0.4"/>
    <path d="M 233.740239 212.098624 
L 238.254294 211.535838 
L 246.283912 200.235827 
L 241.779803 200.820696 
z
" clip-path="url(#p0f7e9626cc)" style="fill-opacity: 0.4"/>
    <path d="M 337.299743 147.45884 
L 342.052943 146.748026 
L 349.438283 135.846713 
L 344.697986 136.577795 
z
" clip-path="url(#p0f7e9626cc)" style="fill-opacity: 0.4"/>
    <path d="M 255.353747 199.058088 
L 259.919756 198.465181 
L 267.818503 187.240486 
L 263.263067 187.85513 
z
" clip-path="url(#p0f7e9626cc)" style="fill-opacity: 0.4"/>
    <path d="M 276.99173 186.002785 
L 281.609807 185.37969 
L 289.377382 174.230488 
L 284.770506 174.874972 
z
" clip-path="url(#p0f7e9626cc)" style="fill-opacity: 0.4"/>
    <path d="M 194.996973 237.632747 
L 199.427635 237.1277 
L 207.709226 225.654731 
L 203.28743 226.182638 
z
" clip-path="url(#p0f7e9626cc)" style="fill-opacity: 0.4"/>
    <path d="M 298.654229 172.932691 
L 303.32449 172.279339 
L 310.96059 161.205807 
L 306.302161 161.8802 
z
" clip-path="url(#p0f7e9626cc)" style="fill-opacity: 0.4"/>
    <path d="M 216.613381 224.591685 
L 221.096016 224.056514 
L 229.24671 212.658851 
L 224.773568 213.216537 
z
" clip-path="url(#p0f7e9626cc)" style="fill-opacity: 0.4"/>
    <path d="M 320.341286 159.847779 
L 325.063846 159.164102 
L 332.568168 148.16642 
L 327.858073 148.870789 
z
" clip-path="url(#p0f7e9626cc)" style="fill-opacity: 0.4"/>
    <path d="M 238.254294 211.535838 
L 242.789017 210.970475 
L 250.808513 199.648297 
L 246.283912 200.235827 
z
" clip-path="url(#p0f7e9626cc)" style="fill-opacity: 0.4"/>
    <path d="M 342.052943 146.748026 
L 346.827917 146.033955 
L 354.200159 135.112302 
L 349.438283 135.846713 
z
" clip-path="url(#p0f7e9626cc)" style="fill-opacity: 0.4"/>
    <path d="M 259.919756 198.465181 
L 264.506682 197.869558 
L 272.394676 186.623044 
L 267.818503 187.240486 
z
" clip-path="url(#p0f7e9626cc)" style="fill-opacity: 0.4"/>
    <path d="M 281.609807 185.37969 
L 286.249052 184.753738 
L 294.005242 173.583067 
L 289.377382 174.230488 
z
" clip-path="url(#p0f7e9626cc)" style="fill-opacity: 0.4"/>
    <path d="M 199.427635 237.1277 
L 203.878607 236.620338 
L 212.151164 225.124418 
L 207.709226 225.654731 
z
" clip-path="url(#p0f7e9626cc)" style="fill-opacity: 0.4"/>
    <path d="M 303.32449 172.279339 
L 308.016169 171.62299 
L 315.64025 160.528341 
L 310.96059 161.205807 
z
" clip-path="url(#p0f7e9626cc)" style="fill-opacity: 0.4"/>
    <path d="M 221.096016 224.056514 
L 225.59921 223.518888 
L 233.740239 212.098624 
L 229.24671 212.658851 
z
" clip-path="url(#p0f7e9626cc)" style="fill-opacity: 0.4"/>
    <path d="M 325.063846 159.164102 
L 329.808076 158.477288 
L 337.299743 147.45884 
L 332.568168 148.16642 
z
" clip-path="url(#p0f7e9626cc)" style="fill-opacity: 0.4"/>
    <path d="M 242.789017 210.970475 
L 247.34455 210.402517 
L 255.353747 199.058088 
L 250.808513 199.648297 
z
" clip-path="url(#p0f7e9626cc)" style="fill-opacity: 0.4"/>
    <path d="M 264.506682 197.869558 
L 269.114669 197.2712 
L 276.99173 186.002785 
L 272.394676 186.623044 
z
" clip-path="url(#p0f7e9626cc)" style="fill-opacity: 0.4"/>
    <path d="M 286.249052 184.753738 
L 290.90961 184.124911 
L 298.654229 172.932691 
L 294.005242 173.583067 
z
" clip-path="url(#p0f7e9626cc)" style="fill-opacity: 0.4"/>
    <path d="M 203.878607 236.620338 
L 208.350027 236.110644 
L 216.613381 224.591685 
L 212.151164 225.124418 
z
" clip-path="url(#p0f7e9626cc)" style="fill-opacity: 0.4"/>
    <path d="M 308.016169 171.62299 
L 312.729415 170.963625 
L 320.341286 159.847779 
L 315.64025 160.528341 
z
" clip-path="url(#p0f7e9626cc)" style="fill-opacity: 0.4"/>
    <path d="M 225.59921 223.518888 
L 230.123104 222.978791 
L 238.254294 211.535838 
L 233.740239 212.098624 
z
" clip-path="url(#p0f7e9626cc)" style="fill-opacity: 0.4"/>
    <path d="M 329.808076 158.477288 
L 334.574128 157.787315 
L 342.052943 146.748026 
L 337.299743 147.45884 
z
" clip-path="url(#p0f7e9626cc)" style="fill-opacity: 0.4"/>
    <path d="M 247.34455 210.402517 
L 251.921035 209.831948 
L 259.919756 198.465181 
L 255.353747 199.058088 
z
" clip-path="url(#p0f7e9626cc)" style="fill-opacity: 0.4"/>
    <path d="M 269.114669 197.2712 
L 273.743862 196.670089 
L 281.609807 185.37969 
L 276.99173 186.002785 
z
" clip-path="url(#p0f7e9626cc)" style="fill-opacity: 0.4"/>
    <path d="M 290.90961 184.124911 
L 295.591629 183.493188 
L 303.32449 172.279339 
L 298.654229 172.932691 
z
" clip-path="url(#p0f7e9626cc)" style="fill-opacity: 0.4"/>
    <path d="M 208.350027 236.110644 
L 212.842038 235.598604 
L 221.096016 224.056514 
L 216.613381 224.591685 
z
" clip-path="url(#p0f7e9626cc)" style="fill-opacity: 0.4"/>
    <path d="M 312.729415 170.963625 
L 317.464377 170.301221 
L 325.063846 159.164102 
L 320.341286 159.847779 
z
" clip-path="url(#p0f7e9626cc)" style="fill-opacity: 0.4"/>
    <path d="M 230.123104 222.978791 
L 234.667843 222.436205 
L 242.789017 210.970475 
L 238.254294 211.535838 
z
" clip-path="url(#p0f7e9626cc)" style="fill-opacity: 0.4"/>
    <path d="M 334.574128 157.787315 
L 339.362151 157.09416 
L 346.827917 146.033955 
L 342.052943 146.748026 
z
" clip-path="url(#p0f7e9626cc)" style="fill-opacity: 0.4"/>
    <path d="M 251.921035 209.831948 
L 256.518619 209.258747 
L 264.506682 197.869558 
L 259.919756 198.465181 
z
" clip-path="url(#p0f7e9626cc)" style="fill-opacity: 0.4"/>
    <path d="M 273.743862 196.670089 
L 278.394409 196.066204 
L 286.249052 184.753738 
L 281.609807 185.37969 
z
" clip-path="url(#p0f7e9626cc)" style="fill-opacity: 0.4"/>
    <path d="M 295.591629 183.493188 
L 300.295257 182.85855 
L 308.016169 171.62299 
L 303.32449 172.279339 
z
" clip-path="url(#p0f7e9626cc)" style="fill-opacity: 0.4"/>
    <path d="M 212.842038 235.598604 
L 217.354781 235.0842 
L 225.59921 223.518888 
L 221.096016 224.056514 
z
" clip-path="url(#p0f7e9626cc)" style="fill-opacity: 0.4"/>
    <path d="M 317.464377 170.301221 
L 322.221206 169.635758 
L 329.808076 158.477288 
L 325.063846 159.164102 
z
" clip-path="url(#p0f7e9626cc)" style="fill-opacity: 0.4"/>
    <path d="M 234.667843 222.436205 
L 239.233569 221.891114 
L 247.34455 210.402517 
L 242.789017 210.970475 
z
" clip-path="url(#p0f7e9626cc)" style="fill-opacity: 0.4"/>
    <path d="M 256.518619 209.258747 
L 261.137447 208.682899 
L 269.114669 197.2712 
L 264.506682 197.869558 
z
" clip-path="url(#p0f7e9626cc)" style="fill-opacity: 0.4"/>
    <path d="M 278.394409 196.066204 
L 283.066458 195.459528 
L 290.90961 184.124911 
L 286.249052 184.753738 
z
" clip-path="url(#p0f7e9626cc)" style="fill-opacity: 0.4"/>
    <path d="M 300.295257 182.85855 
L 305.020645 182.220976 
L 312.729415 170.963625 
L 308.016169 171.62299 
z
" clip-path="url(#p0f7e9626cc)" style="fill-opacity: 0.4"/>
    <path d="M 217.354781 235.0842 
L 221.888401 234.567416 
L 230.123104 222.978791 
L 225.59921 223.518888 
z
" clip-path="url(#p0f7e9626cc)" style="fill-opacity: 0.4"/>
    <path d="M 322.221206 169.635758 
L 327.000052 168.967215 
L 334.574128 157.787315 
L 329.808076 158.477288 
z
" clip-path="url(#p0f7e9626cc)" style="fill-opacity: 0.4"/>
    <path d="M 239.233569 221.891114 
L 243.820429 221.3435 
L 251.921035 209.831948 
L 247.34455 210.402517 
z
" clip-path="url(#p0f7e9626cc)" style="fill-opacity: 0.4"/>
    <path d="M 261.137447 208.682899 
L 265.777667 208.104383 
L 273.743862 196.670089 
L 269.114669 197.2712 
z
" clip-path="url(#p0f7e9626cc)" style="fill-opacity: 0.4"/>
    <path d="M 283.066458 195.459528 
L 287.760157 194.85004 
L 295.591629 183.493188 
L 290.90961 184.124911 
z
" clip-path="url(#p0f7e9626cc)" style="fill-opacity: 0.4"/>
    <path d="M 305.020645 182.220976 
L 309.767943 181.580445 
L 317.464377 170.301221 
L 312.729415 170.963625 
z
" clip-path="url(#p0f7e9626cc)" style="fill-opacity: 0.4"/>
    <path d="M 221.888401 234.567416 
L 226.443043 234.048237 
L 234.667843 222.436205 
L 230.123104 222.978791 
z
" clip-path="url(#p0f7e9626cc)" style="fill-opacity: 0.4"/>
    <path d="M 327.000052 168.967215 
L 331.801069 168.295571 
L 339.362151 157.09416 
L 334.574128 157.787315 
z
" clip-path="url(#p0f7e9626cc)" style="fill-opacity: 0.4"/>
    <path d="M 243.820429 221.3435 
L 248.428571 220.793345 
L 256.518619 209.258747 
L 251.921035 209.831948 
z
" clip-path="url(#p0f7e9626cc)" style="fill-opacity: 0.4"/>
    <path d="M 265.777667 208.104383 
L 270.439427 207.523182 
L 278.394409 196.066204 
L 273.743862 196.670089 
z
" clip-path="url(#p0f7e9626cc)" style="fill-opacity: 0.4"/>
    <path d="M 287.760157 194.85004 
L 292.475657 194.237721 
L 300.295257 182.85855 
L 295.591629 183.493188 
z
" clip-path="url(#p0f7e9626cc)" style="fill-opacity: 0.4"/>
    <path d="M 309.767943 181.580445 
L 314.537304 180.936937 
L 322.221206 169.635758 
L 317.464377 170.301221 
z
" clip-path="url(#p0f7e9626cc)" style="fill-opacity: 0.4"/>
    <path d="M 226.443043 234.048237 
L 231.018853 233.526644 
L 239.233569 221.891114 
L 234.667843 222.436205 
z
" clip-path="url(#p0f7e9626cc)" style="fill-opacity: 0.4"/>
    <path d="M 248.428571 220.793345 
L 253.058141 220.240631 
L 261.137447 208.682899 
L 256.518619 209.258747 
z
" clip-path="url(#p0f7e9626cc)" style="fill-opacity: 0.4"/>
    <path d="M 270.439427 207.523182 
L 275.122879 206.939276 
L 283.066458 195.459528 
L 278.394409 196.066204 
z
" clip-path="url(#p0f7e9626cc)" style="fill-opacity: 0.4"/>
    <path d="M 292.475657 194.237721 
L 297.213112 193.622552 
L 305.020645 182.220976 
L 300.295257 182.85855 
z
" clip-path="url(#p0f7e9626cc)" style="fill-opacity: 0.4"/>
    <path d="M 314.537304 180.936937 
L 319.328884 180.290432 
L 327.000052 168.967215 
L 322.221206 169.635758 
z
" clip-path="url(#p0f7e9626cc)" style="fill-opacity: 0.4"/>
    <path d="M 231.018853 233.526644 
L 235.61598 233.002621 
L 243.820429 221.3435 
L 239.233569 221.891114 
z
" clip-path="url(#p0f7e9626cc)" style="fill-opacity: 0.4"/>
    <path d="M 253.058141 220.240631 
L 257.709291 219.685341 
L 265.777667 208.104383 
L 261.137447 208.682899 
z
" clip-path="url(#p0f7e9626cc)" style="fill-opacity: 0.4"/>
    <path d="M 275.122879 206.939276 
L 279.828174 206.352647 
L 287.760157 194.85004 
L 283.066458 195.459528 
z
" clip-path="url(#p0f7e9626cc)" style="fill-opacity: 0.4"/>
    <path d="M 297.213112 193.622552 
L 301.972674 193.004511 
L 309.767943 181.580445 
L 305.020645 182.220976 
z
" clip-path="url(#p0f7e9626cc)" style="fill-opacity: 0.4"/>
    <path d="M 319.328884 180.290432 
L 324.142836 179.640908 
L 331.801069 168.295571 
L 327.000052 168.967215 
z
" clip-path="url(#p0f7e9626cc)" style="fill-opacity: 0.4"/>
    <path d="M 235.61598 233.002621 
L 240.234572 232.476152 
L 248.428571 220.793345 
L 243.820429 221.3435 
z
" clip-path="url(#p0f7e9626cc)" style="fill-opacity: 0.4"/>
    <path d="M 257.709291 219.685341 
L 262.382171 219.127457 
L 270.439427 207.523182 
L 265.777667 208.104383 
z
" clip-path="url(#p0f7e9626cc)" style="fill-opacity: 0.4"/>
    <path d="M 279.828174 206.352647 
L 284.555465 205.763276 
L 292.475657 194.237721 
L 287.760157 194.85004 
z
" clip-path="url(#p0f7e9626cc)" style="fill-opacity: 0.4"/>
    <path d="M 301.972674 193.004511 
L 306.754499 192.38358 
L 314.537304 180.936937 
L 309.767943 181.580445 
z
" clip-path="url(#p0f7e9626cc)" style="fill-opacity: 0.4"/>
    <path d="M 240.234572 232.476152 
L 244.87478 231.947219 
L 253.058141 220.240631 
L 248.428571 220.793345 
z
" clip-path="url(#p0f7e9626cc)" style="fill-opacity: 0.4"/>
    <path d="M 262.382171 219.127457 
L 267.076934 218.566961 
L 275.122879 206.939276 
L 270.439427 207.523182 
z
" clip-path="url(#p0f7e9626cc)" style="fill-opacity: 0.4"/>
    <path d="M 284.555465 205.763276 
L 289.304907 205.171143 
L 297.213112 193.622552 
L 292.475657 194.237721 
z
" clip-path="url(#p0f7e9626cc)" style="fill-opacity: 0.4"/>
    <path d="M 306.754499 192.38358 
L 311.558744 191.759738 
L 319.328884 180.290432 
L 314.537304 180.936937 
z
" clip-path="url(#p0f7e9626cc)" style="fill-opacity: 0.4"/>
    <path d="M 244.87478 231.947219 
L 249.536757 231.415804 
L 257.709291 219.685341 
L 253.058141 220.240631 
z
" clip-path="url(#p0f7e9626cc)" style="fill-opacity: 0.4"/>
    <path d="M 267.076934 218.566961 
L 271.793734 218.003833 
L 279.828174 206.352647 
L 275.122879 206.939276 
z
" clip-path="url(#p0f7e9626cc)" style="fill-opacity: 0.4"/>
    <path d="M 289.304907 205.171143 
L 294.076656 204.576229 
L 301.972674 193.004511 
L 297.213112 193.622552 
z
" clip-path="url(#p0f7e9626cc)" style="fill-opacity: 0.4"/>
    <path d="M 311.558744 191.759738 
L 316.385565 191.132964 
L 324.142836 179.640908 
L 319.328884 180.290432 
z
" clip-path="url(#p0f7e9626cc)" style="fill-opacity: 0.4"/>
    <path d="M 249.536757 231.415804 
L 254.220655 230.88189 
L 262.382171 219.127457 
L 257.709291 219.685341 
z
" clip-path="url(#p0f7e9626cc)" style="fill-opacity: 0.4"/>
    <path d="M 271.793734 218.003833 
L 276.532727 217.438056 
L 284.555465 205.763276 
L 279.828174 206.352647 
z
" clip-path="url(#p0f7e9626cc)" style="fill-opacity: 0.4"/>
    <path d="M 294.076656 204.576229 
L 298.870869 203.978514 
L 306.754499 192.38358 
L 301.972674 193.004511 
z
" clip-path="url(#p0f7e9626cc)" style="fill-opacity: 0.4"/>
    <path d="M 254.220655 230.88189 
L 258.92663 230.34546 
L 267.076934 218.566961 
L 262.382171 219.127457 
z
" clip-path="url(#p0f7e9626cc)" style="fill-opacity: 0.4"/>
    <path d="M 276.532727 217.438056 
L 281.29407 216.86961 
L 289.304907 205.171143 
L 284.555465 205.763276 
z
" clip-path="url(#p0f7e9626cc)" style="fill-opacity: 0.4"/>
    <path d="M 298.870869 203.978514 
L 303.687705 203.377979 
L 311.558744 191.759738 
L 306.754499 192.38358 
z
" clip-path="url(#p0f7e9626cc)" style="fill-opacity: 0.4"/>
    <path d="M 258.92663 230.34546 
L 263.654839 229.806496 
L 271.793734 218.003833 
L 267.076934 218.566961 
z
" clip-path="url(#p0f7e9626cc)" style="fill-opacity: 0.4"/>
    <path d="M 281.29407 216.86961 
L 286.077921 216.298478 
L 294.076656 204.576229 
L 289.304907 205.171143 
z
" clip-path="url(#p0f7e9626cc)" style="fill-opacity: 0.4"/>
    <path d="M 303.687705 203.377979 
L 308.527325 202.774603 
L 316.385565 191.132964 
L 311.558744 191.759738 
z
" clip-path="url(#p0f7e9626cc)" style="fill-opacity: 0.4"/>
    <path d="M 263.654839 229.806496 
L 268.405439 229.264979 
L 276.532727 217.438056 
L 271.793734 218.003833 
z
" clip-path="url(#p0f7e9626cc)" style="fill-opacity: 0.4"/>
    <path d="M 286.077921 216.298478 
L 290.88444 215.724639 
L 298.870869 203.978514 
L 294.076656 204.576229 
z
" clip-path="url(#p0f7e9626cc)" style="fill-opacity: 0.4"/>
    <path d="M 268.405439 229.264979 
L 273.17859 228.720891 
L 281.29407 216.86961 
L 276.532727 217.438056 
z
" clip-path="url(#p0f7e9626cc)" style="fill-opacity: 0.4"/>
    <path d="M 290.88444 215.724639 
L 295.713788 215.148074 
L 303.687705 203.377979 
L 298.870869 203.978514 
z
" clip-path="url(#p0f7e9626cc)" style="fill-opacity: 0.4"/>
    <path d="M 273.17859 228.720891 
L 277.974453 228.174215 
L 286.077921 216.298478 
L 281.29407 216.86961 
z
" clip-path="url(#p0f7e9626cc)" style="fill-opacity: 0.4"/>
    <path d="M 295.713788 215.148074 
L 300.566129 214.568765 
L 308.527325 202.774603 
L 303.687705 203.377979 
z
" clip-path="url(#p0f7e9626cc)" style="fill-opacity: 0.4"/>
    <path d="M 277.974453 228.174215 
L 282.793189 227.624931 
L 290.88444 215.724639 
L 286.077921 216.298478 
z
" clip-path="url(#p0f7e9626cc)" style="fill-opacity: 0.4"/>
    <path d="M 282.793189 227.624931 
L 287.634964 227.073022 
L 295.713788 215.148074 
L 290.88444 215.724639 
z
" clip-path="url(#p0f7e9626cc)" style="fill-opacity: 0.4"/>
    <path d="M 287.634964 227.073022 
L 292.499943 226.518467 
L 300.566129 214.568765 
L 295.713788 215.148074 
z
" clip-path="url(#p0f7e9626cc)" style="fill-opacity: 0.4"/>
   </g>
  </g>
 </g>
 <defs>
  <clipPath id="p0f7e9626cc">
   <rect x="119.7" y="43.2" width="277.2" height="277.2"/>
  </clipPath>
 </defs>
</svg>
