<?xml version="1.0" encoding="UTF-8"?>
<svg xmlns="http://www.w3.org/2000/svg" xmlns:xlink="http://www.w3.org/1999/xlink" width="504pt" height="360pt" viewBox="0 0 504 360">
<defs>
<g>
<g id="glyph-0-0">
<path d="M 5.046875 -2.734375 L 2.875 -2.734375 L 2.875 -2.15625 L 4.453125 -2.15625 L 4.453125 -2.015625 C 4.453125 -1.09375 3.78125 -0.421875 2.828125 -0.421875 C 2.296875 -0.421875 1.828125 -0.609375 1.515625 -0.953125 C 1.1875 -1.3125 0.96875 -1.9375 0.96875 -2.578125 C 0.96875 -3.84375 1.703125 -4.6875 2.796875 -4.6875 C 3.578125 -4.6875 4.15625 -4.28125 4.296875 -3.609375 L 4.96875 -3.609375 C 4.78125 -4.65625 3.984375 -5.265625 2.796875 -5.265625 C 2.171875 -5.265625 1.65625 -5.109375 1.25 -4.765625 C 0.640625 -4.265625 0.3125 -3.46875 0.3125 -2.53125 C 0.3125 -0.953125 1.28125 0.15625 2.6875 0.15625 C 3.390625 0.15625 3.953125 -0.09375 4.453125 -0.65625 L 4.625 0.03125 L 5.046875 0.03125 Z M 5.046875 -2.734375 "/>
</g>
<g id="glyph-0-1">
<path d="M 3.640625 -1.65625 C 3.640625 -2.234375 3.609375 -2.578125 3.5 -2.84375 C 3.25 -3.46875 2.6875 -3.828125 1.984375 -3.828125 C 0.953125 -3.828125 0.28125 -3.046875 0.28125 -1.8125 C 0.28125 -0.578125 0.921875 0.15625 1.96875 0.15625 C 2.828125 0.15625 3.421875 -0.3125 3.5625 -1.125 L 2.96875 -1.125 C 2.8125 -0.640625 2.46875 -0.390625 2 -0.390625 C 1.625 -0.390625 1.296875 -0.546875 1.109375 -0.875 C 0.953125 -1.078125 0.90625 -1.296875 0.90625 -1.65625 Z M 0.921875 -2.140625 C 0.96875 -2.84375 1.390625 -3.28125 1.984375 -3.28125 C 2.59375 -3.28125 3 -2.8125 3 -2.140625 Z M 0.921875 -2.140625 "/>
</g>
<g id="glyph-0-2">
<path d="M 0.5 -3.71875 L 0.5 0 L 1.09375 0 L 1.09375 -2.046875 C 1.09375 -2.8125 1.5 -3.3125 2.109375 -3.3125 C 2.578125 -3.3125 2.875 -3.03125 2.875 -2.578125 L 2.875 0 L 3.46875 0 L 3.46875 -2.8125 C 3.46875 -3.4375 3 -3.828125 2.28125 -3.828125 C 1.734375 -3.828125 1.375 -3.625 1.046875 -3.09375 L 1.046875 -3.71875 Z M 0.5 -3.71875 "/>
</g>
<g id="glyph-1-0">
<path d="M 2.5 -2.75 L 0.40625 -2.75 L 0.40625 -2.109375 L 2.5 -2.109375 Z M 2.5 -2.75 "/>
</g>
<g id="glyph-1-1">
<path d="M 2.28125 -4.53125 L 2.28125 0 L 3.046875 0 L 3.046875 -6.359375 L 2.546875 -6.359375 C 2.265625 -5.390625 2.09375 -5.25 0.890625 -5.09375 L 0.890625 -4.53125 Z M 2.28125 -4.53125 "/>
</g>
<g id="glyph-1-2">
<path d="M 0.765625 -0.921875 L 0.765625 0 L 1.296875 0 L 1.296875 0.15625 C 1.296875 0.765625 1.171875 0.9375 0.765625 0.953125 L 0.765625 1.296875 C 1.34375 1.3125 1.6875 0.890625 1.6875 0.140625 L 1.6875 -0.921875 Z M 0.765625 -0.921875 "/>
</g>
<g id="glyph-1-3">
<path d="M 2.421875 -6.359375 C 1.84375 -6.359375 1.3125 -6.09375 0.984375 -5.671875 C 0.578125 -5.109375 0.375 -4.25 0.375 -3.078125 C 0.375 -0.9375 1.078125 0.203125 2.421875 0.203125 C 3.734375 0.203125 4.453125 -0.9375 4.453125 -3.03125 C 4.453125 -4.25 4.265625 -5.078125 3.859375 -5.671875 C 3.53125 -6.109375 3.015625 -6.359375 2.421875 -6.359375 Z M 2.421875 -5.671875 C 3.25 -5.671875 3.671875 -4.828125 3.671875 -3.09375 C 3.671875 -1.28125 3.265625 -0.4375 2.40625 -0.4375 C 1.578125 -0.4375 1.171875 -1.3125 1.171875 -3.0625 C 1.171875 -4.828125 1.578125 -5.671875 2.421875 -5.671875 Z M 2.421875 -5.671875 "/>
</g>
<g id="glyph-1-4">
<path d="M 4.1875 -6.234375 L 0.96875 -6.234375 L 0.5 -2.84375 L 1.21875 -2.84375 C 1.578125 -3.265625 1.875 -3.421875 2.359375 -3.421875 C 3.203125 -3.421875 3.71875 -2.84375 3.71875 -1.921875 C 3.71875 -1.03125 3.203125 -0.484375 2.359375 -0.484375 C 1.6875 -0.484375 1.265625 -0.828125 1.078125 -1.53125 L 0.3125 -1.53125 C 0.40625 -1.015625 0.5 -0.78125 0.6875 -0.546875 C 1.03125 -0.078125 1.671875 0.203125 2.375 0.203125 C 3.640625 0.203125 4.515625 -0.71875 4.515625 -2.03125 C 4.515625 -3.265625 3.6875 -4.109375 2.5 -4.109375 C 2.0625 -4.109375 1.703125 -4 1.34375 -3.734375 L 1.59375 -5.46875 L 4.1875 -5.46875 Z M 4.1875 -6.234375 "/>
</g>
<g id="glyph-1-5">
<path d="M 1.9375 -2.921875 L 2.359375 -2.921875 C 3.203125 -2.921875 3.65625 -2.53125 3.65625 -1.765625 C 3.65625 -0.96875 3.171875 -0.484375 2.375 -0.484375 C 1.515625 -0.484375 1.109375 -0.921875 1.0625 -1.84375 L 0.28125 -1.84375 C 0.3125 -1.34375 0.40625 -1 0.546875 -0.71875 C 0.875 -0.109375 1.484375 0.203125 2.34375 0.203125 C 3.625 0.203125 4.453125 -0.578125 4.453125 -1.78125 C 4.453125 -2.59375 4.140625 -3.03125 3.390625 -3.296875 C 3.96875 -3.53125 4.265625 -3.96875 4.265625 -4.609375 C 4.265625 -5.703125 3.546875 -6.359375 2.359375 -6.359375 C 1.109375 -6.359375 0.4375 -5.65625 0.40625 -4.3125 L 1.1875 -4.3125 C 1.203125 -4.703125 1.234375 -4.921875 1.328125 -5.109375 C 1.5 -5.46875 1.890625 -5.6875 2.375 -5.6875 C 3.0625 -5.6875 3.46875 -5.265625 3.46875 -4.578125 C 3.46875 -4.140625 3.3125 -3.859375 2.96875 -3.71875 C 2.765625 -3.625 2.484375 -3.59375 1.9375 -3.578125 Z M 1.9375 -2.921875 "/>
</g>
<g id="glyph-1-6">
<path d="M 4.375 -4.703125 C 4.234375 -5.75 3.5625 -6.359375 2.609375 -6.359375 C 1.921875 -6.359375 1.3125 -6.03125 0.9375 -5.453125 C 0.546875 -4.828125 0.375 -4.0625 0.375 -2.90625 C 0.375 -1.828125 0.53125 -1.15625 0.90625 -0.59375 C 1.234375 -0.078125 1.78125 0.203125 2.46875 0.203125 C 3.65625 0.203125 4.515625 -0.6875 4.515625 -1.921875 C 4.515625 -3.09375 3.71875 -3.921875 2.609375 -3.921875 C 1.984375 -3.921875 1.5 -3.6875 1.171875 -3.234375 C 1.171875 -4.796875 1.671875 -5.671875 2.5625 -5.671875 C 3.109375 -5.671875 3.484375 -5.328125 3.609375 -4.703125 Z M 2.5 -3.234375 C 3.25 -3.234375 3.71875 -2.703125 3.71875 -1.859375 C 3.71875 -1.0625 3.1875 -0.484375 2.484375 -0.484375 C 1.765625 -0.484375 1.21875 -1.09375 1.21875 -1.90625 C 1.21875 -2.6875 1.734375 -3.234375 2.5 -3.234375 Z M 2.5 -3.234375 "/>
</g>
<g id="glyph-1-7">
<path d="M 0.46875 -1.453125 C 0.609375 -0.40625 1.28125 0.203125 2.234375 0.203125 C 2.921875 0.203125 3.546875 -0.125 3.921875 -0.703125 C 4.296875 -1.328125 4.484375 -2.109375 4.484375 -3.25 C 4.484375 -4.328125 4.3125 -5 3.953125 -5.5625 C 3.609375 -6.09375 3.0625 -6.359375 2.375 -6.359375 C 1.1875 -6.359375 0.328125 -5.46875 0.328125 -4.234375 C 0.328125 -3.0625 1.125 -2.25 2.25 -2.25 C 2.84375 -2.25 3.28125 -2.453125 3.671875 -2.9375 C 3.671875 -1.359375 3.171875 -0.484375 2.28125 -0.484375 C 1.734375 -0.484375 1.359375 -0.828125 1.234375 -1.453125 Z M 2.359375 -5.6875 C 3.09375 -5.6875 3.640625 -5.078125 3.640625 -4.25 C 3.640625 -3.46875 3.109375 -2.921875 2.34375 -2.921875 C 1.59375 -2.921875 1.125 -3.453125 1.125 -4.296875 C 1.125 -5.109375 1.640625 -5.6875 2.359375 -5.6875 Z M 2.359375 -5.6875 "/>
</g>
<g id="glyph-1-8">
<path d="M 2.875 -1.546875 L 2.875 0 L 3.65625 0 L 3.65625 -1.546875 L 4.578125 -1.546875 L 4.578125 -2.234375 L 3.65625 -2.234375 L 3.65625 -6.359375 L 3.078125 -6.359375 L 0.25 -2.359375 L 0.25 -1.546875 Z M 2.875 -2.234375 L 0.921875 -2.234375 L 2.875 -5.046875 Z M 2.875 -2.234375 "/>
</g>
<g id="glyph-1-9">
<path d="M 4.453125 -0.765625 L 1.171875 -0.765625 C 1.25 -1.296875 1.53125 -1.625 2.296875 -2.09375 L 3.171875 -2.59375 C 4.046875 -3.0625 4.5 -3.71875 4.5 -4.5 C 4.5 -5.03125 4.28125 -5.53125 3.921875 -5.875 C 3.546875 -6.203125 3.09375 -6.359375 2.5 -6.359375 C 1.703125 -6.359375 1.125 -6.078125 0.78125 -5.53125 C 0.546875 -5.203125 0.453125 -4.796875 0.4375 -4.15625 L 1.21875 -4.15625 C 1.234375 -4.59375 1.296875 -4.84375 1.40625 -5.0625 C 1.59375 -5.4375 2 -5.6875 2.46875 -5.6875 C 3.171875 -5.6875 3.703125 -5.171875 3.703125 -4.484375 C 3.703125 -3.96875 3.40625 -3.53125 2.859375 -3.21875 L 2.046875 -2.75 C 0.75 -2 0.375 -1.40625 0.296875 -0.015625 L 4.453125 -0.015625 Z M 4.453125 -0.765625 "/>
</g>
<g id="glyph-2-0">
<path d="M 2.03125 -3.40625 L 4.546875 -3.40625 C 5.171875 -3.40625 5.671875 -3.59375 6.09375 -3.96875 C 6.578125 -4.40625 6.78125 -4.921875 6.78125 -5.671875 C 6.78125 -7.171875 5.890625 -8.015625 4.3125 -8.015625 L 1 -8.015625 L 1 0 L 2.03125 0 Z M 2.03125 -4.296875 L 2.03125 -7.109375 L 4.15625 -7.109375 C 5.140625 -7.109375 5.71875 -6.59375 5.71875 -5.703125 C 5.71875 -4.828125 5.140625 -4.296875 4.15625 -4.296875 Z M 2.03125 -4.296875 "/>
</g>
<g id="glyph-2-1">
<path d="M 7.28125 -5.53125 C 6.96875 -7.296875 5.953125 -8.15625 4.1875 -8.15625 C 3.109375 -8.15625 2.25 -7.8125 1.65625 -7.15625 C 0.921875 -6.359375 0.53125 -5.21875 0.53125 -3.921875 C 0.53125 -2.59375 0.9375 -1.46875 1.6875 -0.6875 C 2.3125 -0.046875 3.109375 0.25 4.140625 0.25 C 6.109375 0.25 7.203125 -0.796875 7.453125 -2.921875 L 6.390625 -2.921875 C 6.296875 -2.375 6.1875 -2 6.03125 -1.6875 C 5.703125 -1.015625 5.015625 -0.65625 4.15625 -0.65625 C 2.5625 -0.65625 1.546875 -1.921875 1.546875 -3.921875 C 1.546875 -5.984375 2.515625 -7.25 4.0625 -7.25 C 4.71875 -7.25 5.328125 -7.0625 5.65625 -6.75 C 5.953125 -6.46875 6.109375 -6.140625 6.234375 -5.53125 Z M 7.28125 -5.53125 "/>
</g>
<g id="glyph-2-2">
<path d="M 2.84375 -5.671875 L 2.84375 0 L 3.8125 0 L 3.8125 -7.953125 L 3.171875 -7.953125 C 2.84375 -6.734375 2.625 -6.5625 1.125 -6.375 L 1.125 -5.671875 Z M 2.84375 -5.671875 "/>
</g>
<g id="glyph-3-0">
<path d="M 0 -5.140625 L -6.71875 -7.40625 L 0 -7.40625 L 0 -8.375 L -8.015625 -8.375 L -8.015625 -6.953125 L -1.03125 -4.625 L -8.015625 -2.25 L -8.015625 -0.828125 L 0 -0.828125 L 0 -1.796875 L -6.71875 -1.796875 L 0 -4.0625 Z M 0 -5.140625 "/>
</g>
<g id="glyph-3-1">
<path d="M -2.578125 -5.640625 C -3.453125 -5.640625 -3.984375 -5.578125 -4.40625 -5.40625 C -5.359375 -5.03125 -5.921875 -4.15625 -5.921875 -3.078125 C -5.921875 -1.46875 -4.703125 -0.4375 -2.8125 -0.4375 C -0.90625 -0.4375 0.25 -1.4375 0.25 -3.0625 C 0.25 -4.375 -0.5 -5.296875 -1.75 -5.515625 L -1.75 -4.59375 C -0.984375 -4.34375 -0.59375 -3.828125 -0.59375 -3.09375 C -0.59375 -2.515625 -0.859375 -2.015625 -1.34375 -1.703125 C -1.671875 -1.484375 -2 -1.40625 -2.578125 -1.390625 Z M -3.328125 -1.421875 C -4.390625 -1.5 -5.078125 -2.140625 -5.078125 -3.0625 C -5.078125 -4 -4.359375 -4.65625 -3.328125 -4.65625 Z M -3.328125 -1.421875 "/>
</g>
<g id="glyph-3-2">
<path d="M -0.53125 -5.890625 C -0.515625 -5.78125 -0.515625 -5.734375 -0.515625 -5.6875 C -0.515625 -5.375 -0.6875 -5.1875 -0.96875 -5.1875 L -4.359375 -5.1875 C -5.375 -5.1875 -5.921875 -4.4375 -5.921875 -3.03125 C -5.921875 -2.171875 -5.6875 -1.5 -5.265625 -1.109375 C -4.96875 -0.84375 -4.625 -0.734375 -4.0625 -0.71875 L -4.0625 -1.640625 C -4.765625 -1.71875 -5.078125 -2.140625 -5.078125 -2.984375 C -5.078125 -3.828125 -4.78125 -4.28125 -4.21875 -4.28125 L -3.984375 -4.28125 C -3.59375 -4.265625 -3.4375 -4.0625 -3.34375 -3.328125 C -3.171875 -2.03125 -3.140625 -1.828125 -2.984375 -1.46875 C -2.703125 -0.796875 -2.203125 -0.46875 -1.453125 -0.46875 C -0.40625 -0.46875 0.25 -1.1875 0.25 -2.359375 C 0.25 -3.078125 0 -3.65625 -0.59375 -4.3125 C 0 -4.375 0.25 -4.65625 0.25 -5.265625 C 0.25 -5.453125 0.234375 -5.578125 0.15625 -5.890625 Z M -1.8125 -4.28125 C -1.5 -4.28125 -1.3125 -4.1875 -1.0625 -3.921875 C -0.71875 -3.546875 -0.546875 -3.09375 -0.546875 -2.546875 C -0.546875 -1.84375 -0.890625 -1.421875 -1.46875 -1.421875 C -2.078125 -1.421875 -2.390625 -1.8125 -2.53125 -2.8125 C -2.65625 -3.78125 -2.703125 -3.96875 -2.84375 -4.28125 Z M -1.8125 -4.28125 "/>
</g>
<g id="glyph-3-3">
<path d="M -5.765625 -0.765625 L 0 -0.765625 L 0 -1.6875 L -3.171875 -1.6875 C -4.359375 -1.6875 -5.125 -2.3125 -5.125 -3.25 C -5.125 -3.984375 -4.6875 -4.4375 -4 -4.4375 L 0 -4.4375 L 0 -5.359375 L -4.359375 -5.359375 C -5.3125 -5.359375 -5.921875 -4.640625 -5.921875 -3.53125 C -5.921875 -2.671875 -5.59375 -2.125 -4.796875 -1.609375 L -5.765625 -1.609375 Z M -5.765625 -0.765625 "/>
</g>
<g id="glyph-4-0">
<path d="M 0 5.140625 L 6.71875 7.40625 L 0 7.40625 L 0 8.375 L 8.015625 8.375 L 8.015625 6.953125 L 1.03125 4.625 L 8.015625 2.25 L 8.015625 0.828125 L 0 0.828125 L 0 1.796875 L 6.71875 1.796875 L 0 4.0625 Z M 0 5.140625 "/>
</g>
<g id="glyph-4-1">
<path d="M 2.578125 5.640625 C 3.453125 5.640625 3.984375 5.578125 4.40625 5.40625 C 5.359375 5.03125 5.921875 4.15625 5.921875 3.078125 C 5.921875 1.46875 4.703125 0.4375 2.8125 0.4375 C 0.90625 0.4375 -0.25 1.4375 -0.25 3.0625 C -0.25 4.375 0.5 5.296875 1.75 5.515625 L 1.75 4.59375 C 0.984375 4.34375 0.59375 3.828125 0.59375 3.09375 C 0.59375 2.515625 0.859375 2.015625 1.34375 1.703125 C 1.671875 1.484375 2 1.40625 2.578125 1.390625 Z M 3.328125 1.421875 C 4.390625 1.5 5.078125 2.140625 5.078125 3.0625 C 5.078125 4 4.359375 4.65625 3.328125 4.65625 Z M 3.328125 1.421875 "/>
</g>
<g id="glyph-4-2">
<path d="M 0.53125 5.890625 C 0.515625 5.78125 0.515625 5.734375 0.515625 5.6875 C 0.515625 5.375 0.6875 5.1875 0.96875 5.1875 L 4.359375 5.1875 C 5.375 5.1875 5.921875 4.4375 5.921875 3.03125 C 5.921875 2.171875 5.6875 1.5 5.265625 1.109375 C 4.96875 0.84375 4.625 0.734375 4.0625 0.71875 L 4.0625 1.640625 C 4.765625 1.71875 5.078125 2.140625 5.078125 2.984375 C 5.078125 3.828125 4.78125 4.28125 4.21875 4.28125 L 3.984375 4.28125 C 3.59375 4.265625 3.4375 4.0625 3.34375 3.328125 C 3.171875 2.03125 3.140625 1.828125 2.984375 1.46875 C 2.703125 0.796875 2.203125 0.46875 1.453125 0.46875 C 0.40625 0.46875 -0.25 1.1875 -0.25 2.359375 C -0.25 3.078125 0 3.65625 0.59375 4.3125 C 0 4.375 -0.25 4.65625 -0.25 5.265625 C -0.25 5.453125 -0.234375 5.578125 -0.15625 5.890625 Z M 1.8125 4.28125 C 1.5 4.28125 1.3125 4.1875 1.0625 3.921875 C 0.71875 3.546875 0.546875 3.09375 0.546875 2.546875 C 0.546875 1.84375 0.890625 1.421875 1.46875 1.421875 C 2.078125 1.421875 2.390625 1.8125 2.53125 2.8125 C 2.65625 3.78125 2.703125 3.96875 2.84375 4.28125 Z M 1.8125 4.28125 "/>
</g>
<g id="glyph-4-3">
<path d="M 5.765625 0.765625 L 0 0.765625 L 0 1.6875 L 3.171875 1.6875 C 4.359375 1.6875 5.125 2.3125 5.125 3.25 C 5.125 3.984375 4.6875 4.4375 4 4.4375 L 0 4.4375 L 0 5.359375 L 4.359375 5.359375 C 5.3125 5.359375 5.921875 4.640625 5.921875 3.53125 C 5.921875 2.671875 5.59375 2.125 4.796875 1.609375 L 5.765625 1.609375 Z M 5.765625 0.765625 "/>
</g>
</g>
<clipPath id="clip-0">
<path clip-rule="nonzero" d="M 45.585938 31.902344 L 458.414062 31.902344 L 458.414062 328.101562 L 45.585938 328.101562 Z M 45.585938 31.902344 "/>
</clipPath>
<clipPath id="clip-1">
<path clip-rule="nonzero" d="M 45.585938 300 L 458.414062 300 L 458.414062 301 L 45.585938 301 Z M 45.585938 300 "/>
</clipPath>
<clipPath id="clip-2">
<path clip-rule="nonzero" d="M 45.585938 225 L 458.414062 225 L 458.414062 227 L 45.585938 227 Z M 45.585938 225 "/>
</clipPath>
<clipPath id="clip-3">
<path clip-rule="nonzero" d="M 45.585938 151 L 458.414062 151 L 458.414062 153 L 45.585938 153 Z M 45.585938 151 "/>
</clipPath>
<clipPath id="clip-4">
<path clip-rule="nonzero" d="M 45.585938 77 L 458.414062 77 L 458.414062 78 L 45.585938 78 Z M 45.585938 77 "/>
</clipPath>
<clipPath id="clip-5">
<path clip-rule="nonzero" d="M 67 31.902344 L 69 31.902344 L 69 328.101562 L 67 328.101562 Z M 67 31.902344 "/>
</clipPath>
<clipPath id="clip-6">
<path clip-rule="nonzero" d="M 136 31.902344 L 138 31.902344 L 138 328.101562 L 136 328.101562 Z M 136 31.902344 "/>
</clipPath>
<clipPath id="clip-7">
<path clip-rule="nonzero" d="M 205 31.902344 L 207 31.902344 L 207 328.101562 L 205 328.101562 Z M 205 31.902344 "/>
</clipPath>
<clipPath id="clip-8">
<path clip-rule="nonzero" d="M 274 31.902344 L 276 31.902344 L 276 328.101562 L 274 328.101562 Z M 274 31.902344 "/>
</clipPath>
<clipPath id="clip-9">
<path clip-rule="nonzero" d="M 343 31.902344 L 345 31.902344 L 345 328.101562 L 343 328.101562 Z M 343 31.902344 "/>
</clipPath>
<clipPath id="clip-10">
<path clip-rule="nonzero" d="M 412 31.902344 L 414 31.902344 L 414 328.101562 L 412 328.101562 Z M 412 31.902344 "/>
</clipPath>
<clipPath id="clip-11">
<path clip-rule="nonzero" d="M 45.585938 262 L 458.414062 262 L 458.414062 264 L 45.585938 264 Z M 45.585938 262 "/>
</clipPath>
<clipPath id="clip-12">
<path clip-rule="nonzero" d="M 45.585938 188 L 458.414062 188 L 458.414062 190 L 45.585938 190 Z M 45.585938 188 "/>
</clipPath>
<clipPath id="clip-13">
<path clip-rule="nonzero" d="M 45.585938 114 L 458.414062 114 L 458.414062 116 L 45.585938 116 Z M 45.585938 114 "/>
</clipPath>
<clipPath id="clip-14">
<path clip-rule="nonzero" d="M 45.585938 40 L 458.414062 40 L 458.414062 42 L 45.585938 42 Z M 45.585938 40 "/>
</clipPath>
<clipPath id="clip-15">
<path clip-rule="nonzero" d="M 102 31.902344 L 104 31.902344 L 104 328.101562 L 102 328.101562 Z M 102 31.902344 "/>
</clipPath>
<clipPath id="clip-16">
<path clip-rule="nonzero" d="M 171 31.902344 L 173 31.902344 L 173 328.101562 L 171 328.101562 Z M 171 31.902344 "/>
</clipPath>
<clipPath id="clip-17">
<path clip-rule="nonzero" d="M 239 31.902344 L 242 31.902344 L 242 328.101562 L 239 328.101562 Z M 239 31.902344 "/>
</clipPath>
<clipPath id="clip-18">
<path clip-rule="nonzero" d="M 308 31.902344 L 310 31.902344 L 310 328.101562 L 308 328.101562 Z M 308 31.902344 "/>
</clipPath>
<clipPath id="clip-19">
<path clip-rule="nonzero" d="M 377 31.902344 L 379 31.902344 L 379 328.101562 L 377 328.101562 Z M 377 31.902344 "/>
</clipPath>
<clipPath id="clip-20">
<path clip-rule="nonzero" d="M 446 31.902344 L 448 31.902344 L 448 328.101562 L 446 328.101562 Z M 446 31.902344 "/>
</clipPath>
<clipPath id="clip-21">
<path clip-rule="nonzero" d="M 239 31.902344 L 242 31.902344 L 242 328.101562 L 239 328.101562 Z M 239 31.902344 "/>
</clipPath>
<clipPath id="clip-22">
<path clip-rule="nonzero" d="M 45.585938 148 L 458.414062 148 L 458.414062 150 L 45.585938 150 Z M 45.585938 148 "/>
</clipPath>
<clipPath id="clip-23">
<path clip-rule="nonzero" d="M 45.585938 31.902344 L 458.414062 31.902344 L 458.414062 328.101562 L 45.585938 328.101562 Z M 45.585938 31.902344 "/>
</clipPath>
</defs>
<rect x="-50.4" y="-36" width="604.8" height="432" fill="rgb(100%, 100%, 100%)" fill-opacity="1"/>
<rect x="-50.4" y="-36" width="604.8" height="432" fill="rgb(100%, 100%, 100%)" fill-opacity="1"/>
<path fill="none" stroke-width="1.066978" stroke-linecap="round" stroke-linejoin="round" stroke="rgb(100%, 100%, 100%)" stroke-opacity="1" stroke-miterlimit="10" d="M 0 360 L 504 360 L 504 0 L 0 0 Z M 0 360 "/>
<g clip-path="url(#clip-0)">
<path fill-rule="nonzero" fill="rgb(100%, 100%, 100%)" fill-opacity="1" d="M 45.585938 328.097656 L 458.414062 328.097656 L 458.414062 31.898438 L 45.585938 31.898438 Z M 45.585938 328.097656 "/>
</g>
<g clip-path="url(#clip-1)">
<path fill="none" stroke-width="0.533489" stroke-linecap="butt" stroke-linejoin="round" stroke="rgb(92.156863%, 92.156863%, 92.156863%)" stroke-opacity="1" stroke-miterlimit="10" d="M 45.585938 300.335938 L 458.414062 300.335938 "/>
</g>
<g clip-path="url(#clip-2)">
<path fill="none" stroke-width="0.533489" stroke-linecap="butt" stroke-linejoin="round" stroke="rgb(92.156863%, 92.156863%, 92.156863%)" stroke-opacity="1" stroke-miterlimit="10" d="M 45.585938 226.132812 L 458.414062 226.132812 "/>
</g>
<g clip-path="url(#clip-3)">
<path fill="none" stroke-width="0.533489" stroke-linecap="butt" stroke-linejoin="round" stroke="rgb(92.156863%, 92.156863%, 92.156863%)" stroke-opacity="1" stroke-miterlimit="10" d="M 45.585938 151.933594 L 458.414062 151.933594 "/>
</g>
<g clip-path="url(#clip-4)">
<path fill="none" stroke-width="0.533489" stroke-linecap="butt" stroke-linejoin="round" stroke="rgb(92.156863%, 92.156863%, 92.156863%)" stroke-opacity="1" stroke-miterlimit="10" d="M 45.585938 77.730469 L 458.414062 77.730469 "/>
</g>
<g clip-path="url(#clip-5)">
<path fill="none" stroke-width="0.533489" stroke-linecap="butt" stroke-linejoin="round" stroke="rgb(92.156863%, 92.156863%, 92.156863%)" stroke-opacity="1" stroke-miterlimit="10" d="M 68.1875 328.097656 L 68.1875 31.902344 "/>
</g>
<g clip-path="url(#clip-6)">
<path fill="none" stroke-width="0.533489" stroke-linecap="butt" stroke-linejoin="round" stroke="rgb(92.156863%, 92.156863%, 92.156863%)" stroke-opacity="1" stroke-miterlimit="10" d="M 137.125 328.097656 L 137.125 31.902344 "/>
</g>
<g clip-path="url(#clip-7)">
<path fill="none" stroke-width="0.533489" stroke-linecap="butt" stroke-linejoin="round" stroke="rgb(92.156863%, 92.156863%, 92.156863%)" stroke-opacity="1" stroke-miterlimit="10" d="M 206.058594 328.097656 L 206.058594 31.902344 "/>
</g>
<g clip-path="url(#clip-8)">
<path fill="none" stroke-width="0.533489" stroke-linecap="butt" stroke-linejoin="round" stroke="rgb(92.156863%, 92.156863%, 92.156863%)" stroke-opacity="1" stroke-miterlimit="10" d="M 274.992188 328.097656 L 274.992188 31.902344 "/>
</g>
<g clip-path="url(#clip-9)">
<path fill="none" stroke-width="0.533489" stroke-linecap="butt" stroke-linejoin="round" stroke="rgb(92.156863%, 92.156863%, 92.156863%)" stroke-opacity="1" stroke-miterlimit="10" d="M 343.925781 328.097656 L 343.925781 31.902344 "/>
</g>
<g clip-path="url(#clip-10)">
<path fill="none" stroke-width="0.533489" stroke-linecap="butt" stroke-linejoin="round" stroke="rgb(92.156863%, 92.156863%, 92.156863%)" stroke-opacity="1" stroke-miterlimit="10" d="M 412.859375 328.097656 L 412.859375 31.902344 "/>
</g>
<g clip-path="url(#clip-11)">
<path fill="none" stroke-width="1.066978" stroke-linecap="butt" stroke-linejoin="round" stroke="rgb(92.156863%, 92.156863%, 92.156863%)" stroke-opacity="1" stroke-miterlimit="10" d="M 45.585938 263.234375 L 458.414062 263.234375 "/>
</g>
<g clip-path="url(#clip-12)">
<path fill="none" stroke-width="1.066978" stroke-linecap="butt" stroke-linejoin="round" stroke="rgb(92.156863%, 92.156863%, 92.156863%)" stroke-opacity="1" stroke-miterlimit="10" d="M 45.585938 189.035156 L 458.414062 189.035156 "/>
</g>
<g clip-path="url(#clip-13)">
<path fill="none" stroke-width="1.066978" stroke-linecap="butt" stroke-linejoin="round" stroke="rgb(92.156863%, 92.156863%, 92.156863%)" stroke-opacity="1" stroke-miterlimit="10" d="M 45.585938 114.832031 L 458.414062 114.832031 "/>
</g>
<g clip-path="url(#clip-14)">
<path fill="none" stroke-width="1.066978" stroke-linecap="butt" stroke-linejoin="round" stroke="rgb(92.156863%, 92.156863%, 92.156863%)" stroke-opacity="1" stroke-miterlimit="10" d="M 45.585938 40.632812 L 458.414062 40.632812 "/>
</g>
<g clip-path="url(#clip-15)">
<path fill="none" stroke-width="1.066978" stroke-linecap="butt" stroke-linejoin="round" stroke="rgb(92.156863%, 92.156863%, 92.156863%)" stroke-opacity="1" stroke-miterlimit="10" d="M 102.65625 328.097656 L 102.65625 31.902344 "/>
</g>
<g clip-path="url(#clip-16)">
<path fill="none" stroke-width="1.066978" stroke-linecap="butt" stroke-linejoin="round" stroke="rgb(92.156863%, 92.156863%, 92.156863%)" stroke-opacity="1" stroke-miterlimit="10" d="M 171.589844 328.097656 L 171.589844 31.902344 "/>
</g>
<g clip-path="url(#clip-17)">
<path fill="none" stroke-width="1.066978" stroke-linecap="butt" stroke-linejoin="round" stroke="rgb(92.156863%, 92.156863%, 92.156863%)" stroke-opacity="1" stroke-miterlimit="10" d="M 240.523438 328.097656 L 240.523438 31.902344 "/>
</g>
<g clip-path="url(#clip-18)">
<path fill="none" stroke-width="1.066978" stroke-linecap="butt" stroke-linejoin="round" stroke="rgb(92.156863%, 92.156863%, 92.156863%)" stroke-opacity="1" stroke-miterlimit="10" d="M 309.460938 328.097656 L 309.460938 31.902344 "/>
</g>
<g clip-path="url(#clip-19)">
<path fill="none" stroke-width="1.066978" stroke-linecap="butt" stroke-linejoin="round" stroke="rgb(92.156863%, 92.156863%, 92.156863%)" stroke-opacity="1" stroke-miterlimit="10" d="M 378.394531 328.097656 L 378.394531 31.902344 "/>
</g>
<g clip-path="url(#clip-20)">
<path fill="none" stroke-width="1.066978" stroke-linecap="butt" stroke-linejoin="round" stroke="rgb(92.156863%, 92.156863%, 92.156863%)" stroke-opacity="1" stroke-miterlimit="10" d="M 447.328125 328.097656 L 447.328125 31.902344 "/>
</g>
<path fill-rule="nonzero" fill="rgb(0%, 0%, 0%)" fill-opacity="1" stroke-width="0.708661" stroke-linecap="round" stroke-linejoin="round" stroke="rgb(0%, 0%, 0%)" stroke-opacity="1" stroke-miterlimit="10" d="M 197.964844 103.085938 C 197.964844 105.691406 194.054688 105.691406 194.054688 103.085938 C 194.054688 100.476562 197.964844 100.476562 197.964844 103.085938 "/>
<path fill-rule="nonzero" fill="rgb(0%, 0%, 0%)" fill-opacity="1" stroke-width="0.708661" stroke-linecap="round" stroke-linejoin="round" stroke="rgb(0%, 0%, 0%)" stroke-opacity="1" stroke-miterlimit="10" d="M 322.605469 148.875 C 322.605469 151.480469 318.695312 151.480469 318.695312 148.875 C 318.695312 146.269531 322.605469 146.269531 322.605469 148.875 "/>
<path fill-rule="nonzero" fill="rgb(0%, 0%, 0%)" fill-opacity="1" stroke-width="0.708661" stroke-linecap="round" stroke-linejoin="round" stroke="rgb(0%, 0%, 0%)" stroke-opacity="1" stroke-miterlimit="10" d="M 217.097656 100.339844 C 217.097656 102.949219 213.1875 102.949219 213.1875 100.339844 C 213.1875 97.734375 217.097656 97.734375 217.097656 100.339844 "/>
<path fill-rule="nonzero" fill="rgb(0%, 0%, 0%)" fill-opacity="1" stroke-width="0.708661" stroke-linecap="round" stroke-linejoin="round" stroke="rgb(0%, 0%, 0%)" stroke-opacity="1" stroke-miterlimit="10" d="M 429.542969 61.800781 C 429.542969 64.40625 425.632812 64.40625 425.632812 61.800781 C 425.632812 59.195312 429.542969 59.195312 429.542969 61.800781 "/>
<path fill-rule="nonzero" fill="rgb(0%, 0%, 0%)" fill-opacity="1" stroke-width="0.708661" stroke-linecap="round" stroke-linejoin="round" stroke="rgb(0%, 0%, 0%)" stroke-opacity="1" stroke-miterlimit="10" d="M 168.9375 150.144531 C 168.9375 152.75 165.027344 152.75 165.027344 150.144531 C 165.027344 147.539062 168.9375 147.539062 168.9375 150.144531 "/>
<path fill-rule="nonzero" fill="rgb(0%, 0%, 0%)" fill-opacity="1" stroke-width="0.708661" stroke-linecap="round" stroke-linejoin="round" stroke="rgb(0%, 0%, 0%)" stroke-opacity="1" stroke-miterlimit="10" d="M 154.578125 165.433594 C 154.578125 168.042969 150.667969 168.042969 150.667969 165.433594 C 150.667969 162.828125 154.578125 162.828125 154.578125 165.433594 "/>
<path fill-rule="nonzero" fill="rgb(0%, 0%, 0%)" fill-opacity="1" stroke-width="0.708661" stroke-linecap="round" stroke-linejoin="round" stroke="rgb(0%, 0%, 0%)" stroke-opacity="1" stroke-miterlimit="10" d="M 199.765625 178.410156 C 199.765625 181.015625 195.855469 181.015625 195.855469 178.410156 C 195.855469 175.804688 199.765625 175.804688 199.765625 178.410156 "/>
<path fill-rule="nonzero" fill="rgb(0%, 0%, 0%)" fill-opacity="1" stroke-width="0.708661" stroke-linecap="round" stroke-linejoin="round" stroke="rgb(0%, 0%, 0%)" stroke-opacity="1" stroke-miterlimit="10" d="M 263.691406 207.574219 C 263.691406 210.179688 259.78125 210.179688 259.78125 207.574219 C 259.78125 204.964844 263.691406 204.964844 263.691406 207.574219 "/>
<path fill-rule="nonzero" fill="rgb(0%, 0%, 0%)" fill-opacity="1" stroke-width="0.708661" stroke-linecap="round" stroke-linejoin="round" stroke="rgb(0%, 0%, 0%)" stroke-opacity="1" stroke-miterlimit="10" d="M 257.136719 146.367188 C 257.136719 148.972656 253.226562 148.972656 253.226562 146.367188 C 253.226562 143.761719 257.136719 143.761719 257.136719 146.367188 "/>
<path fill-rule="nonzero" fill="rgb(0%, 0%, 0%)" fill-opacity="1" stroke-width="0.708661" stroke-linecap="round" stroke-linejoin="round" stroke="rgb(0%, 0%, 0%)" stroke-opacity="1" stroke-miterlimit="10" d="M 331.414062 215.78125 C 331.414062 218.386719 327.503906 218.386719 327.503906 215.78125 C 327.503906 213.171875 331.414062 213.171875 331.414062 215.78125 "/>
<path fill-rule="nonzero" fill="rgb(0%, 0%, 0%)" fill-opacity="1" stroke-width="0.708661" stroke-linecap="round" stroke-linejoin="round" stroke="rgb(0%, 0%, 0%)" stroke-opacity="1" stroke-miterlimit="10" d="M 299.339844 189.988281 C 299.339844 192.59375 295.433594 192.59375 295.433594 189.988281 C 295.433594 187.382812 299.339844 187.382812 299.339844 189.988281 "/>
<path fill-rule="nonzero" fill="rgb(0%, 0%, 0%)" fill-opacity="1" stroke-width="0.708661" stroke-linecap="round" stroke-linejoin="round" stroke="rgb(0%, 0%, 0%)" stroke-opacity="1" stroke-miterlimit="10" d="M 159.140625 108.042969 C 159.140625 110.648438 155.230469 110.648438 155.230469 108.042969 C 155.230469 105.4375 159.140625 105.4375 159.140625 108.042969 "/>
<path fill-rule="nonzero" fill="rgb(0%, 0%, 0%)" fill-opacity="1" stroke-width="0.708661" stroke-linecap="round" stroke-linejoin="round" stroke="rgb(0%, 0%, 0%)" stroke-opacity="1" stroke-miterlimit="10" d="M 171.464844 260.1875 C 171.464844 262.792969 167.554688 262.792969 167.554688 260.1875 C 167.554688 257.582031 171.464844 257.582031 171.464844 260.1875 "/>
<path fill-rule="nonzero" fill="rgb(0%, 0%, 0%)" fill-opacity="1" stroke-width="0.708661" stroke-linecap="round" stroke-linejoin="round" stroke="rgb(0%, 0%, 0%)" stroke-opacity="1" stroke-miterlimit="10" d="M 201.472656 153.160156 C 201.472656 155.765625 197.5625 155.765625 197.5625 153.160156 C 197.5625 150.550781 201.472656 150.550781 201.472656 153.160156 "/>
<path fill-rule="nonzero" fill="rgb(0%, 0%, 0%)" fill-opacity="1" stroke-width="0.708661" stroke-linecap="round" stroke-linejoin="round" stroke="rgb(0%, 0%, 0%)" stroke-opacity="1" stroke-miterlimit="10" d="M 66.304688 179.996094 C 66.304688 182.601562 62.394531 182.601562 62.394531 179.996094 C 62.394531 177.386719 66.304688 177.386719 66.304688 179.996094 "/>
<path fill-rule="nonzero" fill="rgb(0%, 0%, 0%)" fill-opacity="1" stroke-width="0.708661" stroke-linecap="round" stroke-linejoin="round" stroke="rgb(0%, 0%, 0%)" stroke-opacity="1" stroke-miterlimit="10" d="M 171.050781 117.585938 C 171.050781 120.195312 167.140625 120.195312 167.140625 117.585938 C 167.140625 114.980469 171.050781 114.980469 171.050781 117.585938 "/>
<path fill-rule="nonzero" fill="rgb(0%, 0%, 0%)" fill-opacity="1" stroke-width="0.708661" stroke-linecap="round" stroke-linejoin="round" stroke="rgb(0%, 0%, 0%)" stroke-opacity="1" stroke-miterlimit="10" d="M 162.597656 257.546875 C 162.597656 260.152344 158.6875 260.152344 158.6875 257.546875 C 158.6875 254.9375 162.597656 254.9375 162.597656 257.546875 "/>
<path fill-rule="nonzero" fill="rgb(0%, 0%, 0%)" fill-opacity="1" stroke-width="0.708661" stroke-linecap="round" stroke-linejoin="round" stroke="rgb(0%, 0%, 0%)" stroke-opacity="1" stroke-miterlimit="10" d="M 166.417969 203.984375 C 166.417969 206.59375 162.507812 206.59375 162.507812 203.984375 C 162.507812 201.378906 166.417969 201.378906 166.417969 203.984375 "/>
<path fill-rule="nonzero" fill="rgb(0%, 0%, 0%)" fill-opacity="1" stroke-width="0.708661" stroke-linecap="round" stroke-linejoin="round" stroke="rgb(0%, 0%, 0%)" stroke-opacity="1" stroke-miterlimit="10" d="M 314.789062 153.070312 C 314.789062 155.675781 310.882812 155.675781 310.882812 153.070312 C 310.882812 150.460938 314.789062 150.460938 314.789062 153.070312 "/>
<path fill-rule="nonzero" fill="rgb(0%, 0%, 0%)" fill-opacity="1" stroke-width="0.708661" stroke-linecap="round" stroke-linejoin="round" stroke="rgb(0%, 0%, 0%)" stroke-opacity="1" stroke-miterlimit="10" d="M 371.453125 45.363281 C 371.453125 47.972656 367.542969 47.972656 367.542969 45.363281 C 367.542969 42.757812 371.453125 42.757812 371.453125 45.363281 "/>
<path fill-rule="nonzero" fill="rgb(0%, 0%, 0%)" fill-opacity="1" stroke-width="0.708661" stroke-linecap="round" stroke-linejoin="round" stroke="rgb(0%, 0%, 0%)" stroke-opacity="1" stroke-miterlimit="10" d="M 441.605469 75.113281 C 441.605469 77.71875 437.695312 77.71875 437.695312 75.113281 C 437.695312 72.507812 441.605469 72.507812 441.605469 75.113281 "/>
<path fill-rule="nonzero" fill="rgb(0%, 0%, 0%)" fill-opacity="1" stroke-width="0.708661" stroke-linecap="round" stroke-linejoin="round" stroke="rgb(0%, 0%, 0%)" stroke-opacity="1" stroke-miterlimit="10" d="M 227.171875 194.070312 C 227.171875 196.675781 223.261719 196.675781 223.261719 194.070312 C 223.261719 191.464844 227.171875 191.464844 227.171875 194.070312 "/>
<path fill-rule="nonzero" fill="rgb(0%, 0%, 0%)" fill-opacity="1" stroke-width="0.708661" stroke-linecap="round" stroke-linejoin="round" stroke="rgb(0%, 0%, 0%)" stroke-opacity="1" stroke-miterlimit="10" d="M 372.109375 120.070312 C 372.109375 122.679688 368.199219 122.679688 368.199219 120.070312 C 368.199219 117.464844 372.109375 117.464844 372.109375 120.070312 "/>
<path fill-rule="nonzero" fill="rgb(0%, 0%, 0%)" fill-opacity="1" stroke-width="0.708661" stroke-linecap="round" stroke-linejoin="round" stroke="rgb(0%, 0%, 0%)" stroke-opacity="1" stroke-miterlimit="10" d="M 163.222656 248.347656 C 163.222656 250.957031 159.3125 250.957031 159.3125 248.347656 C 159.3125 245.742188 163.222656 245.742188 163.222656 248.347656 "/>
<path fill-rule="nonzero" fill="rgb(0%, 0%, 0%)" fill-opacity="1" stroke-width="0.708661" stroke-linecap="round" stroke-linejoin="round" stroke="rgb(0%, 0%, 0%)" stroke-opacity="1" stroke-miterlimit="10" d="M 153.480469 202.839844 C 153.480469 205.445312 149.570312 205.445312 149.570312 202.839844 C 149.570312 200.234375 153.480469 200.234375 153.480469 202.839844 "/>
<path fill-rule="nonzero" fill="rgb(0%, 0%, 0%)" fill-opacity="1" stroke-width="0.708661" stroke-linecap="round" stroke-linejoin="round" stroke="rgb(0%, 0%, 0%)" stroke-opacity="1" stroke-miterlimit="10" d="M 257.625 95.011719 C 257.625 97.617188 253.71875 97.617188 253.71875 95.011719 C 253.71875 92.40625 257.625 92.40625 257.625 95.011719 "/>
<path fill-rule="nonzero" fill="rgb(0%, 0%, 0%)" fill-opacity="1" stroke-width="0.708661" stroke-linecap="round" stroke-linejoin="round" stroke="rgb(0%, 0%, 0%)" stroke-opacity="1" stroke-miterlimit="10" d="M 253.878906 103.195312 C 253.878906 105.804688 249.96875 105.804688 249.96875 103.195312 C 249.96875 100.589844 253.878906 100.589844 253.878906 103.195312 "/>
<path fill-rule="nonzero" fill="rgb(0%, 0%, 0%)" fill-opacity="1" stroke-width="0.708661" stroke-linecap="round" stroke-linejoin="round" stroke="rgb(0%, 0%, 0%)" stroke-opacity="1" stroke-miterlimit="10" d="M 242.71875 105.488281 C 242.71875 108.097656 238.808594 108.097656 238.808594 105.488281 C 238.808594 102.882812 242.71875 102.882812 242.71875 105.488281 "/>
<path fill-rule="nonzero" fill="rgb(0%, 0%, 0%)" fill-opacity="1" stroke-width="0.708661" stroke-linecap="round" stroke-linejoin="round" stroke="rgb(0%, 0%, 0%)" stroke-opacity="1" stroke-miterlimit="10" d="M 220.292969 266.5625 C 220.292969 269.167969 216.382812 269.167969 216.382812 266.5625 C 216.382812 263.957031 220.292969 263.957031 220.292969 266.5625 "/>
<path fill-rule="nonzero" fill="rgb(0%, 0%, 0%)" fill-opacity="1" stroke-width="0.708661" stroke-linecap="round" stroke-linejoin="round" stroke="rgb(0%, 0%, 0%)" stroke-opacity="1" stroke-miterlimit="10" d="M 105.855469 194.777344 C 105.855469 197.382812 101.945312 197.382812 101.945312 194.777344 C 101.945312 192.171875 105.855469 192.171875 105.855469 194.777344 "/>
<path fill-rule="nonzero" fill="rgb(0%, 0%, 0%)" fill-opacity="1" stroke-width="0.708661" stroke-linecap="round" stroke-linejoin="round" stroke="rgb(0%, 0%, 0%)" stroke-opacity="1" stroke-miterlimit="10" d="M 198.9375 159.128906 C 198.9375 161.734375 195.03125 161.734375 195.03125 159.128906 C 195.03125 156.523438 198.9375 156.523438 198.9375 159.128906 "/>
<path fill-rule="nonzero" fill="rgb(0%, 0%, 0%)" fill-opacity="1" stroke-width="0.708661" stroke-linecap="round" stroke-linejoin="round" stroke="rgb(0%, 0%, 0%)" stroke-opacity="1" stroke-miterlimit="10" d="M 162.753906 194.441406 C 162.753906 197.046875 158.84375 197.046875 158.84375 194.441406 C 158.84375 191.835938 162.753906 191.835938 162.753906 194.441406 "/>
<path fill-rule="nonzero" fill="rgb(0%, 0%, 0%)" fill-opacity="1" stroke-width="0.708661" stroke-linecap="round" stroke-linejoin="round" stroke="rgb(0%, 0%, 0%)" stroke-opacity="1" stroke-miterlimit="10" d="M 257.765625 137.890625 C 257.765625 140.496094 253.855469 140.496094 253.855469 137.890625 C 253.855469 135.285156 257.765625 135.285156 257.765625 137.890625 "/>
<path fill-rule="nonzero" fill="rgb(0%, 0%, 0%)" fill-opacity="1" stroke-width="0.708661" stroke-linecap="round" stroke-linejoin="round" stroke="rgb(0%, 0%, 0%)" stroke-opacity="1" stroke-miterlimit="10" d="M 314.128906 85.277344 C 314.128906 87.882812 310.21875 87.882812 310.21875 85.277344 C 310.21875 82.667969 314.128906 82.667969 314.128906 85.277344 "/>
<path fill-rule="nonzero" fill="rgb(0%, 0%, 0%)" fill-opacity="1" stroke-width="0.708661" stroke-linecap="round" stroke-linejoin="round" stroke="rgb(0%, 0%, 0%)" stroke-opacity="1" stroke-miterlimit="10" d="M 327.667969 104.679688 C 327.667969 107.285156 323.761719 107.285156 323.761719 104.679688 C 323.761719 102.074219 327.667969 102.074219 327.667969 104.679688 "/>
<path fill-rule="nonzero" fill="rgb(0%, 0%, 0%)" fill-opacity="1" stroke-width="0.708661" stroke-linecap="round" stroke-linejoin="round" stroke="rgb(0%, 0%, 0%)" stroke-opacity="1" stroke-miterlimit="10" d="M 275.507812 172.777344 C 275.507812 175.382812 271.597656 175.382812 271.597656 172.777344 C 271.597656 170.171875 275.507812 170.171875 275.507812 172.777344 "/>
<path fill-rule="nonzero" fill="rgb(0%, 0%, 0%)" fill-opacity="1" stroke-width="0.708661" stroke-linecap="round" stroke-linejoin="round" stroke="rgb(0%, 0%, 0%)" stroke-opacity="1" stroke-miterlimit="10" d="M 297.5 103.5 C 297.5 106.105469 293.589844 106.105469 293.589844 103.5 C 293.589844 100.894531 297.5 100.894531 297.5 103.5 "/>
<path fill-rule="nonzero" fill="rgb(0%, 0%, 0%)" fill-opacity="1" stroke-width="0.708661" stroke-linecap="round" stroke-linejoin="round" stroke="rgb(0%, 0%, 0%)" stroke-opacity="1" stroke-miterlimit="10" d="M 190.261719 183.152344 C 190.261719 185.761719 186.355469 185.761719 186.355469 183.152344 C 186.355469 180.546875 190.261719 180.546875 190.261719 183.152344 "/>
<path fill-rule="nonzero" fill="rgb(0%, 0%, 0%)" fill-opacity="1" stroke-width="0.708661" stroke-linecap="round" stroke-linejoin="round" stroke="rgb(0%, 0%, 0%)" stroke-opacity="1" stroke-miterlimit="10" d="M 396.707031 106.972656 C 396.707031 109.582031 392.796875 109.582031 392.796875 106.972656 C 392.796875 104.367188 396.707031 104.367188 396.707031 106.972656 "/>
<path fill-rule="nonzero" fill="rgb(0%, 0%, 0%)" fill-opacity="1" stroke-width="0.708661" stroke-linecap="round" stroke-linejoin="round" stroke="rgb(0%, 0%, 0%)" stroke-opacity="1" stroke-miterlimit="10" d="M 234.128906 54.414062 C 234.128906 57.019531 230.222656 57.019531 230.222656 54.414062 C 230.222656 51.808594 234.128906 51.808594 234.128906 54.414062 "/>
<path fill-rule="nonzero" fill="rgb(0%, 0%, 0%)" fill-opacity="1" stroke-width="0.708661" stroke-linecap="round" stroke-linejoin="round" stroke="rgb(0%, 0%, 0%)" stroke-opacity="1" stroke-miterlimit="10" d="M 229.863281 106.019531 C 229.863281 108.625 225.953125 108.625 225.953125 106.019531 C 225.953125 103.410156 229.863281 103.410156 229.863281 106.019531 "/>
<path fill-rule="nonzero" fill="rgb(0%, 0%, 0%)" fill-opacity="1" stroke-width="0.708661" stroke-linecap="round" stroke-linejoin="round" stroke="rgb(0%, 0%, 0%)" stroke-opacity="1" stroke-miterlimit="10" d="M 243.917969 125.535156 C 243.917969 128.140625 240.007812 128.140625 240.007812 125.535156 C 240.007812 122.929688 243.917969 122.929688 243.917969 125.535156 "/>
<path fill-rule="nonzero" fill="rgb(0%, 0%, 0%)" fill-opacity="1" stroke-width="0.708661" stroke-linecap="round" stroke-linejoin="round" stroke="rgb(0%, 0%, 0%)" stroke-opacity="1" stroke-miterlimit="10" d="M 360.234375 134.945312 C 360.234375 137.550781 356.324219 137.550781 356.324219 134.945312 C 356.324219 132.339844 360.234375 132.339844 360.234375 134.945312 "/>
<path fill-rule="nonzero" fill="rgb(0%, 0%, 0%)" fill-opacity="1" stroke-width="0.708661" stroke-linecap="round" stroke-linejoin="round" stroke="rgb(0%, 0%, 0%)" stroke-opacity="1" stroke-miterlimit="10" d="M 289.277344 103.308594 C 289.277344 105.914062 285.367188 105.914062 285.367188 103.308594 C 285.367188 100.703125 289.277344 100.703125 289.277344 103.308594 "/>
<path fill-rule="nonzero" fill="rgb(0%, 0%, 0%)" fill-opacity="1" stroke-width="0.708661" stroke-linecap="round" stroke-linejoin="round" stroke="rgb(0%, 0%, 0%)" stroke-opacity="1" stroke-miterlimit="10" d="M 264.066406 198.859375 C 264.066406 201.464844 260.160156 201.464844 260.160156 198.859375 C 260.160156 196.253906 264.066406 196.253906 264.066406 198.859375 "/>
<path fill-rule="nonzero" fill="rgb(0%, 0%, 0%)" fill-opacity="1" stroke-width="0.708661" stroke-linecap="round" stroke-linejoin="round" stroke="rgb(0%, 0%, 0%)" stroke-opacity="1" stroke-miterlimit="10" d="M 164.820312 314.636719 C 164.820312 317.242188 160.914062 317.242188 160.914062 314.636719 C 160.914062 312.027344 164.820312 312.027344 164.820312 314.636719 "/>
<path fill-rule="nonzero" fill="rgb(0%, 0%, 0%)" fill-opacity="1" stroke-width="0.708661" stroke-linecap="round" stroke-linejoin="round" stroke="rgb(0%, 0%, 0%)" stroke-opacity="1" stroke-miterlimit="10" d="M 294.417969 172.867188 C 294.417969 175.472656 290.507812 175.472656 290.507812 172.867188 C 290.507812 170.261719 294.417969 170.261719 294.417969 172.867188 "/>
<path fill-rule="nonzero" fill="rgb(0%, 0%, 0%)" fill-opacity="1" stroke-width="0.708661" stroke-linecap="round" stroke-linejoin="round" stroke="rgb(0%, 0%, 0%)" stroke-opacity="1" stroke-miterlimit="10" d="M 288.890625 151.933594 C 288.890625 154.539062 284.980469 154.539062 284.980469 151.933594 C 284.980469 149.328125 288.890625 149.328125 288.890625 151.933594 "/>
<path fill-rule="nonzero" fill="rgb(0%, 0%, 0%)" fill-opacity="1" stroke-width="0.708661" stroke-linecap="round" stroke-linejoin="round" stroke="rgb(0%, 0%, 0%)" stroke-opacity="1" stroke-miterlimit="10" d="M 376.191406 139.453125 C 376.191406 142.058594 372.28125 142.058594 372.28125 139.453125 C 372.28125 136.847656 376.191406 136.847656 376.191406 139.453125 "/>
<path fill-rule="nonzero" fill="rgb(0%, 0%, 0%)" fill-opacity="1" stroke-width="0.708661" stroke-linecap="round" stroke-linejoin="round" stroke="rgb(0%, 0%, 0%)" stroke-opacity="1" stroke-miterlimit="10" d="M 235.707031 130.550781 C 235.707031 133.15625 231.796875 133.15625 231.796875 130.550781 C 231.796875 127.941406 235.707031 127.941406 235.707031 130.550781 "/>
<path fill-rule="nonzero" fill="rgb(0%, 0%, 0%)" fill-opacity="1" stroke-width="0.708661" stroke-linecap="round" stroke-linejoin="round" stroke="rgb(0%, 0%, 0%)" stroke-opacity="1" stroke-miterlimit="10" d="M 203.976562 105.164062 C 203.976562 107.769531 200.066406 107.769531 200.066406 105.164062 C 200.066406 102.558594 203.976562 102.558594 203.976562 105.164062 "/>
<path fill-rule="nonzero" fill="rgb(0%, 0%, 0%)" fill-opacity="1" stroke-width="0.708661" stroke-linecap="round" stroke-linejoin="round" stroke="rgb(0%, 0%, 0%)" stroke-opacity="1" stroke-miterlimit="10" d="M 219.871094 193.363281 C 219.871094 195.96875 215.964844 195.96875 215.964844 193.363281 C 215.964844 190.753906 219.871094 190.753906 219.871094 193.363281 "/>
<path fill-rule="nonzero" fill="rgb(0%, 0%, 0%)" fill-opacity="1" stroke-width="0.708661" stroke-linecap="round" stroke-linejoin="round" stroke="rgb(0%, 0%, 0%)" stroke-opacity="1" stroke-miterlimit="10" d="M 66.683594 129.808594 C 66.683594 132.414062 62.773438 132.414062 62.773438 129.808594 C 62.773438 127.203125 66.683594 127.203125 66.683594 129.808594 "/>
<path fill-rule="nonzero" fill="rgb(0%, 0%, 0%)" fill-opacity="1" stroke-width="0.708661" stroke-linecap="round" stroke-linejoin="round" stroke="rgb(0%, 0%, 0%)" stroke-opacity="1" stroke-miterlimit="10" d="M 240.957031 74.089844 C 240.957031 76.695312 237.046875 76.695312 237.046875 74.089844 C 237.046875 71.484375 240.957031 71.484375 240.957031 74.089844 "/>
<path fill-rule="nonzero" fill="rgb(0%, 0%, 0%)" fill-opacity="1" stroke-width="0.708661" stroke-linecap="round" stroke-linejoin="round" stroke="rgb(0%, 0%, 0%)" stroke-opacity="1" stroke-miterlimit="10" d="M 286.667969 79.699219 C 286.667969 82.304688 282.761719 82.304688 282.761719 79.699219 C 282.761719 77.09375 286.667969 77.09375 286.667969 79.699219 "/>
<path fill-rule="nonzero" fill="rgb(0%, 0%, 0%)" fill-opacity="1" stroke-width="0.708661" stroke-linecap="round" stroke-linejoin="round" stroke="rgb(0%, 0%, 0%)" stroke-opacity="1" stroke-miterlimit="10" d="M 236.925781 49.582031 C 236.925781 52.1875 233.015625 52.1875 233.015625 49.582031 C 233.015625 46.972656 236.925781 46.972656 236.925781 49.582031 "/>
<path fill-rule="nonzero" fill="rgb(0%, 0%, 0%)" fill-opacity="1" stroke-width="0.708661" stroke-linecap="round" stroke-linejoin="round" stroke="rgb(0%, 0%, 0%)" stroke-opacity="1" stroke-miterlimit="10" d="M 209.03125 116.273438 C 209.03125 118.878906 205.121094 118.878906 205.121094 116.273438 C 205.121094 113.664062 209.03125 113.664062 209.03125 116.273438 "/>
<path fill-rule="nonzero" fill="rgb(0%, 0%, 0%)" fill-opacity="1" stroke-width="0.708661" stroke-linecap="round" stroke-linejoin="round" stroke="rgb(0%, 0%, 0%)" stroke-opacity="1" stroke-miterlimit="10" d="M 179.757812 178.960938 C 179.757812 181.566406 175.847656 181.566406 175.847656 178.960938 C 175.847656 176.355469 179.757812 176.355469 179.757812 178.960938 "/>
<path fill-rule="nonzero" fill="rgb(0%, 0%, 0%)" fill-opacity="1" stroke-width="0.708661" stroke-linecap="round" stroke-linejoin="round" stroke="rgb(0%, 0%, 0%)" stroke-opacity="1" stroke-miterlimit="10" d="M 195.679688 222.3125 C 195.679688 224.917969 191.769531 224.917969 191.769531 222.3125 C 191.769531 219.703125 195.679688 219.703125 195.679688 222.3125 "/>
<path fill-rule="nonzero" fill="rgb(0%, 0%, 0%)" fill-opacity="1" stroke-width="0.708661" stroke-linecap="round" stroke-linejoin="round" stroke="rgb(0%, 0%, 0%)" stroke-opacity="1" stroke-miterlimit="10" d="M 241.773438 174.542969 C 241.773438 177.148438 237.863281 177.148438 237.863281 174.542969 C 237.863281 171.933594 241.773438 171.933594 241.773438 174.542969 "/>
<g fill="rgb(0%, 0%, 0%)" fill-opacity="1">
<use xlink:href="#glyph-0-0" x="189.285156" y="109.566406"/>
<use xlink:href="#glyph-0-1" x="194.819217" y="109.566406"/>
<use xlink:href="#glyph-0-2" x="198.77415" y="109.566406"/>
</g>
<g fill="rgb(0%, 0%, 0%)" fill-opacity="1">
<use xlink:href="#glyph-0-0" x="313.929688" y="155.355469"/>
<use xlink:href="#glyph-0-1" x="319.463749" y="155.355469"/>
<use xlink:href="#glyph-0-2" x="323.418682" y="155.355469"/>
</g>
<g fill="rgb(0%, 0%, 0%)" fill-opacity="1">
<use xlink:href="#glyph-0-0" x="208.417969" y="106.824219"/>
<use xlink:href="#glyph-0-1" x="213.95203" y="106.824219"/>
<use xlink:href="#glyph-0-2" x="217.906963" y="106.824219"/>
</g>
<g fill="rgb(0%, 0%, 0%)" fill-opacity="1">
<use xlink:href="#glyph-0-0" x="420.863281" y="68.285156"/>
<use xlink:href="#glyph-0-1" x="426.397342" y="68.285156"/>
<use xlink:href="#glyph-0-2" x="430.352275" y="68.285156"/>
</g>
<g fill="rgb(0%, 0%, 0%)" fill-opacity="1">
<use xlink:href="#glyph-0-0" x="160.261719" y="156.628906"/>
<use xlink:href="#glyph-0-1" x="165.79578" y="156.628906"/>
<use xlink:href="#glyph-0-2" x="169.750713" y="156.628906"/>
</g>
<g fill="rgb(0%, 0%, 0%)" fill-opacity="1">
<use xlink:href="#glyph-0-0" x="145.902344" y="171.917969"/>
<use xlink:href="#glyph-0-1" x="151.436405" y="171.917969"/>
<use xlink:href="#glyph-0-2" x="155.391338" y="171.917969"/>
</g>
<g fill="rgb(0%, 0%, 0%)" fill-opacity="1">
<use xlink:href="#glyph-0-0" x="191.085938" y="184.890625"/>
<use xlink:href="#glyph-0-1" x="196.619999" y="184.890625"/>
<use xlink:href="#glyph-0-2" x="200.574932" y="184.890625"/>
</g>
<g fill="rgb(0%, 0%, 0%)" fill-opacity="1">
<use xlink:href="#glyph-0-0" x="255.011719" y="214.054688"/>
<use xlink:href="#glyph-0-1" x="260.54578" y="214.054688"/>
<use xlink:href="#glyph-0-2" x="264.500713" y="214.054688"/>
</g>
<g fill="rgb(0%, 0%, 0%)" fill-opacity="1">
<use xlink:href="#glyph-0-0" x="248.457031" y="152.851562"/>
<use xlink:href="#glyph-0-1" x="253.991092" y="152.851562"/>
<use xlink:href="#glyph-0-2" x="257.946025" y="152.851562"/>
</g>
<g fill="rgb(0%, 0%, 0%)" fill-opacity="1">
<use xlink:href="#glyph-0-0" x="322.738281" y="222.261719"/>
<use xlink:href="#glyph-0-1" x="328.272342" y="222.261719"/>
<use xlink:href="#glyph-0-2" x="332.227275" y="222.261719"/>
</g>
<g fill="rgb(0%, 0%, 0%)" fill-opacity="1">
<use xlink:href="#glyph-0-0" x="290.664062" y="196.472656"/>
<use xlink:href="#glyph-0-1" x="296.198124" y="196.472656"/>
<use xlink:href="#glyph-0-2" x="300.153057" y="196.472656"/>
</g>
<g fill="rgb(0%, 0%, 0%)" fill-opacity="1">
<use xlink:href="#glyph-0-0" x="150.460938" y="114.523438"/>
<use xlink:href="#glyph-0-1" x="155.994999" y="114.523438"/>
<use xlink:href="#glyph-0-2" x="159.949932" y="114.523438"/>
</g>
<g fill="rgb(0%, 0%, 0%)" fill-opacity="1">
<use xlink:href="#glyph-0-0" x="162.789062" y="266.667969"/>
<use xlink:href="#glyph-0-1" x="168.323124" y="266.667969"/>
<use xlink:href="#glyph-0-2" x="172.278057" y="266.667969"/>
</g>
<g fill="rgb(0%, 0%, 0%)" fill-opacity="1">
<use xlink:href="#glyph-0-0" x="192.796875" y="159.640625"/>
<use xlink:href="#glyph-0-1" x="198.330936" y="159.640625"/>
<use xlink:href="#glyph-0-2" x="202.285869" y="159.640625"/>
</g>
<g fill="rgb(0%, 0%, 0%)" fill-opacity="1">
<use xlink:href="#glyph-0-0" x="57.628906" y="186.476562"/>
<use xlink:href="#glyph-0-1" x="63.162967" y="186.476562"/>
<use xlink:href="#glyph-0-2" x="67.1179" y="186.476562"/>
</g>
<g fill="rgb(0%, 0%, 0%)" fill-opacity="1">
<use xlink:href="#glyph-0-0" x="162.371094" y="124.070312"/>
<use xlink:href="#glyph-0-1" x="167.905155" y="124.070312"/>
<use xlink:href="#glyph-0-2" x="171.860088" y="124.070312"/>
</g>
<g fill="rgb(0%, 0%, 0%)" fill-opacity="1">
<use xlink:href="#glyph-0-0" x="153.917969" y="264.027344"/>
<use xlink:href="#glyph-0-1" x="159.45203" y="264.027344"/>
<use xlink:href="#glyph-0-2" x="163.406963" y="264.027344"/>
</g>
<g fill="rgb(0%, 0%, 0%)" fill-opacity="1">
<use xlink:href="#glyph-0-0" x="157.738281" y="210.46875"/>
<use xlink:href="#glyph-0-1" x="163.272342" y="210.46875"/>
<use xlink:href="#glyph-0-2" x="167.227275" y="210.46875"/>
</g>
<g fill="rgb(0%, 0%, 0%)" fill-opacity="1">
<use xlink:href="#glyph-0-0" x="306.113281" y="159.550781"/>
<use xlink:href="#glyph-0-1" x="311.647342" y="159.550781"/>
<use xlink:href="#glyph-0-2" x="315.602275" y="159.550781"/>
</g>
<g fill="rgb(0%, 0%, 0%)" fill-opacity="1">
<use xlink:href="#glyph-0-0" x="362.777344" y="51.847656"/>
<use xlink:href="#glyph-0-1" x="368.311405" y="51.847656"/>
<use xlink:href="#glyph-0-2" x="372.266338" y="51.847656"/>
</g>
<g fill="rgb(0%, 0%, 0%)" fill-opacity="1">
<use xlink:href="#glyph-0-0" x="432.925781" y="81.59375"/>
<use xlink:href="#glyph-0-1" x="438.459842" y="81.59375"/>
<use xlink:href="#glyph-0-2" x="442.414775" y="81.59375"/>
</g>
<g fill="rgb(0%, 0%, 0%)" fill-opacity="1">
<use xlink:href="#glyph-0-0" x="218.496094" y="200.550781"/>
<use xlink:href="#glyph-0-1" x="224.030155" y="200.550781"/>
<use xlink:href="#glyph-0-2" x="227.985088" y="200.550781"/>
</g>
<g fill="rgb(0%, 0%, 0%)" fill-opacity="1">
<use xlink:href="#glyph-0-0" x="363.433594" y="126.554688"/>
<use xlink:href="#glyph-0-1" x="368.967655" y="126.554688"/>
<use xlink:href="#glyph-0-2" x="372.922588" y="126.554688"/>
</g>
<g fill="rgb(0%, 0%, 0%)" fill-opacity="1">
<use xlink:href="#glyph-0-0" x="154.546875" y="254.832031"/>
<use xlink:href="#glyph-0-1" x="160.080936" y="254.832031"/>
<use xlink:href="#glyph-0-2" x="164.035869" y="254.832031"/>
</g>
<g fill="rgb(0%, 0%, 0%)" fill-opacity="1">
<use xlink:href="#glyph-0-0" x="144.800781" y="209.320312"/>
<use xlink:href="#glyph-0-1" x="150.334842" y="209.320312"/>
<use xlink:href="#glyph-0-2" x="154.289775" y="209.320312"/>
</g>
<g fill="rgb(0%, 0%, 0%)" fill-opacity="1">
<use xlink:href="#glyph-0-0" x="248.949219" y="101.492188"/>
<use xlink:href="#glyph-0-1" x="254.48328" y="101.492188"/>
<use xlink:href="#glyph-0-2" x="258.438213" y="101.492188"/>
</g>
<g fill="rgb(0%, 0%, 0%)" fill-opacity="1">
<use xlink:href="#glyph-0-0" x="245.199219" y="109.679688"/>
<use xlink:href="#glyph-0-1" x="250.73328" y="109.679688"/>
<use xlink:href="#glyph-0-2" x="254.688213" y="109.679688"/>
</g>
<g fill="rgb(0%, 0%, 0%)" fill-opacity="1">
<use xlink:href="#glyph-0-0" x="234.042969" y="111.972656"/>
<use xlink:href="#glyph-0-1" x="239.57703" y="111.972656"/>
<use xlink:href="#glyph-0-2" x="243.531963" y="111.972656"/>
</g>
<g fill="rgb(0%, 0%, 0%)" fill-opacity="1">
<use xlink:href="#glyph-0-0" x="211.613281" y="273.042969"/>
<use xlink:href="#glyph-0-1" x="217.147342" y="273.042969"/>
<use xlink:href="#glyph-0-2" x="221.102275" y="273.042969"/>
</g>
<g fill="rgb(0%, 0%, 0%)" fill-opacity="1">
<use xlink:href="#glyph-0-0" x="97.175781" y="201.261719"/>
<use xlink:href="#glyph-0-1" x="102.709842" y="201.261719"/>
<use xlink:href="#glyph-0-2" x="106.664775" y="201.261719"/>
</g>
<g fill="rgb(0%, 0%, 0%)" fill-opacity="1">
<use xlink:href="#glyph-0-0" x="190.261719" y="165.609375"/>
<use xlink:href="#glyph-0-1" x="195.79578" y="165.609375"/>
<use xlink:href="#glyph-0-2" x="199.750713" y="165.609375"/>
</g>
<g fill="rgb(0%, 0%, 0%)" fill-opacity="1">
<use xlink:href="#glyph-0-0" x="154.074219" y="200.921875"/>
<use xlink:href="#glyph-0-1" x="159.60828" y="200.921875"/>
<use xlink:href="#glyph-0-2" x="163.563213" y="200.921875"/>
</g>
<g fill="rgb(0%, 0%, 0%)" fill-opacity="1">
<use xlink:href="#glyph-0-0" x="249.085938" y="144.371094"/>
<use xlink:href="#glyph-0-1" x="254.619999" y="144.371094"/>
<use xlink:href="#glyph-0-2" x="258.574932" y="144.371094"/>
</g>
<g fill="rgb(0%, 0%, 0%)" fill-opacity="1">
<use xlink:href="#glyph-0-0" x="305.449219" y="91.757812"/>
<use xlink:href="#glyph-0-1" x="310.98328" y="91.757812"/>
<use xlink:href="#glyph-0-2" x="314.938213" y="91.757812"/>
</g>
<g fill="rgb(0%, 0%, 0%)" fill-opacity="1">
<use xlink:href="#glyph-0-0" x="318.992188" y="111.164062"/>
<use xlink:href="#glyph-0-1" x="324.526249" y="111.164062"/>
<use xlink:href="#glyph-0-2" x="328.481182" y="111.164062"/>
</g>
<g fill="rgb(0%, 0%, 0%)" fill-opacity="1">
<use xlink:href="#glyph-0-0" x="266.828125" y="179.257812"/>
<use xlink:href="#glyph-0-1" x="272.362186" y="179.257812"/>
<use xlink:href="#glyph-0-2" x="276.317119" y="179.257812"/>
</g>
<g fill="rgb(0%, 0%, 0%)" fill-opacity="1">
<use xlink:href="#glyph-0-0" x="288.824219" y="109.980469"/>
<use xlink:href="#glyph-0-1" x="294.35828" y="109.980469"/>
<use xlink:href="#glyph-0-2" x="298.313213" y="109.980469"/>
</g>
<g fill="rgb(0%, 0%, 0%)" fill-opacity="1">
<use xlink:href="#glyph-0-0" x="181.585938" y="189.636719"/>
<use xlink:href="#glyph-0-1" x="187.119999" y="189.636719"/>
<use xlink:href="#glyph-0-2" x="191.074932" y="189.636719"/>
</g>
<g fill="rgb(0%, 0%, 0%)" fill-opacity="1">
<use xlink:href="#glyph-0-0" x="388.027344" y="113.457031"/>
<use xlink:href="#glyph-0-1" x="393.561405" y="113.457031"/>
<use xlink:href="#glyph-0-2" x="397.516338" y="113.457031"/>
</g>
<g fill="rgb(0%, 0%, 0%)" fill-opacity="1">
<use xlink:href="#glyph-0-0" x="225.453125" y="60.898438"/>
<use xlink:href="#glyph-0-1" x="230.987186" y="60.898438"/>
<use xlink:href="#glyph-0-2" x="234.942119" y="60.898438"/>
</g>
<g fill="rgb(0%, 0%, 0%)" fill-opacity="1">
<use xlink:href="#glyph-0-0" x="221.1875" y="112.5"/>
<use xlink:href="#glyph-0-1" x="226.721561" y="112.5"/>
<use xlink:href="#glyph-0-2" x="230.676494" y="112.5"/>
</g>
<g fill="rgb(0%, 0%, 0%)" fill-opacity="1">
<use xlink:href="#glyph-0-0" x="235.242188" y="132.015625"/>
<use xlink:href="#glyph-0-1" x="240.776249" y="132.015625"/>
<use xlink:href="#glyph-0-2" x="244.731182" y="132.015625"/>
</g>
<g fill="rgb(0%, 0%, 0%)" fill-opacity="1">
<use xlink:href="#glyph-0-0" x="351.558594" y="141.425781"/>
<use xlink:href="#glyph-0-1" x="357.092655" y="141.425781"/>
<use xlink:href="#glyph-0-2" x="361.047588" y="141.425781"/>
</g>
<g fill="rgb(0%, 0%, 0%)" fill-opacity="1">
<use xlink:href="#glyph-0-0" x="280.601562" y="109.789062"/>
<use xlink:href="#glyph-0-1" x="286.135624" y="109.789062"/>
<use xlink:href="#glyph-0-2" x="290.090557" y="109.789062"/>
</g>
<g fill="rgb(0%, 0%, 0%)" fill-opacity="1">
<use xlink:href="#glyph-0-0" x="255.390625" y="205.339844"/>
<use xlink:href="#glyph-0-1" x="260.924686" y="205.339844"/>
<use xlink:href="#glyph-0-2" x="264.879619" y="205.339844"/>
</g>
<g fill="rgb(0%, 0%, 0%)" fill-opacity="1">
<use xlink:href="#glyph-0-0" x="156.144531" y="321.117188"/>
<use xlink:href="#glyph-0-1" x="161.678592" y="321.117188"/>
<use xlink:href="#glyph-0-2" x="165.633525" y="321.117188"/>
</g>
<g fill="rgb(0%, 0%, 0%)" fill-opacity="1">
<use xlink:href="#glyph-0-0" x="285.738281" y="179.347656"/>
<use xlink:href="#glyph-0-1" x="291.272342" y="179.347656"/>
<use xlink:href="#glyph-0-2" x="295.227275" y="179.347656"/>
</g>
<g fill="rgb(0%, 0%, 0%)" fill-opacity="1">
<use xlink:href="#glyph-0-0" x="280.214844" y="158.414062"/>
<use xlink:href="#glyph-0-1" x="285.748905" y="158.414062"/>
<use xlink:href="#glyph-0-2" x="289.703838" y="158.414062"/>
</g>
<g fill="rgb(0%, 0%, 0%)" fill-opacity="1">
<use xlink:href="#glyph-0-0" x="367.511719" y="145.9375"/>
<use xlink:href="#glyph-0-1" x="373.04578" y="145.9375"/>
<use xlink:href="#glyph-0-2" x="377.000713" y="145.9375"/>
</g>
<g fill="rgb(0%, 0%, 0%)" fill-opacity="1">
<use xlink:href="#glyph-0-0" x="227.03125" y="137.03125"/>
<use xlink:href="#glyph-0-1" x="232.565311" y="137.03125"/>
<use xlink:href="#glyph-0-2" x="236.520244" y="137.03125"/>
</g>
<g fill="rgb(0%, 0%, 0%)" fill-opacity="1">
<use xlink:href="#glyph-0-0" x="195.300781" y="111.644531"/>
<use xlink:href="#glyph-0-1" x="200.834842" y="111.644531"/>
<use xlink:href="#glyph-0-2" x="204.789775" y="111.644531"/>
</g>
<g fill="rgb(0%, 0%, 0%)" fill-opacity="1">
<use xlink:href="#glyph-0-0" x="211.195312" y="199.84375"/>
<use xlink:href="#glyph-0-1" x="216.729374" y="199.84375"/>
<use xlink:href="#glyph-0-2" x="220.684307" y="199.84375"/>
</g>
<g fill="rgb(0%, 0%, 0%)" fill-opacity="1">
<use xlink:href="#glyph-0-0" x="58.003906" y="136.289062"/>
<use xlink:href="#glyph-0-1" x="63.537967" y="136.289062"/>
<use xlink:href="#glyph-0-2" x="67.4929" y="136.289062"/>
</g>
<g fill="rgb(0%, 0%, 0%)" fill-opacity="1">
<use xlink:href="#glyph-0-0" x="232.28125" y="80.570312"/>
<use xlink:href="#glyph-0-1" x="237.815311" y="80.570312"/>
<use xlink:href="#glyph-0-2" x="241.770244" y="80.570312"/>
</g>
<g fill="rgb(0%, 0%, 0%)" fill-opacity="1">
<use xlink:href="#glyph-0-0" x="277.992188" y="86.179688"/>
<use xlink:href="#glyph-0-1" x="283.526249" y="86.179688"/>
<use xlink:href="#glyph-0-2" x="287.481182" y="86.179688"/>
</g>
<g fill="rgb(0%, 0%, 0%)" fill-opacity="1">
<use xlink:href="#glyph-0-0" x="228.246094" y="56.0625"/>
<use xlink:href="#glyph-0-1" x="233.780155" y="56.0625"/>
<use xlink:href="#glyph-0-2" x="237.735088" y="56.0625"/>
</g>
<g fill="rgb(0%, 0%, 0%)" fill-opacity="1">
<use xlink:href="#glyph-0-0" x="200.355469" y="122.753906"/>
<use xlink:href="#glyph-0-1" x="205.88953" y="122.753906"/>
<use xlink:href="#glyph-0-2" x="209.844463" y="122.753906"/>
</g>
<g fill="rgb(0%, 0%, 0%)" fill-opacity="1">
<use xlink:href="#glyph-0-0" x="171.082031" y="185.441406"/>
<use xlink:href="#glyph-0-1" x="176.616092" y="185.441406"/>
<use xlink:href="#glyph-0-2" x="180.571025" y="185.441406"/>
</g>
<g fill="rgb(0%, 0%, 0%)" fill-opacity="1">
<use xlink:href="#glyph-0-0" x="187" y="228.792969"/>
<use xlink:href="#glyph-0-1" x="192.534061" y="228.792969"/>
<use xlink:href="#glyph-0-2" x="196.488994" y="228.792969"/>
</g>
<g fill="rgb(0%, 0%, 0%)" fill-opacity="1">
<use xlink:href="#glyph-0-0" x="233.09375" y="181.023438"/>
<use xlink:href="#glyph-0-1" x="238.627811" y="181.023438"/>
<use xlink:href="#glyph-0-2" x="242.582744" y="181.023438"/>
</g>
<g clip-path="url(#clip-21)">
<path fill="none" stroke-width="1.066978" stroke-linecap="butt" stroke-linejoin="round" stroke="rgb(0%, 0%, 0%)" stroke-opacity="1" stroke-dasharray="1.066978 3.200935 4.267913 3.200935" stroke-miterlimit="10" d="M 240.523438 328.097656 L 240.523438 31.902344 "/>
</g>
<g clip-path="url(#clip-22)">
<path fill="none" stroke-width="1.066978" stroke-linecap="butt" stroke-linejoin="round" stroke="rgb(0%, 0%, 0%)" stroke-opacity="1" stroke-dasharray="1.066978 3.200935 4.267913 3.200935" stroke-miterlimit="10" d="M 45.585938 149.273438 L 458.414062 149.273438 "/>
</g>
<g clip-path="url(#clip-23)">
<path fill="none" stroke-width="1.066978" stroke-linecap="round" stroke-linejoin="round" stroke="rgb(20%, 20%, 20%)" stroke-opacity="1" stroke-miterlimit="10" d="M 45.585938 328.097656 L 458.414062 328.097656 L 458.414062 31.898438 L 45.585938 31.898438 Z M 45.585938 328.097656 "/>
</g>
<path fill="none" stroke-width="1.066978" stroke-linecap="butt" stroke-linejoin="round" stroke="rgb(20%, 20%, 20%)" stroke-opacity="1" stroke-miterlimit="10" d="M 102.65625 29.160156 L 102.65625 31.902344 "/>
<path fill="none" stroke-width="1.066978" stroke-linecap="butt" stroke-linejoin="round" stroke="rgb(20%, 20%, 20%)" stroke-opacity="1" stroke-miterlimit="10" d="M 171.589844 29.160156 L 171.589844 31.902344 "/>
<path fill="none" stroke-width="1.066978" stroke-linecap="butt" stroke-linejoin="round" stroke="rgb(20%, 20%, 20%)" stroke-opacity="1" stroke-miterlimit="10" d="M 240.523438 29.160156 L 240.523438 31.902344 "/>
<path fill="none" stroke-width="1.066978" stroke-linecap="butt" stroke-linejoin="round" stroke="rgb(20%, 20%, 20%)" stroke-opacity="1" stroke-miterlimit="10" d="M 309.460938 29.160156 L 309.460938 31.902344 "/>
<path fill="none" stroke-width="1.066978" stroke-linecap="butt" stroke-linejoin="round" stroke="rgb(20%, 20%, 20%)" stroke-opacity="1" stroke-miterlimit="10" d="M 378.394531 29.160156 L 378.394531 31.902344 "/>
<path fill="none" stroke-width="1.066978" stroke-linecap="butt" stroke-linejoin="round" stroke="rgb(20%, 20%, 20%)" stroke-opacity="1" stroke-miterlimit="10" d="M 447.328125 29.160156 L 447.328125 31.902344 "/>
<g fill="rgb(30.196078%, 30.196078%, 30.196078%)" fill-opacity="1">
<use xlink:href="#glyph-1-0" x="90.183594" y="26.96875"/>
<use xlink:href="#glyph-1-1" x="93.113994" y="26.96875"/>
<use xlink:href="#glyph-1-2" x="98.006794" y="26.96875"/>
<use xlink:href="#glyph-1-3" x="100.453194" y="26.96875"/>
<use xlink:href="#glyph-1-3" x="105.345994" y="26.96875"/>
<use xlink:href="#glyph-1-3" x="110.238794" y="26.96875"/>
</g>
<g fill="rgb(30.196078%, 30.196078%, 30.196078%)" fill-opacity="1">
<use xlink:href="#glyph-1-0" x="162.785156" y="26.96875"/>
<use xlink:href="#glyph-1-4" x="165.715556" y="26.96875"/>
<use xlink:href="#glyph-1-3" x="170.608356" y="26.96875"/>
<use xlink:href="#glyph-1-3" x="175.501156" y="26.96875"/>
</g>
<g fill="rgb(30.196078%, 30.196078%, 30.196078%)" fill-opacity="1">
<use xlink:href="#glyph-1-3" x="238.078125" y="26.96875"/>
</g>
<g fill="rgb(30.196078%, 30.196078%, 30.196078%)" fill-opacity="1">
<use xlink:href="#glyph-1-4" x="302.121094" y="26.96875"/>
<use xlink:href="#glyph-1-3" x="307.013894" y="26.96875"/>
<use xlink:href="#glyph-1-3" x="311.906694" y="26.96875"/>
</g>
<g fill="rgb(30.196078%, 30.196078%, 30.196078%)" fill-opacity="1">
<use xlink:href="#glyph-1-1" x="367.386719" y="26.96875"/>
<use xlink:href="#glyph-1-2" x="372.279519" y="26.96875"/>
<use xlink:href="#glyph-1-3" x="374.725919" y="26.96875"/>
<use xlink:href="#glyph-1-3" x="379.618719" y="26.96875"/>
<use xlink:href="#glyph-1-3" x="384.511519" y="26.96875"/>
</g>
<g fill="rgb(30.196078%, 30.196078%, 30.196078%)" fill-opacity="1">
<use xlink:href="#glyph-1-1" x="436.320312" y="26.96875"/>
<use xlink:href="#glyph-1-2" x="441.213113" y="26.96875"/>
<use xlink:href="#glyph-1-4" x="443.659513" y="26.96875"/>
<use xlink:href="#glyph-1-3" x="448.552313" y="26.96875"/>
<use xlink:href="#glyph-1-3" x="453.445113" y="26.96875"/>
</g>
<g fill="rgb(30.196078%, 30.196078%, 30.196078%)" fill-opacity="1">
<use xlink:href="#glyph-1-5" x="18.632812" y="266.441406"/>
<use xlink:href="#glyph-1-2" x="23.525613" y="266.441406"/>
<use xlink:href="#glyph-1-6" x="25.972013" y="266.441406"/>
<use xlink:href="#glyph-1-3" x="30.864813" y="266.441406"/>
<use xlink:href="#glyph-1-3" x="35.757613" y="266.441406"/>
</g>
<g fill="rgb(30.196078%, 30.196078%, 30.196078%)" fill-opacity="1">
<use xlink:href="#glyph-1-5" x="18.632812" y="192.242188"/>
<use xlink:href="#glyph-1-2" x="23.525613" y="192.242188"/>
<use xlink:href="#glyph-1-7" x="25.972013" y="192.242188"/>
<use xlink:href="#glyph-1-3" x="30.864813" y="192.242188"/>
<use xlink:href="#glyph-1-3" x="35.757613" y="192.242188"/>
</g>
<g fill="rgb(30.196078%, 30.196078%, 30.196078%)" fill-opacity="1">
<use xlink:href="#glyph-1-8" x="18.632812" y="118.039062"/>
<use xlink:href="#glyph-1-2" x="23.525613" y="118.039062"/>
<use xlink:href="#glyph-1-9" x="25.972013" y="118.039062"/>
<use xlink:href="#glyph-1-3" x="30.864813" y="118.039062"/>
<use xlink:href="#glyph-1-3" x="35.757613" y="118.039062"/>
</g>
<g fill="rgb(30.196078%, 30.196078%, 30.196078%)" fill-opacity="1">
<use xlink:href="#glyph-1-8" x="18.632812" y="43.839844"/>
<use xlink:href="#glyph-1-2" x="23.525613" y="43.839844"/>
<use xlink:href="#glyph-1-4" x="25.972013" y="43.839844"/>
<use xlink:href="#glyph-1-3" x="30.864813" y="43.839844"/>
<use xlink:href="#glyph-1-3" x="35.757613" y="43.839844"/>
</g>
<path fill="none" stroke-width="1.066978" stroke-linecap="butt" stroke-linejoin="round" stroke="rgb(20%, 20%, 20%)" stroke-opacity="1" stroke-miterlimit="10" d="M 42.84375 263.234375 L 45.585938 263.234375 "/>
<path fill="none" stroke-width="1.066978" stroke-linecap="butt" stroke-linejoin="round" stroke="rgb(20%, 20%, 20%)" stroke-opacity="1" stroke-miterlimit="10" d="M 42.84375 189.035156 L 45.585938 189.035156 "/>
<path fill="none" stroke-width="1.066978" stroke-linecap="butt" stroke-linejoin="round" stroke="rgb(20%, 20%, 20%)" stroke-opacity="1" stroke-miterlimit="10" d="M 42.84375 114.832031 L 45.585938 114.832031 "/>
<path fill="none" stroke-width="1.066978" stroke-linecap="butt" stroke-linejoin="round" stroke="rgb(20%, 20%, 20%)" stroke-opacity="1" stroke-miterlimit="10" d="M 42.84375 40.632812 L 45.585938 40.632812 "/>
<path fill="none" stroke-width="1.066978" stroke-linecap="butt" stroke-linejoin="round" stroke="rgb(20%, 20%, 20%)" stroke-opacity="1" stroke-miterlimit="10" d="M 461.15625 263.234375 L 458.414062 263.234375 "/>
<path fill="none" stroke-width="1.066978" stroke-linecap="butt" stroke-linejoin="round" stroke="rgb(20%, 20%, 20%)" stroke-opacity="1" stroke-miterlimit="10" d="M 461.15625 189.035156 L 458.414062 189.035156 "/>
<path fill="none" stroke-width="1.066978" stroke-linecap="butt" stroke-linejoin="round" stroke="rgb(20%, 20%, 20%)" stroke-opacity="1" stroke-miterlimit="10" d="M 461.15625 114.832031 L 458.414062 114.832031 "/>
<path fill="none" stroke-width="1.066978" stroke-linecap="butt" stroke-linejoin="round" stroke="rgb(20%, 20%, 20%)" stroke-opacity="1" stroke-miterlimit="10" d="M 461.15625 40.632812 L 458.414062 40.632812 "/>
<g fill="rgb(30.196078%, 30.196078%, 30.196078%)" fill-opacity="1">
<use xlink:href="#glyph-1-5" x="463.347656" y="266.441406"/>
<use xlink:href="#glyph-1-2" x="468.240456" y="266.441406"/>
<use xlink:href="#glyph-1-6" x="470.686856" y="266.441406"/>
<use xlink:href="#glyph-1-3" x="475.579656" y="266.441406"/>
<use xlink:href="#glyph-1-3" x="480.472456" y="266.441406"/>
</g>
<g fill="rgb(30.196078%, 30.196078%, 30.196078%)" fill-opacity="1">
<use xlink:href="#glyph-1-5" x="463.347656" y="192.242188"/>
<use xlink:href="#glyph-1-2" x="468.240456" y="192.242188"/>
<use xlink:href="#glyph-1-7" x="470.686856" y="192.242188"/>
<use xlink:href="#glyph-1-3" x="475.579656" y="192.242188"/>
<use xlink:href="#glyph-1-3" x="480.472456" y="192.242188"/>
</g>
<g fill="rgb(30.196078%, 30.196078%, 30.196078%)" fill-opacity="1">
<use xlink:href="#glyph-1-8" x="463.347656" y="118.039062"/>
<use xlink:href="#glyph-1-2" x="468.240456" y="118.039062"/>
<use xlink:href="#glyph-1-9" x="470.686856" y="118.039062"/>
<use xlink:href="#glyph-1-3" x="475.579656" y="118.039062"/>
<use xlink:href="#glyph-1-3" x="480.472456" y="118.039062"/>
</g>
<g fill="rgb(30.196078%, 30.196078%, 30.196078%)" fill-opacity="1">
<use xlink:href="#glyph-1-8" x="463.347656" y="43.839844"/>
<use xlink:href="#glyph-1-2" x="468.240456" y="43.839844"/>
<use xlink:href="#glyph-1-4" x="470.686856" y="43.839844"/>
<use xlink:href="#glyph-1-3" x="475.579656" y="43.839844"/>
<use xlink:href="#glyph-1-3" x="480.472456" y="43.839844"/>
</g>
<path fill="none" stroke-width="1.066978" stroke-linecap="butt" stroke-linejoin="round" stroke="rgb(20%, 20%, 20%)" stroke-opacity="1" stroke-miterlimit="10" d="M 102.65625 330.839844 L 102.65625 328.097656 "/>
<path fill="none" stroke-width="1.066978" stroke-linecap="butt" stroke-linejoin="round" stroke="rgb(20%, 20%, 20%)" stroke-opacity="1" stroke-miterlimit="10" d="M 171.589844 330.839844 L 171.589844 328.097656 "/>
<path fill="none" stroke-width="1.066978" stroke-linecap="butt" stroke-linejoin="round" stroke="rgb(20%, 20%, 20%)" stroke-opacity="1" stroke-miterlimit="10" d="M 240.523438 330.839844 L 240.523438 328.097656 "/>
<path fill="none" stroke-width="1.066978" stroke-linecap="butt" stroke-linejoin="round" stroke="rgb(20%, 20%, 20%)" stroke-opacity="1" stroke-miterlimit="10" d="M 309.460938 330.839844 L 309.460938 328.097656 "/>
<path fill="none" stroke-width="1.066978" stroke-linecap="butt" stroke-linejoin="round" stroke="rgb(20%, 20%, 20%)" stroke-opacity="1" stroke-miterlimit="10" d="M 378.394531 330.839844 L 378.394531 328.097656 "/>
<path fill="none" stroke-width="1.066978" stroke-linecap="butt" stroke-linejoin="round" stroke="rgb(20%, 20%, 20%)" stroke-opacity="1" stroke-miterlimit="10" d="M 447.328125 330.839844 L 447.328125 328.097656 "/>
<g fill="rgb(30.196078%, 30.196078%, 30.196078%)" fill-opacity="1">
<use xlink:href="#glyph-1-0" x="90.183594" y="339.445312"/>
<use xlink:href="#glyph-1-1" x="93.113994" y="339.445312"/>
<use xlink:href="#glyph-1-2" x="98.006794" y="339.445312"/>
<use xlink:href="#glyph-1-3" x="100.453194" y="339.445312"/>
<use xlink:href="#glyph-1-3" x="105.345994" y="339.445312"/>
<use xlink:href="#glyph-1-3" x="110.238794" y="339.445312"/>
</g>
<g fill="rgb(30.196078%, 30.196078%, 30.196078%)" fill-opacity="1">
<use xlink:href="#glyph-1-0" x="162.785156" y="339.445312"/>
<use xlink:href="#glyph-1-4" x="165.715556" y="339.445312"/>
<use xlink:href="#glyph-1-3" x="170.608356" y="339.445312"/>
<use xlink:href="#glyph-1-3" x="175.501156" y="339.445312"/>
</g>
<g fill="rgb(30.196078%, 30.196078%, 30.196078%)" fill-opacity="1">
<use xlink:href="#glyph-1-3" x="238.078125" y="339.445312"/>
</g>
<g fill="rgb(30.196078%, 30.196078%, 30.196078%)" fill-opacity="1">
<use xlink:href="#glyph-1-4" x="302.121094" y="339.445312"/>
<use xlink:href="#glyph-1-3" x="307.013894" y="339.445312"/>
<use xlink:href="#glyph-1-3" x="311.906694" y="339.445312"/>
</g>
<g fill="rgb(30.196078%, 30.196078%, 30.196078%)" fill-opacity="1">
<use xlink:href="#glyph-1-1" x="367.386719" y="339.445312"/>
<use xlink:href="#glyph-1-2" x="372.279519" y="339.445312"/>
<use xlink:href="#glyph-1-3" x="374.725919" y="339.445312"/>
<use xlink:href="#glyph-1-3" x="379.618719" y="339.445312"/>
<use xlink:href="#glyph-1-3" x="384.511519" y="339.445312"/>
</g>
<g fill="rgb(30.196078%, 30.196078%, 30.196078%)" fill-opacity="1">
<use xlink:href="#glyph-1-1" x="436.320312" y="339.445312"/>
<use xlink:href="#glyph-1-2" x="441.213113" y="339.445312"/>
<use xlink:href="#glyph-1-4" x="443.659513" y="339.445312"/>
<use xlink:href="#glyph-1-3" x="448.552313" y="339.445312"/>
<use xlink:href="#glyph-1-3" x="453.445113" y="339.445312"/>
</g>
<g fill="rgb(0%, 0%, 0%)" fill-opacity="1">
<use xlink:href="#glyph-2-0" x="241.300781" y="15.894531"/>
<use xlink:href="#glyph-2-1" x="248.637781" y="15.894531"/>
<use xlink:href="#glyph-2-2" x="256.579781" y="15.894531"/>
</g>
<g fill="rgb(0%, 0%, 0%)" fill-opacity="1">
<use xlink:href="#glyph-2-0" x="241.300781" y="352.121094"/>
<use xlink:href="#glyph-2-1" x="248.637781" y="352.121094"/>
<use xlink:href="#glyph-2-2" x="256.579781" y="352.121094"/>
</g>
<g fill="rgb(0%, 0%, 0%)" fill-opacity="1">
<use xlink:href="#glyph-3-0" x="13.5" y="193.753906"/>
<use xlink:href="#glyph-3-1" x="13.5" y="184.590906"/>
<use xlink:href="#glyph-3-2" x="13.5" y="178.474906"/>
<use xlink:href="#glyph-3-3" x="13.5" y="172.358906"/>
</g>
<g fill="rgb(0%, 0%, 0%)" fill-opacity="1">
<use xlink:href="#glyph-4-0" x="490.5" y="166.246094"/>
<use xlink:href="#glyph-4-1" x="490.5" y="175.409094"/>
<use xlink:href="#glyph-4-2" x="490.5" y="181.525094"/>
<use xlink:href="#glyph-4-3" x="490.5" y="187.641094"/>
</g>
</svg>
